<mxfile host="app.diagrams.net" modified="2022-03-18T05:01:51.217Z" agent="5.0 (Windows NT 10.0; Win64; x64) AppleWebKit/537.36 (KHTML, like Gecko) Chrome/99.0.4844.74 Safari/537.36" etag="wM_0PqHcMu6wXT7afBWZ" version="17.1.3" type="github">
  <diagram name="Page-1" id="e56a1550-8fbb-45ad-956c-1786394a9013">
    <mxGraphModel dx="1237" dy="1463" grid="1" gridSize="10" guides="1" tooltips="1" connect="1" arrows="1" fold="1" page="1" pageScale="1" pageWidth="1100" pageHeight="850" background="none" math="0" shadow="0">
      <root>
        <mxCell id="0" />
        <mxCell id="1" parent="0" />
        <mxCell id="Hu2fvz_3qbJI5bxTBAVy-78" value="" style="group;fontSize=10;" vertex="1" connectable="0" parent="1">
          <mxGeometry x="280" y="-50" width="650" height="620" as="geometry" />
        </mxCell>
        <mxCell id="Hu2fvz_3qbJI5bxTBAVy-27" value="Users" style="shape=umlActor;verticalLabelPosition=bottom;verticalAlign=top;html=1;outlineConnect=0;fontSize=10;" vertex="1" parent="Hu2fvz_3qbJI5bxTBAVy-78">
          <mxGeometry width="28.26086956521739" height="55.11111111111111" as="geometry" />
        </mxCell>
        <mxCell id="Hu2fvz_3qbJI5bxTBAVy-55" value="" style="rounded=1;whiteSpace=wrap;html=1;fontSize=10;fillColor=#dae8fc;strokeColor=#6c8ebf;" vertex="1" parent="Hu2fvz_3qbJI5bxTBAVy-78">
          <mxGeometry x="122.46376811594202" y="91.85185185185185" width="461.5942028985507" height="528.1481481481482" as="geometry" />
        </mxCell>
        <mxCell id="Hu2fvz_3qbJI5bxTBAVy-26" value="" style="group;fontSize=10;" vertex="1" connectable="0" parent="Hu2fvz_3qbJI5bxTBAVy-78">
          <mxGeometry x="273.18840579710144" y="192.8888888888889" width="150.7246376811594" height="220.44444444444443" as="geometry" />
        </mxCell>
        <mxCell id="Hu2fvz_3qbJI5bxTBAVy-18" value="" style="rounded=1;whiteSpace=wrap;html=1;fontSize=10;" vertex="1" parent="Hu2fvz_3qbJI5bxTBAVy-26">
          <mxGeometry width="150.7246376811594" height="220.44444444444443" as="geometry" />
        </mxCell>
        <mxCell id="Hu2fvz_3qbJI5bxTBAVy-19" value="" style="group;fontSize=10;" vertex="1" connectable="0" parent="Hu2fvz_3qbJI5bxTBAVy-26">
          <mxGeometry x="23.550724637681157" y="18.37037037037037" width="103.6231884057971" height="183.7037037037037" as="geometry" />
        </mxCell>
        <mxCell id="Hu2fvz_3qbJI5bxTBAVy-11" value="" style="group;fontSize=10;" vertex="1" connectable="0" parent="Hu2fvz_3qbJI5bxTBAVy-19">
          <mxGeometry width="103.6231884057971" height="82.66666666666666" as="geometry" />
        </mxCell>
        <mxCell id="Hu2fvz_3qbJI5bxTBAVy-3" value="" style="rounded=0;whiteSpace=wrap;html=1;container=1;fontSize=10;" vertex="1" parent="Hu2fvz_3qbJI5bxTBAVy-11">
          <mxGeometry y="0.0007380886480131569" width="103.6231884057971" height="82.66592857801868" as="geometry" />
        </mxCell>
        <mxCell id="Hu2fvz_3qbJI5bxTBAVy-2" value="Frontend Angular Container" style="rounded=0;whiteSpace=wrap;html=1;fontSize=10;" vertex="1" parent="Hu2fvz_3qbJI5bxTBAVy-11">
          <mxGeometry x="12.952898550724637" y="20.665498026307304" width="77.71739130434781" height="55.110619052012446" as="geometry" />
        </mxCell>
        <mxCell id="Hu2fvz_3qbJI5bxTBAVy-5" value="POD" style="rounded=0;whiteSpace=wrap;html=1;direction=south;fontSize=10;" vertex="1" parent="Hu2fvz_3qbJI5bxTBAVy-11">
          <mxGeometry width="17.111342155009446" height="12.954931950012355" as="geometry" />
        </mxCell>
        <mxCell id="Hu2fvz_3qbJI5bxTBAVy-12" value="" style="group;fontSize=10;" vertex="1" connectable="0" parent="Hu2fvz_3qbJI5bxTBAVy-19">
          <mxGeometry y="101.03703703703704" width="103.6231884057971" height="82.66666666666666" as="geometry" />
        </mxCell>
        <mxCell id="Hu2fvz_3qbJI5bxTBAVy-13" value="" style="rounded=0;whiteSpace=wrap;html=1;container=1;fontSize=10;" vertex="1" parent="Hu2fvz_3qbJI5bxTBAVy-12">
          <mxGeometry y="0.0007380886480131569" width="103.6231884057971" height="82.66592857801868" as="geometry" />
        </mxCell>
        <mxCell id="Hu2fvz_3qbJI5bxTBAVy-14" value="Frontend Angular Container" style="rounded=0;whiteSpace=wrap;html=1;fontSize=10;" vertex="1" parent="Hu2fvz_3qbJI5bxTBAVy-12">
          <mxGeometry x="12.952898550724637" y="20.665498026307304" width="77.71739130434781" height="55.110619052012446" as="geometry" />
        </mxCell>
        <mxCell id="Hu2fvz_3qbJI5bxTBAVy-15" value="POD" style="rounded=0;whiteSpace=wrap;html=1;direction=south;fontSize=10;" vertex="1" parent="Hu2fvz_3qbJI5bxTBAVy-12">
          <mxGeometry width="17.111342155009446" height="12.954931950012355" as="geometry" />
        </mxCell>
        <mxCell id="Hu2fvz_3qbJI5bxTBAVy-22" value="" style="group;fontSize=10;" vertex="1" connectable="0" parent="Hu2fvz_3qbJI5bxTBAVy-78">
          <mxGeometry x="273.18840579710144" y="431.7037037037037" width="169.56521739130434" height="137.77777777777777" as="geometry" />
        </mxCell>
        <mxCell id="Hu2fvz_3qbJI5bxTBAVy-23" value="" style="rounded=0;whiteSpace=wrap;html=1;container=1;fontSize=10;" vertex="1" parent="Hu2fvz_3qbJI5bxTBAVy-22">
          <mxGeometry y="0.001230147746688595" width="169.56521739130434" height="137.77654763003108" as="geometry" />
        </mxCell>
        <mxCell id="Hu2fvz_3qbJI5bxTBAVy-21" value="Backend Nodejs&amp;nbsp; (Container)" style="rounded=0;whiteSpace=wrap;html=1;fontSize=10;" vertex="1" parent="Hu2fvz_3qbJI5bxTBAVy-23">
          <mxGeometry x="44.7463768115942" y="18.37037037037037" width="80.07246376811594" height="36.74074074074074" as="geometry" />
        </mxCell>
        <mxCell id="Hu2fvz_3qbJI5bxTBAVy-31" value="Postgres DB&lt;br style=&quot;font-size: 10px;&quot;&gt;(Container)" style="rounded=0;whiteSpace=wrap;html=1;fontSize=10;" vertex="1" parent="Hu2fvz_3qbJI5bxTBAVy-23">
          <mxGeometry x="44.7463768115942" y="79.32325925925926" width="80.07246376811594" height="40.08414814814815" as="geometry" />
        </mxCell>
        <mxCell id="Hu2fvz_3qbJI5bxTBAVy-45" value="5432" style="rounded=0;whiteSpace=wrap;html=1;fontSize=10;fillColor=#0050ef;strokeColor=#001DBC;fontColor=#ffffff;" vertex="1" parent="Hu2fvz_3qbJI5bxTBAVy-23">
          <mxGeometry x="124.81884057971013" y="91.85185185185185" width="16.48550724637681" height="16.698666666666668" as="geometry" />
        </mxCell>
        <mxCell id="Hu2fvz_3qbJI5bxTBAVy-25" value="POD" style="rounded=0;whiteSpace=wrap;html=1;direction=south;fontSize=10;" vertex="1" parent="Hu2fvz_3qbJI5bxTBAVy-22">
          <mxGeometry width="28.000378071833644" height="21.591553250020592" as="geometry" />
        </mxCell>
        <mxCell id="Hu2fvz_3qbJI5bxTBAVy-65" style="edgeStyle=orthogonalEdgeStyle;rounded=0;orthogonalLoop=1;jettySize=auto;html=1;exitX=0.5;exitY=0;exitDx=0;exitDy=0;entryX=0.5;entryY=0.5;entryDx=0;entryDy=0;entryPerimeter=0;fontFamily=Lucida Console;fontSize=10;startArrow=classic;startFill=1;" edge="1" parent="Hu2fvz_3qbJI5bxTBAVy-78" source="Hu2fvz_3qbJI5bxTBAVy-40" target="Hu2fvz_3qbJI5bxTBAVy-27">
          <mxGeometry relative="1" as="geometry">
            <Array as="points">
              <mxPoint x="348.5507246376811" y="27.555555555555554" />
            </Array>
          </mxGeometry>
        </mxCell>
        <mxCell id="Hu2fvz_3qbJI5bxTBAVy-40" value="32219" style="rounded=0;whiteSpace=wrap;html=1;fontSize=10;fillColor=#a20025;strokeColor=#6F0000;fontColor=#ffffff;" vertex="1" parent="Hu2fvz_3qbJI5bxTBAVy-78">
          <mxGeometry x="320.28985507246375" y="119.4074074074074" width="56.52173913043478" height="18.37037037037037" as="geometry" />
        </mxCell>
        <mxCell id="Hu2fvz_3qbJI5bxTBAVy-47" value="Woker Node" style="swimlane;horizontal=0;fontSize=10;fillColor=#e6d0de;gradientColor=#d5739d;strokeColor=#996185;" vertex="1" parent="Hu2fvz_3qbJI5bxTBAVy-78">
          <mxGeometry x="197.82608695652175" y="137.77777777777777" width="310.86956521739125" height="450.0740740740741" as="geometry" />
        </mxCell>
        <mxCell id="Hu2fvz_3qbJI5bxTBAVy-52" value="&lt;font style=&quot;font-size: 10px;&quot;&gt;3000&lt;/font&gt;" style="rounded=0;whiteSpace=wrap;html=1;fontSize=10;fillColor=#0050ef;strokeColor=#001DBC;fontColor=#ffffff;" vertex="1" parent="Hu2fvz_3qbJI5bxTBAVy-47">
          <mxGeometry x="200.18115942028984" y="321.48148148148147" width="16.48550724637681" height="18.37037037037037" as="geometry" />
        </mxCell>
        <mxCell id="Hu2fvz_3qbJI5bxTBAVy-68" value="4200" style="rounded=0;whiteSpace=wrap;html=1;fontFamily=Lucida Console;fontSize=10;fillColor=#0050ef;strokeColor=#001DBC;fontColor=#ffffff;" vertex="1" parent="Hu2fvz_3qbJI5bxTBAVy-47">
          <mxGeometry x="131.88405797101447" y="36.74074074074074" width="37.68115942028985" height="18.37037037037037" as="geometry" />
        </mxCell>
        <mxCell id="Hu2fvz_3qbJI5bxTBAVy-70" style="edgeStyle=orthogonalEdgeStyle;rounded=0;orthogonalLoop=1;jettySize=auto;html=1;exitX=0.5;exitY=1;exitDx=0;exitDy=0;entryX=0.5;entryY=0;entryDx=0;entryDy=0;fontFamily=Lucida Console;fontSize=10;startArrow=classic;startFill=1;" edge="1" parent="Hu2fvz_3qbJI5bxTBAVy-78" source="Hu2fvz_3qbJI5bxTBAVy-40" target="Hu2fvz_3qbJI5bxTBAVy-68">
          <mxGeometry relative="1" as="geometry" />
        </mxCell>
        <mxCell id="Hu2fvz_3qbJI5bxTBAVy-54" style="edgeStyle=none;rounded=0;orthogonalLoop=1;jettySize=auto;html=1;exitX=0;exitY=0.5;exitDx=0;exitDy=0;entryX=1;entryY=0.5;entryDx=0;entryDy=0;fontSize=10;startArrow=classic;startFill=1;" edge="1" parent="Hu2fvz_3qbJI5bxTBAVy-78" source="Hu2fvz_3qbJI5bxTBAVy-39" target="Hu2fvz_3qbJI5bxTBAVy-52">
          <mxGeometry relative="1" as="geometry" />
        </mxCell>
        <mxCell id="Hu2fvz_3qbJI5bxTBAVy-39" value="31175" style="rounded=0;whiteSpace=wrap;html=1;fontSize=10;fillColor=#a20025;strokeColor=#6F0000;fontColor=#ffffff;" vertex="1" parent="Hu2fvz_3qbJI5bxTBAVy-78">
          <mxGeometry x="508.69565217391295" y="473.03703703703707" width="28.26086956521739" height="55.11111111111111" as="geometry" />
        </mxCell>
        <mxCell id="Hu2fvz_3qbJI5bxTBAVy-57" value="&lt;font style=&quot;font-size: 10px;&quot;&gt;Kubernetes Cluster&lt;/font&gt;" style="text;html=1;strokeColor=#3700CC;fillColor=#6a00ff;align=center;verticalAlign=middle;whiteSpace=wrap;rounded=0;fontSize=10;fontFamily=Lucida Console;fontColor=#ffffff;" vertex="1" parent="Hu2fvz_3qbJI5bxTBAVy-78">
          <mxGeometry x="235.5072463768116" y="601.6296296296297" width="235.5072463768116" height="18.37037037037037" as="geometry" />
        </mxCell>
        <mxCell id="Hu2fvz_3qbJI5bxTBAVy-72" style="edgeStyle=orthogonalEdgeStyle;rounded=0;orthogonalLoop=1;jettySize=auto;html=1;exitX=1;exitY=0.5;exitDx=0;exitDy=0;entryX=1;entryY=0.5;entryDx=0;entryDy=0;fontFamily=Lucida Console;fontSize=10;startArrow=classic;startFill=1;" edge="1" parent="Hu2fvz_3qbJI5bxTBAVy-78" source="Hu2fvz_3qbJI5bxTBAVy-40" target="Hu2fvz_3qbJI5bxTBAVy-39">
          <mxGeometry relative="1" as="geometry">
            <Array as="points">
              <mxPoint x="650" y="128.5925925925926" />
              <mxPoint x="650" y="500.59259259259255" />
            </Array>
          </mxGeometry>
        </mxCell>
        <mxCell id="Hu2fvz_3qbJI5bxTBAVy-73" style="edgeStyle=orthogonalEdgeStyle;rounded=0;orthogonalLoop=1;jettySize=auto;html=1;exitX=0.5;exitY=1;exitDx=0;exitDy=0;fontFamily=Lucida Console;fontSize=10;startArrow=classic;startFill=1;" edge="1" parent="Hu2fvz_3qbJI5bxTBAVy-78" source="Hu2fvz_3qbJI5bxTBAVy-52" target="Hu2fvz_3qbJI5bxTBAVy-45">
          <mxGeometry relative="1" as="geometry" />
        </mxCell>
        <mxCell id="Hu2fvz_3qbJI5bxTBAVy-85" value="" style="shape=image;verticalLabelPosition=bottom;labelBackgroundColor=default;verticalAlign=top;aspect=fixed;imageAspect=0;image=data:image/png,iVBORw0KGgoAAAANSUhEUgAABlUAAAMeCAYAAACEN4IrAAAAAXNSR0IArs4c6QAAAARnQU1BAACxjwv8YQUAAAAJcEhZcwAADsMAAA7DAcdvqGQAAP+lSURBVHhe7P0HgB3Vfff/f27bJmlXvQNCoklU0TtC9G4QvTfH2MlDCI6d4sTYsRNjJ35+/5THEMD03rvoRXREkyhCoqijrpW2l1v+8zm7I5ZlJRZQWWnfLzHsLdPu3JlzZ77fOecIAAAAAAAAAAAAAAAAAAAAAAAAAAAAAAAAAAAAAAAAAAAAAAAAAAAAAAAAAAAAAAAAAAAAAAAAAAAAAAAAAAAAAAAAAAAAAAAAAAAAAAAAAAAAAAAAAAAAAAAAAAAAAAAAAAAAAAAAAAAAAAAAAAAAAAAAAAAAAAAAAAAAAAAAAAAAAAAAAAAAAAAAAAAAAAAAAAAAAAAAAAAAAAAAAAAAAAAAAAAAAAAAAAAAAAAAAAAAAAAAAAAAAAAAAAAAAAAAAAAAAAAAAAAAAAAAAAAAAAAAAAAAAAAAAAAAAAAAAAAAAAAAAAAAAAAAAAAAAAAAAAAAAAAAAAAAAAAAAAAAAAAAAAAAAAAAAAAAAAAAAAAAAAAAAAAAAAAAAAAAAAAAAAAAAAAAAAAAAAAAAAAAAAAAAAAAAAAAAAAAAAAAAAAAAAAAAAAAAAAAAAAAAAAAAAAAAAAAAAAAAAAAAAAAAAAAAAAAAAAAAAAAAAAAAAAAAAAAAAAAAAAAAAAAAAAAAAAAAAAAAAAAAAAAAAAAAAAAAAAAAAAAAAAAAAAAAAAAAAAAAAAAAAAAAAAAAAAAAAAAAAAAAAAAAAAAAAAAAAAAAAAAAAAAAAAAAAAAAAAAAAAAAAAAAAAAAAAAAAAAAAAAAAAAAAAAAAAAAAAAAAAAAAAAAAAAAAAAAAAAAAAAAAAAAAAAAAAAAAAAAAAAAAAAAAAAAAAAAAAAAAAAAAAAAAAAAAAAAAAAAAAAAAAAAAAAAAAAAAAAAAAAAAAAAAAAAAAAAAAAAAAAAAAAAAAAAAAAAAAAAAAAAAAAAAAAAAAAAAAAAAAAAAAAAAAAAAAAAAAAAAAAAAAAAAAAAAAAAAAAAAAAAAAAAAAAAAAAAAAAAAAAAAAAAAAAAAAAAAAAAAAAAAAAAAAAAAAAAAAAAAAAAAAAAAAAAAAAAAAAAAAAAAAAAAAAAAAAAAAAAAAAAAAAAAAAAAAAAAAAAAAAAAAAAAAAAAAAAAAAAAAAAAAAAAAAAAAAQPeWaP3b7RUKhcSvfvUrtgcAAAAAAAAAAK1+9atfFRKJRKH1abdHEqHVFVdckY7+FNXX16daXgEAAAAAAAAAoPsqLS0tLF++vLlv377Nv/71r/OtL3dr3T6p4hoq11xzTXrRokW7ZLPZAxOJRN/WtwAAAAAAAAAA6JYcO8/lck3JZPKj6O9Lu+yyy+JTTz011/p2t9XtkypXXHFFMvrTM9op/jraOX4cPS4PbwAAAAAAAAAA0E05qRJxEuWtXC73q3Q6/fqvf/3rppZ3uy+SKi1JFddO+ZdoJ7mwqKgo3atXr2QkvA8AAAAAAAAA2PideuqpdIfRSYVCQdOnTy+88soramhomJFIJC7v16/fs5deemlj6yjdFkmVL5Mqv8lmsxeOGjUqc9hhhyWKiorC+wAAAAAAAAAAdCckVVaPpEprUiXaKX7T3Nx84ejRozMTJkxIFBcXt4wAAAAAAAAAAEA34qTK1KlTC08//bRqampIqrRBUmUNSZXotZaRAAAAAAAAAADoJvL5PEmV1aDjEAAAAAAAAAAAgE4gqQIAAAAAAAAAANAJJFUAAAAAAAAAAAA6gaQKAAAAAAAAAABAJ5BUAQAAAAAAAAAA6ASSKgAAAAAAAAAAAJ1AUgUAAAAAAAAAAKATSKoAAAAAAAAAAAB0AkkVAAAAAAAAAACATiCpAgAAAAAAAAAA0AkkVQAAAAAAAAAAADqBpAoAAAAAAAAAAEAnkFQBAAAAAAAAAADoBJIqAAAAAAAAAAAAnUBSBQAAAAAAAAAAoBNIqgAAAAAAAAAAAHQCSRUAAAAAAAAAAIBOIKkCAAAAAAAAAADQCSRVAAAAAAAAAAAAOoGkCgAAAAAAAAAAQCeQVAEAAAAAAAAAAOgEkioAAAAAAAAAAACdQFIFAAAAAAAAAACgE0iqAAAAAAAAAAAAdAJJFQAAAAAAAAAAgE4gqQIAAAAAAAAAANAJJFUAAAAAAAAAAAA6gaQKAAAAAAAAAABAJ5BUAQAAAAAAAAAA6ASSKgAAAAAAAAAAAJ1AUgUAAAAAAAAAAKATSKoAAAAAAAAAAAB0AkkVAAAAAAAAAACATiCpAgAAAAAAAAAA0AkkVQAAAAAAAAAAADqBpAoAAAAAAAAAAEAnkFQBAAAAAAAAAADoBJIqAAAAAAAAAAAAnUBSBQAAAAAAAAAAoBNIqgAAAAAAAAAAAHQCSRUAAAAAAAAAAIBOIKkCAAAAAAAAAADQCSRVAAAAAAAAAAAAOoGkCgAAAAAAAAAAQCeQVAEAAAAAAAAAAOgEkioAAAAAAAAAAACdQFIFAAAAAAAAAACgE1Ktf7utcePGJaI/pYlEYnw+nx87YMCA1JgxYxLpdFrRay0jAQAArCO5XI5zDgAAgDY4NwKADa9QKGjRokX6/PPP1dTUtCwqm58sKyubOXHixFzrKN1Wt/+VuuKKK1xbp2+0U/ymubn5wtGjR2cmTJiQKC4u5kccAACsc/PmzVN5eXnrMwAAgO4tlUqpqKhImUym9RUAwIaQz+c1derUwtNPP62ampoZiUTi8n79+j176aWXNraO0m2RVCGpAgAANqCGhgbde++94THnHgA2FN+JGKMsArChuCwqLS3VjjvuqJEjR8qtiAAANgySKqtHUoWkCgAA2MDmzp2ra6+9Npy04vvzOVwySdeB+P58TLZNNmzKfMz42PHnpSzqmLdPPADfFcfYmsVl0b777quDDjpIJSUlre8AANY3kiqrR1KFpAoAANjAfvnLX6p3794aOnQoyYC1hPM4rA3dJaHivp3mz5/vi+VQFg0cODA0v8Nx9HVsE6wN3aVs+TbiZNPChQtVWVmp3XbbTYcffniotQIA2DBIqqweSRWSKgAAYANy81//9m//ph122EFHHHEEzVwAWO8aGxv12GOPhU5Id9ppp3CHeI8ePbgeArBe1dfX69lnn9W0adM0duxYkioAsIGRVFk9kiokVQAAwAZUV1enK6+8UjvvvLOOP/54kioA1jsnVR544AFNnz5du+66q8aNG6eePXtyPQRgvXFNFZ8TPfnkk3r//fdJqgBAF0BSZfVoXwIAAKALcRCTgYGBYX0NHYlfbz8uAwMDw7oaAADYmJBUAQAAAAAAAAAA6ASSKgAAAAAAAAAAAJ1AUgUAAAAAAAAAAKATSKoAAAAAAAAAAAB0AkkVAAAAAAAAAACATiCpAgAAAAAAAAAA0AkkVQAAAAAAAAAAADqBpAoAAAAAAAAAAEAnkFQBAAAAAAAAAADoBJIqAAAAAAAAAAAAnUBSBQAAAAAAAAAAoBNIqgAAAAAAAAAAAHQCSRUAAACgnUKhEIaNTbze32f920/3febXdtrvMj2wqdkYj4W2x3Bn1r39+PHQ1pre+66+aX5razkAAAAkVQAAAIA28vm8stnsqqF9IG5NQbsNxevT3Nwchrbr7s/SXi6XC+N19Bn8mqfzOBaP23be8edf3fwtfr/9+ngAuisfT22PhfbHYPvnXUH78tCDj+vVHfvx+B0d+/Hn8zhtyxQPcZnT1prKqvY8z7bbt/36xevV0XLalldd8TsAAABdT6r1b7c1bty4RPSnNJFIjI9OtMYOGDAgNWbMmEQ6nVb0WstIAAAA64iDOC+//LIGDx6sbbfdVqlUtz8922AcTFuxYoXeeustPffcc5o8ebI+/fRTNTY2qqKiQkVFRWE8nyN2tfPE6upqPfXUU3rhhRfC+r/99tv66KOPtGzZsrDePXr0UDKZDIHDjz/+WFOmTFG/fv1UUlLylc+yfPny8Nlra2sVnRdr+vTpYb7eFu+//74aGhrC60uXLtUbb7wRApS9e/cO826rqakpLMPTejyvz7vvvquZM2eGcb0+mUymdWxsaP4evV94fxkyZIi23HLLsN9wPbR2uGxZtGhROBZ8jPp4mD17dtjuZWVlq7Z1V9veXu/FixfrmWee0UsvvRTKAa/7hx9+qMrKyrDupaWlq45/Jy78uZ5++unwuxaXRR4++OCDUOb06tVL8+fP12OPPabXXnstjOOywsvxNbjLBv8O+rfRZZjLnb59+36trGrL5d+0adPCOr7yyithWS7Li4uLwzp6Oj/3tnfZNWjQoLAs82esr68P6+jyrqNyEeuHvwt/75999lnYH1wWjRo1it8KANiA4nOYzz//3Of3y6Lfxyej39aZEydO/PpdCt0MNVUAAADQ7TkYOGvWLN1www165JFHQuCtrq4uJFUcIIwDoA74+KLiiy+++Nqd0OYLj3hYk86MY50dr6amJgQoHYzyOnpdnSDxul911VUhYBjfwe1xHBz1NO1VVVWFoKQ/t5fbs2fPML/nn39eCxcuDAFKBzwdfH/zzTc1Z86csKy26+jHXo4Dog6YOmDpbeXk1IwZM/TnP/9Zt912W1iG5w1s6pxMdNny7LPPhmPHSQAnC5yscILBx5CPDx+bS5YsCcdLR8e9X+vo9Vj8fttxVjd++/Hai99zOeKyxeWjj1cf237N63711VfrxRdf1MqVK8M6e1iwYEEY35/LSVh/Lg9OtPpzmsd59dVXQ5DG83NZ5HLnuuuuC4kPbx+/7rLW5YzLpY7W18tzGXT99dfr1ltvDUkRl9suv53Q/d///d+QaPF6ODDv+UycODF8lnhdPE9vdyeT/bm4sQEAAHQGSRUAAAB0aw6qOVjoO52dLDniiCP0F3/xF/rRj36kiy++WCeddJI222yzcDe2g32TJk0KwTtP46Beex0F/9qK34/H8d81zSce75v47ur99ttPF110UVj3H/7whzrhhBPCerqWiAOL5s+xulrZfs3vObDo8TbffHMdeOCB6t+/v3bddVeNHj063FUfzyO+Q70jntfIkSN17rnnhu3pwet20EEHhWCpEzUOMHf28wEbIx9/7733Xqj9dfTRR4fj0senj4Vjjz1WQ4cODceR78x3AsDHhqdpf1y0LQ/WdMy0fX9148avd/Reez6OXXvk4IMPDuXhJZdcEo7ls88+O9Qg8XE8derUVeWLx3dtj+OOOy58zng4//zztcUWW4SyJR7nmGOOWbU9Tj311JDEdSLWiSWvm8dbU5LDSRAnqpyk8fp5GZ6X53naaaeF9fP7Tpq4fNx7771DcuWdd94JiRwvw0kYr7/Lsx133HFVzRYAAIA1IakCAACAbs9JDd9t7YCam2Hr06dPCPANGzZM2223XWiyxgkAJ1QckPNd1ffdd1+4q9pBOd9V7cCe79q+8847df/994fgYPvaIE7KuAmge++9Vw899FBocsm1YHw3tpuniYOcns6v3X333WE8N7cTBy3XxAFIBw09lJeXh8/ipm4c0I0TN50JpsbvO7gYJ07818/jgOM3zcM8rtfFiRhvWweQHfx0gsZ37zuA7PXqzLyAjY3367hmh5sQdFNGLltcnjhhuc0224THrrHhssRli/+6bHn99ddDOeDpXUa4ZojLA5ctbt7Kx3R83Pivl+HaHy5bHn/88ZBI8OByxGVUPK7Hc/nl8R5++OFQY8y1SL6Jkw4+lt2klpv823777XX44YeHY9tJCZefXoYHH/cez4kMNw/mY9+D52HxOPH8XNa6nPXgz+V1bFtetefXvF1chrj22x577BGSv05+e15Opuy000467LDDwrhuXszzdXnu9XYCPa5lN3fu3FAObbXVVho+fDg1VQAAQKeQVAEAAEC352Cfg50ODLpZHjdZFQfz/NcBPic9HIDzOA76OSjnYKjvKnfCxYFM3xXtBIgTJ27iyndxu+kbc9MzblrsrrvuWtXXgAOkTsJ4OvdRYG66xq876OlgpQOlnpfvYl9T8NNByjgg6PV10NFNdjmR42CiA5gbitfNg/mudwc2vc3dDI/XM34P2JTEiQPX9HLti08++WRVgsPvxWWMj32XLS4jfPz7scd32eLnDzzwQEi2uGxy2XL77beHv3E55ePc47jMcNni9+65555Qtni6uFaGa8O4LHnwwQdD7TWXLTfffPOqxMuaxOsc82MnMVwbzevq9YwTIeYkrJ+3HdrzPOPB4ztB4zLMz7+Jt43LYE/n8iTuN8rr5cHlixNXHjyey29/F3vuuWcYz2Wry3GXw16ua6k4IdP2MwIAAKwOSRUAAAB0a3EAbuzYsRozZkzoh8Rt9LtWyrx580JSxIE+32XuO7MdRHQTYZdddllossY1QjyMGzdOP/nJT3TFFVfoZz/7Wagl4gCnA6aeh4N3DmSOHz9ef/d3f6d//Md/DI8djPRd1ObaKE6eODHjpoL+6Z/+ST//+c9Ds1teHychOgpOmhMuDpLeeOONYbjmmmtCcsZ3X++zzz7hjvANzdvaAU3f6e479B3odFIF2FS5bHEg37W0nHh1EsM1RZwIcWLAXFa4bHFtCTeb5bLFTYM50evhqKOO0l//9V/rl7/8ZSg7Bg4cGGqrOCngssXljGtbeB6/+MUvQvnjpq7ipK+TFC5j3G+IEyAut1z+/O3f/m1YL/eB4kTOtzkWPU8nKVwTzmWSk7dxMiTuu8TlkPuScT9K/uxx3yvmcT24tojLLje96PLN5YKbBnM5sSb+3J6fkymuBdTR+K4p423l9fHn97Ld+fluu+0Warh4HV1b0DXnnCDydwUAANAZJFUAAADQ7TnY77vJf/CDH4SEiQN2DkD6rm7f9e2AXJwQiP86AOdki5+7iZstt9wyJAucGPHrnp/vJPfgu8B9l7oDpE7euHkaN4fjO6wdUI1rmHg57q/FgUAnb7weDlz6sefjJM+aAp8OoHoaj+vHXk+vj5MXccfMG5oDqd5m8R3pcSAW2FQ58eCyxX0e+dh04tY11tzcV5xQjcuStmWMuRaFE7quReFj2+WOkw4+rp2M8PRuHmzw4MGhySsnJZzk3XnnncN0npc5AePEi8sp11xzeeBEq8sW12RxLRa/9m2Ox7br23Y6z8dlntfN8/ZfP48TKh7f28F9zbiW3pNPPhmaIvM6er0HDBiwar1Xx8vz/Lzd4vKzPc/D28vjxeWmn8d9p7z88sshIeMyuCsknQEAwMaDpAoAAAAQcWDOyQzXODnzzDPDXd8OwDkA6kRHR8mMOCngoKFrlzz22GOhaR43u+OaKQ4cOqDnYKgTG76r2sHRmAOmDpDGTXM58OjAovsKcP8JN910U7jb24FHv+7lxIHJ9ryuviP+jDPO0DnnnBMGB3IdfG3bvJi1D4K2FX+mdcXLjpM/cXM/wKbM+7iboXIfH6effroOPfTQcCy7bHGfJi5bOjrm4rLFNdycdHCS94477ghljY+fuGxxLREnUpwoiKdzotdlS3x8ObnhMuijjz4K5VNci8SJBTdf2Dbp0RlxGRKXcT6W40SIExX+rO7M/txzzw3DkUceGdbR43jw8lzbxrV2/PlcNrrMdRnmx/G8Vsefy+WmE0seOtp+Tu54/Tye1888Xyeg3H+LX99hhx1CuU85BAAAvg2SKgAAAEAkDsr5jmU3EePmc0444YQQbHNTMU5OdBS48+sOjjrY6eZ2HFB0k1u+O92Jjrbiu7pjftz2Nc/fg4OPDvx58Lr4Tmo3AdS2Vkt7nocDh57W6+CAqsd3Z9iu4eI70R389HgOQsbNAsX8OA6qxgHItc3zd6DT28mBYAczHdjsaLsCmwrv3z7unOhwc1tujs9JBidTnED1sdgRJ0LcD5M7rndSNC5b4mSJ59l2aMvP49ouFh9jriXnMiUe3OShkxmu1RInd7+J5+XBCZ/58+eHMtPrFq+Dl+vksWvmeXleX5dL8Tq7HPB7EyZM0E9/+lNdfvnlOuuss7T77ruH2n5t13t1vEzPO05Ee55tyxE/9nsu97ystgkdT+uyx9P7b/tyGgAA4JuQVAEAAEC35wCcA5wO+MfPHXxzENTt8rcN2MXjxgkI94niWinuD8G1Q1xTxE2IuY3+ODjoeTiw6D4A3L6/5+HBd5k7IBgnOByIdDLG03oep512WhjcB8KJJ54YlrGmwGecoPFgnq8Di+aApqd1gNGJIPeh4OXH6+LX4o7jHfj1PPy6xfPrSDxOPJ+OxO95mzkI+/rrr4fA5tZbb92pACqwsfI+7+PQf+PjyPu8yxYfA3HZ4vf8OH5uPlbc/KCTMBdccMGqGnROBMQ8HycMXAvFSRhPb054uAZKXKa5WTAf+27+65hjjtEpp5yyqnxx/01uBszJhdUd623LA/91eeEaJp999lmYZ9xkVzx9/Dh+3p7LI5d3TqJ4/f05VpcwtrbLNid+XR56nSdPnryqo3y/H6+fa/S4aTSXM+2TNatbLwAAgM7gCgYAAADdXhwgdIfNrpXi5II7MH7hhRdCjQo33ePESBz4893lDiYuWLAgJCEc2HPywkFQB/HcV4KbtnGNEPN0rjHioKeX4Wk9npMxXk58p7qDjO4XwfN58cUXV43ndXr//fdDUiYOKrbn1/2+p3XCxNN6WZ7Od6S7jxevp4On7lPBzf646R339eJx3cm9nzuh4iCpg45efyeBvH5e97ipH/PndiDT6+ft4cHbzcHdeB29Xb2NvD5u5sjJlHvvvTd0Su3Oop08WlPgFdiY+ThwcsPHuQP/cdniJrh8rPm48rHoZKfLCIuPeXco72PNyQMf1z6GPK07pfd8fPx5/p7Ox6vH9zJ8HLrvFI/necXHq49/N3XlRMOkSZPCce/luGlDr8/qyha/5nm4poxrvHkdXLa543k3K+jadO7o3WVXfBz7c7kjfo/rdfE6eVkuI+P1Mc+77TI7KgdchrhMi8sYz8/r4dddfri5MG8PN73oMtzv+/nzzz8f+sVy2bfLLruE7UQ5AwAA1pZu33DouHHjfGZVGp1gjY9O8MYOGDAgNWbMmMSa7tIBAABYWxx8cnDbgak1Ne2EdcvJAydCXnrppRAA9eBkhBMK7ljezdK4nX+fI/q1KVOmhPfdtIzb5ndgcNq0aaHj5Xg692/gwKendy0VN4/jmiGeNk66OGETBxUd+PN4bpLG0znQ6SCpg6MOhDog6YRI2+BlzAkP39EeB0g9jT+DA4wOpo4fP15bbLFF2L8cXPSd4Q5Mel0diPTgoKdryRx88MEhWGlOhLhpMwdHvfy4Jo0TJ/4MXp4/hx97mf5svvveiRkHNqdOnRrG8fseHOT1++6we4899gjrQU2VDc+1GZzcc80GB6EdpHcwn+uh78/HjY+NtmWLj2eX/U4sumN2ly0+Nn1c+XjyceljesSIESEJ4XLFg9/z6y5b/P34N8Plhaf36/Gx6LLICVAvwwkbL8fHmssXl01efrwuHtfL8DHfUV8mrknnefp49nR+7OU4ieMaIC5bXC55OS7LnET1OD7uffy3/cxx02Uex2XL6NGjw29fR2WAy0CXX/7cXrb/ej4uE10eeX1dtrk8Mo/r8sfj+K+TOk5YHXLIIaHsc9ndlhO7Xgc3f+Z5UA5teN5/vM/6d8K/rS6Lvk2zdACAtc9ls5vt9e9sdL20LDpPeDI6D5k5ceLElqqw3Vi3P0u+4oorfPbUN9opfhP9gF8YndhlJkyYkPDFHhcRAABgXXPA7corrwyBteOPP57gwQbioKIDmr4b3HdsO6Dn5IODOg76tT03dCLEFxYe34kSJ1U8vgN9rrnh79ABP9ds8UWIA3puescc6PR4Dkg6yOegnwOuDkC6TwGPa06+xDU8PG8HUR2Q9Pp0lHjzfuTgqNc95vV1kzeep9ez7XT+vB53zpw5q2qWOEDpGjkOrDrAGAdIfXe4A12en5Mlnp8/hwOSDtDGPL6X4fe9rl53D3HzQ37PzQ9523h7tA9yYsPw9+b97YEHHgj7oWsdOLEW7wf4fnysOTHhpKXLDj/38exjzcdc3H+Rvwcfky4f/NfNaTmp4uPHQWYfpx7Xx5ePHY/j8sCJTnNSxcezyyCXXU4UuLaGy6ALL7wwJDN8DLuGh49LB62dTPax6GPS73f0++PlOKnhdY95/T1/L79t2ejP5sSc19dlUlteZycwvByP43XwNnBSKJ6+LX9u11DxZ/J6evt4PP/18p2Qiftxcfnkz+1EsbeDl+X1c3nlcTvaj+Px/dlXtw5Yv7z/eL958sknQ2LRNyS4uTvvzwCADcNl89SpUwu+ySr6jZ0R/V5eHv2WP3vppZc2to7SbXX7MweSKgAAYEMiqdL1OGgXW9P5YBzkayuetqPpnBxx8M/nmXGQz8HFu+66KwQ63V+CA4Ftp13T/DrSdt2tM9N90zLazrP9OO2XZx2tv3X2M2D98ndEUmX9+KZjLebxOjrWVjedyxUnIZx0iROirqlx6623hqSJyxb/7ejY7MxxGY8b68z6d6Qzy2qvo3mtbj5tx/0uy8KGRVIFALoekiqrx1kyAAAAsB74jnHfOe6+FNw8jmuoPPHEE+HOdDdx4uZ5AODbcLDDNS7cB5P7UHLzV24KcOLEiaGmmftyclCaJAMAAMDaQ1IFAAAAaMPBx3hYk47eX9N0bv7KiZVHHnlE1113na6//vrQN4H7a9lrr71Cc2Htp13T/DoSj/9tpvumcdc0v7bvdTTO6l4HuqPOHgsdjbO66fy6a2i4mayHHnoolCuuoeImuNx3ke/276ipvc6ui8Xjdnaa9uPHw3fxbebTmXEAAADWBpIqAAAAwHrgpr1OPfVU/c3f/I1+/vOf6+/+7u90+eWX6wc/+MFqO2sGgDVxAsF9r5xxxhm67LLL9LOf/SwMLmfcpKT7MSLJAAAAsHZx5QYAAACsBw5sup8Kd+7sIKg7nHZn1HFH1QDwXTgh6w7r3TF7XLa4E/yOaqgAAADg+yOpAgAAAADAJoYaKgAAAOsGSRUAAAAAAAAAAIBOIKkCAAAAAAAAAADQCSRVAAAAAAAAAAAAOoGkCgAAAAAAAAAAQCeQVAEAAAAAAAAAAOgEkioAAAAAAAAAAACdQFIFAAAAAAAAAACgE0iqAAAAAAAAAAAAdAJJFQAAAAAAAAAAgE4gqQIAAAAAAAAAANAJJFUAAAAAAAAAAAA6gaQKAAAAAAAAAABAJ5BUAQAAAAAAAAAA6ASSKgAAAAAAAAAAAJ1AUgUAAAAAAAAAAKATSKoAAAAAAAAAAAB0AkkVAAAAAAAAAACATiCpAgAAAAAAAAAA0AkkVQAAAAAAAAAAADqBpAoAAAAAAAAAAEAnkFQBAAAAAAAAAADoBJIqAAAAAAAAAAAAnUBSBQAAAAAAAAAAoBNIqgAAAAAAAAAAAHQCSRUAAAAAAAAAAIBOIKkCAAAAAAAAAADQCSRVAAAAAAAAAAAAOoGkCgAAAAAAAAAAQCeQVAEAAAAAAAAAAOgEkioAAAAAAAAAAACdQFIFAAAAAAAAAACgE0iqAAAAAAAAAAAAdAJJFQAAAAAAAAAAgE4gqQIAAAAAAAAAANAJJFUAAAAAAAAAAAA6gaQKAAAAAAAAAABAJ5BUAQAAAAAAAAAA6ASSKgAAAAAAAAAAAJ1AUgUAAAAAAAAAAKATSKoAAAAAAAAAAAB0AkkVAAAAAAAAAACATiCpAgAAAAAAAAAA0AkkVQAAAAAAAAAAADqBpAoAAAAAAAAAAEAnkFQBAAAAAAAAAADoBJIqAAAAAAAAAAAAnUBSBQAAAAAAAAAAoBNIqgAAAAAbuUKh0PoIAAAAALAukVQBAAAANlJOpnhobm4OA/BtJRIJlZSU6IwzztCvfvUrHX/88erVq5eSSS4VAQAAgI5wpgwAAABspPL5vObNm6cnn3xSTz/9tBYtWhReo+YKAAAAAKwbJFUAAACAjYyTJjU1NXr55Zd13XXX6eabb9aNN94YHr/55pvhPRIrAAAAALD2kVQBAAAANiJu5mvu3Ll65JFHdPvtt2vKlClKpVLhvcmTJ+u2227T448/rgULFiiXy4XXAQAAAABrB0kVAAAAoIuLa53U1dVp6tSpuvvuu/Xoo4+G5r6GDRumY489VkcddZT69++vOXPm6IEHHgjjTJs2TQ0NDWFaaq4AAAAAwPdHUgUAAADowuJkSFVVlZ566indcsstevXVV0OCZdddd9U555wTOhefMGGCzj77bI0ZMyYkUl566aXQJNiLL76olStXhnkAAAAAAL4fkioAAABAF+WESn19faidcs0114TmvmbNmqWBAwfq1FNP1SWXXKI999xTvXr1CsOBBx6on/zkJyHBUlFRoU8++UQ33HCDrr32Ws2YMSMkW6ixAgAAAADfHUkVAAAAoAvK5/NavHixnn/+ed155516/fXXlU6nQ+2U0047Tcccc4wGDBigZDKpRCIRBj8ePny4TjzxxDDODjvsEJIor732WuhrZdKkSVq6dCl9rQAAAADAd0RSBQAAAOhCnATJZrOaOXOm7r///jBMnz5dPXv21CGHHBJqqOyzzz4qLy8PiZT2/JrHPeCAA3TGGWeEv67F8uGHH4Z5uYP7zz//PHR4DwAAAAD4dkiqAAAAAF2Akyke3FfKG2+8oeuvv17PPPNMqFkyYsQInXXWWTrllFO0zTbbqKSkpHWq1SstLdXo0aN15plnhuTKoEGDtHDhQk2cOFE333yz3nvvvbCseLkAAAAAgG9GUgUAAADYwOLaKXPmzAnNdF199dWhH5UePXro8MMP149//GONHz9+tbVTOuLxUqmU+vbtqyOOOCL0teI+V4qLizVlyhRdddVVuu+++zR79uywbBIrAAAAAPDNSKoAAAAAG5CTGbW1tXr77bd14403htopfr7VVlvp9NNPD32jjBw5MvSXYp1NqsTiZIlrrXhe7m9l1KhRqqysDLVW3Pm9l+1aKwAAAACANSOpAgAAAGwg7jB+/vz5euKJJ0Jn9O+++27ojH7vvfcOzXaNGzdO/fr1CzVOvm0yJRZP53kMHTo01HxxcmXs2LEh4eKEyl133RWSOQsWLKAT+7VoXdT+8TzXxXzXhdWtp1/P5/MbzecAAAAA2iKpAgAAAKxnDiY3NDSEZrhuvfXW0AzXrFmzNGzYMJ188sk699xzQ9KjrKzsOydTOuJ5udP63XffXeedd56OOeYYDRw4MDQBds899+iOO+7Q+++/H9YNa4e/67WRPIjn88UXX+izzz4Lya+1Md/21tb6rklzc7NmzJihZcuWfe/PsT7WF9+fv6J4AAAA2NilWv92W+PGjfNVaml0gTk+n8+PHTBgQGrMmDEJ3yG4Ni9gAQAAOuLg4ssvv6zBgwdr2223DbUJsOly8Nd36C9evFiTJk3S3XffrY8++ijUTtl5551Dh/L77ruvevfuvaq5r3XB8/Yy3MTYkCFDVFNTE4L1n3/+eQjYe338vvtfWZfrsSnwd9rY2BiaUnv44Yf14osv6pVXXgkJs/r6evXp0ydsx7VxbeEExNNPP63XXntNu+66a/ie1vY1i+f3fecZ7+cffvihHnvsMT311FN66aWXQiKlf//+ody7+eabVVJSouHDh3/vmlhrextg7VldEoWvDO253HDZ4N8g/0b6t8lNVWYymdYxAADrm8vmRYsWhWuEpqamZdE515NlZWUzo/Pebl+1nSskAAAAYD1xwMhJFDe35dopTmQ4cOQaI2effXZIrBQVFbWOve65JoxrrXjZbhbMAe+5c+eG9XPNlU8++SQkDLBm7ujf36sTUNttt5222WYblZaW6oEHHtAf//hHffDBB+G7j/kCte3QVvx8de87sdJR7Y6Oxm//PNbR637ufnUeffTR8Fn8mdqOE08TD6vj99xfzy233KI///nPvgAPgVFvF7/nRJMTLt4e8efoaJ5rei1+3fPxujqh5X6IVjd+W21fa/8e1hZv14Ky+Za/+UJec5Y06IM5zZq3tFnNuZbX/P2F7yOMDwAAsPEgqQIAAACsQ3Hg1kFf105xc1++a7+qqkrbb7996Dvl+OOP1xZbbLFB7rp3bYctt9xSJ510kk455ZRQY2rFihV6/vnnw7q6JhWd2K+ZvzMHiJ0UO/bYY3XiiSfqggsu0KWXXhqSZO6vxtvUSYR4fCcVnLDydDE/dhLC4/mx33dyo+04bZMCFj/2dPH84tc8rV9vO77Fy2jLz5csWRLW1cm+OPkRL8/vu1m4ODnUfp7m1zzds88+qzlz5uj888/XRRddFJq08za5+OKLtfXWW4d9Lp6vdbSeXo5ft3jceJvFCR9PM3XqVL3zzjuqrq5eNQ8P8bb00Hb7+XPE28nziz8P1p5o80fbt6C6hrwmz2jQP9+0TKf92xKd8bvFOuVfF+oXNy7RO5/Uq6YhR0IFAABslGj+i+a/AADABuSAHs1/bboc3HUA99NPPw01ADy4Y/q+ffuGTujdYbwTK67VsCGb2fJ5r9fBiR0HvR14dvMr8+bN07Rp00JCqLy8XD179gzryXnyV/k4fuONN0KtoxEjRqw6jr3N3HTNu+++q5EjRyq61gj7w+TJk0PtCk+zfPly9evXLzSFtXDhwtC8lxMBbkLMiS3XxPB343HMz52g2WuvvcK83XSbk3RuYsvz877mfnMqKio0ffr0kCTZbLPNQhNk5sSIayE52eP9MN7v3KyDmy9zTSV/9zNnztSgQYPUo0eP0ByP18tJQTdr5iSbp/U84n3B+7p5n/Ey99tvv9AvUNtxYp7e6+pttfnmm+vNN98M83Vyz9vOCY8nn3wyHCvuZ8icOPFr3i5eH6+b1+f1118PfbO4TyLvp0OHDg3fh9fXyZ233347fGaXsZ6392e/7iSMt5m3n783rv++v5Z9IKH6poKmzWnUzc+s1M3PNui9mVkVom1blE4qm0/qsy9yenVag5ZVNak4k1DvHimlUy37IV9B9+X9x8cuzX8BQNfhspnmvzpGTRUAAABgHfBFyMqVK0MQ2E0hOYDrYPIOO+yg008/XaeeemoIdneVYK7XwQFwB//dHJjXz32uuObB448/Hj6D+/JwQL/tnf/omLenExZOCjiY7yaxHNx3nyveF/zdO6HmoP9zzz0X9g0nBZxcuPfee8M89thjj5CEcf8jrj3ifaolcN0yf0/jJsacVPH35vGdYHANI4/vYOT7778fLoSdKPO0TrR8/PHHoem3tvudEz7up8UJnDFjxoS+fdwfjJuA8/y8bp6/A51PPPFEWKY/T7w+5scLFiwI8/02+7YTMV4vr6N5//JynSjxa06E+HO6eTonk5ys8jjefk7MOOG0//77h/X2604a+XOPHj06JG0eeeSRsJ1dw2Xp0qVhP3ZSxwFbDyRUvp9CvmW/9Nf30exGXfN4lf7l9io9+EaTFq/MRfu/R0ooH42TSBSi7S0tr0no3lea9NtovKseq9K0uQ3Ktc6n7T4FAADQFZFUAQAAANYiBwR9t62bP3LNlDvvvDMEsR2sPvDAA0Nn9A4AuybBhqydsjoOLruT+vHjx+uss84KNQ6cbHEzS+5YP65t48+Ib+bEhpMqDui7eS0H911Lae+99w5JCu8L7tDdNSfMtVT23HNPHXfccWHbn3feeaG2iKdru829n7nWipMRToIdeeSRYV4//vGPw3uu/eFaG06MuZZH3AyWkwlOPsQ1N2JOVLiWkmvMOFHh5J9fc+0Q1yCJ9wWvl/vfee+998Ld5HEiJOZm7by/tE/afJP247Z97mPJiQ/3/+OkipsSc7LK6+Ukj4+lHXfcMTz3sebhnHPOCeMfdNBB4e9bb70VEoTxfP0dePBn5U7476YlASI5xbp4RZOueqxSf3/Dct32Qq1mLckr4X/R5vY4bbmrlfA1JJKaX1nQnZPq9HfXV+r6pyo1f1mzctEM3XxY++kAAAC6CpIqAAAAwFoQ313twLdrG9x2222hiScHnocPHx4Cwe5bws28OXD9bQLO65vXzUFxB6qdBHI/Ia7J4BoFjz32WEgUufN111Sw+LPj6+L+O5xUc2LDNVZce+mOO+4ItX9effXVkIhwTRAnKOKkhgP9ns5NeTlx4BoWfu7vxtvb4zpJM3DgwJAEawlwF0IzX27Gzc2KOWm32267hSa9XIPFyTAnKJxk8Pzbf2+ep1/zcuJluGaSkxVOavh1J2Lc9Jbf92drz8v3MeDPura4RooTS3fddVeo5ePP4SSV1yce4vX25/ay77vvvrB9XcvGyScnreJpPC9vN2+f9tsAa+at5cHbsam5oM8XNermZ6v1F/+9Qtc9Wa8vKj2Wy7Zof2zXX0pc5MX7sBMn8fMvluX1Pw/X65L/WqobnlmhmYua1Njc0rcQ3xEAAOhqSKoAAAAA31Mc0HXg+vbbb9fVV18dmhhyEPfggw/Wj370Ix1zzDEhON62dkBX53V1jQYng/wZ3CSUuemna665JjTJ5OaeCHy28DaIh3ibOBFl7oPEwWMnHbbbbruQ2HCNlCOOOELnnntuSFQ4yO/B41nbBEpHtZq8jHjctvxa/LqTeE6IuAkwN6PlBEy8H3Y0rbWdvqNlxO939Lqb6HKNEB8LbbeHh9Xxe552deO5KTHXlPF2c60bH2NOVnY0rtfXiahddtklbF/XBjr++OPDPuw+geL1jrezB3RO2N7Rf65JMndJVne9uFK/vLFSf3q0OnqeV1Em2qbRCM6VtHw3X25bP29u9jHx5fcdb3s3H5ZIRsdGUVLzlxd09SN1+uUtlbp7UrXmLG5WNuf9Ip4nAADAhkdSBQAAAPgeHOhzENnNY91000166KGHQg0CB4JPOumk0AyRg8FuEsk2piCu19Wfz+u+8847h8/i5p+caHGfHQ8++GCokeNaK+7fo7sHPeOaDx6cUHOfIC+88ELo28PbzAkVb0vXknD/JQ76O/jvJrri5rK8Lzlh4Noeno+TVp6Pa584EeLXPJ4fu/aQ9zXXfomX69pDro0SJ2lcK8M1PfwduVksN+sVd1rfnmvJtE36+bH7VfHy45on/lzuUN+fw7VvYvG+4lpZ/qzuO8Ydm8a1Q5wY8mfz4PFins7JDq+3x/Vzdx7vGid+HHMiyAmo0047LdTs8Tp5vk4YxQknj++kkefl2jVx4sr7rvtW8bj49vx1FQr5UO9keXWTHnx5pX57+wr978Q6TZufV76QUDLhZEq0D7ZMsmp/sFz0t6JHQruOLKhvLyfpwstfah03Hy0jlYzejIaP5uSi+dfrX+5YofteqdKKWh8PLUmztvsPAADAhrDx3Ca3jowbN86ndKXRSd/46ARtbHRhkhozZkzCJ9xtT+IBAADWBQdOX3755RCE9B3lbQOa6Poc3HMA3N/hww8/HBIrDlg7YO7kg/u4cJA3vit+YxSvtz+Dg98OVjvQ7sC1ayM4gO/Av7eF++D4tn1pbAqccHANCm8PN5flTtYnT54cOvh3B/JHHXVU2A+8b6xcuTI0/+XkghMHTj64OSsH/Z1MePfdd0PCwAkG71vu08Tb0/uTt637X3ESZZ999gm1X7zt3U+Km+Ly+G5yzlwzKq6Z4emc3PF3dthhh4Xp4kREW06qeB92U2N+7BofHtc1k7wcT+/33V+L+zZxstDNiMXft/96Oid7PJ7Xy/PyPuKO45955pkwPydj/J6bOfP+5H3Hz71tvA08f/cV48TQTjvtFJrvclLIyZRPP/00fE7XQHGtGG9vbzPP0+Wnky9enufhbej1dpN1vr5zOev3ZsyYsarD++62r35b+XxLOVfTmNcLU+v0H/dW6+E33cxXTrl8tO3WsP28bf12tlk6eb9S/eT4vtGxIk2fnw21WWKev8eN/t/6Sot8NP+FK/J6fVqTps5sUnFa6leeUlFRtO8WWuaNTYf3A58TffbZZ+EY97E8atQo+jwCgA3IZbNvknGN5+h8d1n0e/1kdF45Mzrf/Gqnet0QSRWSKgAAYAMiqbLx8nfn4Pf9998fgsW+4HAQ+uijjw6DaydsagkGfxYnBtwBumvieH91TQnXWpk5c2YIejt54GB1d9qXffe8P7uTHU6s+K9rchxwwAGhM3QnoZzE8DWGt53f877j7eZ9xomDOEHgJrqcMPBjJwD8ujuhd4DR29/LcQLB5YX3LyclvC96+zuB4FowHt9lStsaHJ6vX3MfK/4O2ydVPI4Hf3dO8jjh43V1DRknSbx/xzVWnNAZO3ZsWI+O5uPP607v/di1WryPOMHhGjM+LhwkdQLF6+719fj9+vXT7Nmzw3KcYHJCxZ/Z43hcr78v6D0fJyvjhI63n2vB+D1vX4/vZbuPGs/PwVl/btcIcq0d16jy9+XO+r3+Xkd8XUF5FfKumZLTKx/V60+PrNStz9VrYWXLd9zaDf1X0iBxciTm58lEUs3R93PQjsUaO6pE0+c36v2ZOeU6qGzyle8iPI7mF42XiPaxeUvzevH9Bk2b06SidF59e6VVkmnZZ7FpIKkCAF0PSZXV6/ZnIFdccYWvAvpGO8Vvoh/wC6OT/MyECRMSvtDgBA0AAKxrDvBdeeWVoXkat/tP8KBr84WFBwecfWf9888/H+6cd5DcAeNDDjkkBMR9LtkduFbB22+/HWpTuHaGA2JuysrNNDl4X1FR0S2SK94nXIvDnz/mYzm+pmh7XeFxnRiIO7D3ON5/zNvQHaufeOKJYTt6XL/nIU5eeDonEeKEQDw/L9+PXVPEy47f8+BEz5///GftvffeYfA4q+N1crlkHs+JCi/PyRQPnrdfb59Mac/L9XReL8/T8/F08Xq5po7n5c8Wr2fchJw/m7elx/X28fSejz9nvF3b7ldeL78fbytP5+njjvTjzxG/7vE7SgihRfQVRPKas6hJVz26Uq/PaNaK2oTSKdcmifk7a0mE+DuLxc/jv8lkQg2NeV1yTLnOPLiHbn2uRnc8X6emNlmV9tN/ld9rec3j5fIFlZdKB+9crLPH9dSooW6yjuv2TUFc9vj3xDXbnLg9/PDDw7EKANgwXDZPnTq18PTTT/u8f0b0O315v379nr300ktbTrK6Mc4iAQAAgE4IAb1cLtxFe8899+juu+8OfVS4OSMHfs4+++wQsO4uCRVz81L77bdf6ET8wAMPDEkUN9t05513hho8rj3hQHjboOmmyIFgB+69PeLB+4GD9u2DxH7uAL9rmXi8OAESvxc/jucXzyfmpEGcnLB4fq6F0X5+3l8dpHz11VdDEsKJGr+/Jl6W182D52ue1uvhWiFtl70mHsfTxZ/T08Xbw4MDpfG6xK95XH+OeHke/Lqn8/hevv+2TaiY17P9Nve8PS8PcUIlHpeEyjeINlVdU0HXPVWjZ9/PqboxGW3ztgkV+3Jfjf/G/Lx9oqSqPq/mrFTf/PV9p/30nvbL6b98z+OlU8lo3ZKa+FaT7pxUrWXV7rNn0y5fAABA18OZJAAAANAJDk67nwbXJHBzX26Gyc0MnXnmmTr55JND/xBxELo7cYDbTTG5A3FvB/ch4poRvtv4lltuCX2LuFaCbcrJFQd8HahvO6xO+3FjfuzEgLdp/F77gHM8bVtt5xeP723t5sNuvvlmvffeezr00ENDk1rtExIdiefVVvxa22V8k7br5SEWv952Pm3Hbf9++/fa6+i91U0Tv441iA7TT+Y36r2Z2bC9OjpsOzqWW8aNXo8GP0640/noqbd+Ou3Xosdh08fb/8vvxeLvKUzb+rjtcuLHfi9XSGjKLGnuknyHTYkBAACsS5xNAgAAAGvgu/3dl8QDDzwQAtRulsR31LuvjAsvvDD0m+F+RDoTrN4UOcDpz+5+Nxy49zZxjR2/NmXKFN14442hE/+5c+eGWivomLejkx5u+st9inzfwL/n5/3SzdGde+65od+Wb6qlAphzFx/NbtQK1wJpTZI4oRFyGtGQj/54/4peCa/5PT+3pPx6VCYkChraO6Xdt8rohL0SOnKXYvXuIR08OqHDds5p962L1L9nQalkPsyjZW/3AtpKRP+S0Tr4rzMyXyZa3NfK/GWNmr/UzeiFlwEAANab7nnl1wYd1QMAgA3J7fvTUX3X5DaE3dn1O++8E5r6chNK1dXVoePcE044IXQG7k68CVS38Lmzt4UTA25mygF9dzDuztPdJJg7ZXctDDeX5vE41/46bxd32N7ZJra+iefjzp7jjvKBb+IERzZX0OszcnrvM3co70RHS80R70LuvqSiNBon60xG9HuVdAql5f1CSH4UtPWQpE7cr0Rnjuupkw7oqUPG9tDQfkVKR9MP7pvRvmN66ICdSrXDiLSG9U2pui6npdUtNVlatDzwokvSUr+eSdU3ez1a1iWI/hQKSe0wskSjN8soE60YRcrGzckynxPRUT0AdB0um+movmOcWQMAAADtuHaKkwHRBYPuuOOOUDvFgZ199tknNPd10EEHqX///gSqO+DgqpOE7qze28od1puTU96W7uhy4cKF1FrpQEvguuMmrr6LtT0/bPoKhbyWVTXr41l1yuVzLXmMSCJRUDZ6utfoEv3bBX11weFloZaJa6Yko/echC5K5XXqgUX69dl9df6hFdplVHFIiJQW+YbFaEbRbphKplRaklbfHgntuW2Jzj20l35zXm/9YN/iaD7R4vKJUAvFe2xJOqdzDinWHy6u0NhoXip4X25dn2hozub13rQaVdXkQgf2AAAA6wtXgQAAAEAbDvZPnTo1dLYeN1s1fPhwHXfccTr99NO14447hhoAWD0H8d0Z+K677ho68D/qqKNC82Dz5s3Tgw8+GGr+fPjhh2poaAjj+y44AF1BQrVN0vI6N+7leictx2eog5IvqKI0r62GpnXxUb118ZHlKspIuXxCQ/qk9euze+v/nNBHWw3LhNfro/l8/kWT3p1Rr9pofm6mq7Iup7c+rdXcpc1qjN4vSic1anCxfnZSn2joqWH9k6HflZJo+kuO7a2zx1dE72fUq9Qr0jqYsyqFpJY3ZNSUc1ijNdsCAACwHtD8F81/AQCADYjmv7oO32nt5qqef/75kFBx0N/BxF122SV0wr7vvvuGppn8HXGe+M28jVxLoqKiInTo76ZcampqNH/+/NBHzcyZM0ONIDcXVlRURK0foAtwfvOjOU16+r1GVde3ZDB8LPuRO55fvCKnfHTcDuuX1u5bF6sok1CPEumio8q1//alyqQToamuD2c36ZZna3TtEzV68aNG7bVdicpLU/pkQbP+9fZKTXyrUV8sa1ZxUUJ9eqVUnJG2HlasgRVJNTXldPw+ZdHQUytqc7p7UrWeeLspKi8KKrQpev2wOSvtu21KQ/qmozKEcnljRvNfAND10PzX6nHlAgAAgG7NFwuNjY36+OOPddNNN+mWW24J/X840XX88ceHjtedWHHn9CRTvj1vsx49eoTO63/4wx+GZsHc34oTK24OzAks97lSX18fvgsAG4YPP/eUsmhFNjSptapWSMTHZiIaVtZJt73YoN/fXanPvmjUmeN66J/PrNDe2xSrKC2tjKa74/kq/fq2lXrotQbNWeaZuJGwhAqJglJOtibSmrs0r3teadBvb1+pO56rVl2Da60kdNCOxfqns3rr5P16atrsBv0hWs5tz9ervqklodK2jEikElq6okGLKptDh/qhU30AAID1gKQKAAAAui0H6Fx7wrVTbrjhBr3wwgvhTtmxY8fqjDPOCE1+DR06lH4pvidvO29DN6M2YcIEnXrqqRo9enTY1s8995xuu+22UGNr+fLlJFaADcRHXnRIatHKpLK5lvJu1fHo8i8afCy7dsir07L6fw9XqaYur/LSdOgovrYhrz8/tVI3PtOg+cty0fhJJT1Xt/sV/Q2zaJmbUsmoTIj+LaiUrplYqxufrVJDU07FmZT69sxoZX1Wf36iSq9Nz6op23HZ675X5ARNZYI+VQAAwHpFUgUAAADdkvtOmT17tu677z7dddddmjFjhnr27Knx48eHDtZds8I1KmiWau1wMNZD3759deCBB4ak1bhx40LTLh999JHuvffe0N/KnDlzwndDcgVYv3zMrazN6u1p1WrKuh+VluPWr8dpDXdk70PTKZHqhnxIsIT3ov85sTJm8yKNGOKmuPxSPiRSlIimCdP6sZMr4Vn0bvQ3mt+oYRmNGZ4OiZaQeIn+NmcTqqqLpi+46TGP37J+Xp9YeD16OundFavWFwAAYH3gChEAAHSKg5xNTW7TPBceu/+JtkFPP/Jd534/fq/t+0BX4f3Sfae8+OKLuvbaa/Xoo4+G2ipjxozRueeeq7POOiu0415cXNw6BdYmB0XdlNoOO+wQOrF3fzUjR44MtVQmTpwYagy98sor4TtyeQJg/UhGx2ZTdMjV51KtaYyvJzKC6Gm+kNWxe/VQv/JU9Jvv3/u8ijJJHbFbL/39hF7ae+ukkqloxGhGRalCNO+W6VrOFloSM5mUdMCYlP7h1F46aKceYXrXOMnl8mG+h+7WQyVFqyZctR5tzy083/pcSegUf9VKAwAArGMkVQAAQKc4iOFkyvnnna+KXr00cuhm2mbESI0YNlhbbjZEW20+UsMHDQmdrU96cZLyOd+h2hIAAboK78Nz584NtVNuv/12ffDBB6GT9IMPPljnn3++DjroIGqnrCfexn369NHhhx+uc845R/vtt59KSkr03nvvhe/moYce0rx580KSFsC6FVrPin6yP5tXp4VLs9HD1s7pVyUyWs4D/Dz6edfgPkntuW2J0imFDufve2mFqutzIcmx/RZF+ttT+urkfUtCJ/a9Wzuid88qPaPn5WVScTqvsw7pqcsm9NH2I0qUiorcRZVZPTG5OvxNReXD2JElGtTbfbC0ZEu8/Hgd4sRKOu3O85s1fW6DstF6tb4MAACwTnG1CAAAOuSAhYOZDQ0NWrZsmQZV9NYOI0bq1eefUe/Scv3wxxdp+sypmjl3qj6b9Zo+mfmaLv/Jxfr8s8914XnnqKysRLOix825LDePokuoq6vTO++8Ezqif+yxx7R06VJtvvnmoX8P15bYZpttQoIF61dpaWmoteLv4MQTT9TAgQO1YMGCUIPo1ltv1ZQpU0In9hYHUgGsG0trkqppzMvNdH31aGtJZjjH4pop++xQqoG90+H525/V60+P1+lPj63QirqWpr6G9cvoh0f30q/PLddfHF2hwX0yyqQTGt4/owsP76nfnNtb5x3SIzx3vytVdQVd/XiV/vOhWr0/uzk61t0sWFrbjyhSOiS54+W3JHniv65d407uF6+UchQPAABgPSGpAgAAVsvNfblZnhGbb6H7H39McyuX6biTT9DHHzynv//Rccot+FhaMjv6u1BNcz/XT39ygqpnvqTPPp+snXYarcPGjddvfvVrx0KADSIOwjuB4qalHKSfPHlyqCWxzz776Lzzzgs1JdzPRxykw/qXTqc1ZMgQHX300aEJtl133TUkdd966y3deOONevrpp8N3SFJl7fM2dfL8jjvu0K9+9Ss9/PDDqq6upoZQtxMdW4Wc3p+dUyGRbElgtL5jcflYKCRUUlTQlgOSKkpLK2pyeufTnJqyKd31YoP+++EVWrjcHa0kVF6a0KG79NSeW5eo2M14Rf+lUyntt31PHbxzT/Uqcd0VaVl1Xv9xf5Ueeb1RS6sKevPjWjU059WzOKER0XJcG6XturSVj/Zf98Hy6YImNUXTrHZEAACAtYikCgAA+AoH0tyPwQ+OP0FlpaX64osvNPGJJ3TwwePV2FCtK392iXqlG5SvqVXTyqXKVq6QaqqUbqySqlaqpKFK+RlT9PKt/643p7yk62++VhdfeGEIfADrk4PFtbW1oXbK1VdfHTqjd3NSm222WeiI/qKLLgrBe9eUIKHSNfi7cLLr4osv1imnnKLBgwdr9uzZoTkwf4euteIaRyRXgLXLRWC+kNDHs6Pjy/m06HGHomOvb3lGo4aVho7ll1fn9fnC5tBRvPtQmTi5UX9+ulYLlje7bklIwhSimfuQDQ2KuQaMX2s9hBdU5nT1Y9V6+p36aPqWpM17n2XV0BiNGs1/2xGlKituqZFi4dhvc/z7uSuyfDqvQXUN+ZZ1BwAAWMdIqgAAgFWcUPFQUV6uTFFGc+fN00UX/1CHH3KwqhZ+qOziacrXLFXT8sXKNzWqKJX1VGGIg5wOouQSPslIqOey6frs4/f14pNP6+YbbwrvA+ua90XvxwsXLgw1HG677Ta9/fbbymQy2n333XXGGWeE2ikDBgwINVZIqHQtqVRKw4YN07HHHhu+q5122il8n65h5OTKs88+q0WLFoX+cQB8f+Hnu5DQopqCqpvS0UM3/fVl4qItl69FibxK0m6OS2poTkRDVI5Go7skdX8rD71ap6febVBTdIi6GS+//vqMJv35qXq9/WmTstHxbA3N0iOTG/TkO43hxouW1SiopjGl+ug9z7M07X5acqvK6fD3K2W2HxdUFa13ZW1U9reeiwAAAKxLJFUAAMAqrqGy9dZb68gjjtStt96mP/7xj3py4mOaNf099cjWKV21XGlFf5VRUSrTcudowWmUlrCGOZzhTmUTyiuRzatuxhv62T/+WD+7/G/Cu9l8LowHrAsO+Hk//uSTT3TnnXfqgQce0GeffRaa9zriiCNCkN6JlbKystYp0BU5cNqjRw/tvffeOvvss3XIIYeETu39vd5///1hmD59OokVYC3xb/e7H1VpWWVTuCmirfimCXM6xEmOZCIfDdKyFU2qrXeTYS0JFadG+vZIqG+pQw1+lte7n9Tq3+9aoqseWaE/3F2pqZ81qjkaORGdKwysSKh/hc8LorOG6E8qlQgd3n+xtClMrXxWhZyP8y/XwesTr5P/+lRk0bJGfdLaWT0AAMC6RlIFAAAEDkykkslwB/hxJxyvLUeM0P1336nPP/9QfUublK1fqVw+q0yuWIXijHLDRihb0l+FVF75gsMdLUGYOBSTih4UonHzw7bX00+8oHyz21KPTj0ceQHWsjjIVlNTo0mTJum6667Tiy++GPqGcKLQ/XS4E/QtttgidEZP7ZSuz9+RaxdttdVWoRN7f4f+/iorK/Xcc8+FvlZef/318B3HAVYA30VL+VlZn1bWIYI1lI9OpKQ9SvTYh119U3RekChoy4FJHbtHka44q1x/vry/jtmnh4ozyWj8ZOiEvqYhqURKWlGfU3WDj9eEiqMZ/WDvHvrTXw7Qv15QruP3LtJ2w1IqK8oruyo70rou0Z+Wct6r1/Kan7c8Tqoxm1JlXVJ5eqsHAADrAUkVAAAQ+ihobm5Wec9eGjJosH7/+99r/vz5+t0f/1NL5s5VsrFa2WyzErmEmnv306V/uEnb7HSEBm51mNR3qDKZtEJb6W1kC0nVl/fQLtvuqmXL5qqkZ5FGDdmiJbECrEUOrLnGgmsuONB+/fXXa8aMGerfv7+OP/54/fjHP9b++++vXr16hea+sPFwwNTfWe/evXXwwQfrL//yL3XYYYeFWiz+jq+99trQwbprsLizdZIrwHeRUF1jTh/NalA66f5OvlrdIxm99mUiQ2rOKtxM4UTHjiN76Gen9dFvzu2jfzqjn47ZvZeG9c+E/lZaupdParvNi7XzlilVlEi7jkxriyHpMM8WCQ3qndGhO/XQP5zWV789r4/++ey+Gjk0E3I7LWNF/y94Hbwu0TO/Hv2vbXIlmyvo8wX1qqnLKUdiBQAArGNcVQIA0M05GJFOp1VSVhqC0O4I+rxzztePL/mR3nztDT337FNqrKpUutCo5kxeF13+Wz3+6BOa9vZDWj7vReWXLlJzU0uHtG25+ZCi+mX65PW79dif/69mvfWg5i1bpDtuvSMsk+An1gbvR66p8Nprr+mGG27Q888/H5KEo0eP1umnnx6SKq7dQDJl4+bv2QFU11o5+eSTNWHCBG277baqqqoKfay435xXX32VWivAd9TQJM1f3tqc3qoapT6WnLQuqKk5GxIpqURO226WVr/yVEiMDOuX0r5jirXVUDcL2tIUl5sGddNefuwbLgZUpHXZSRX6ww/76dLj+2pY35TSydb3o/Faxpcy6YSG90/rwO1LNLRfUTiPGNK/WDtvVRytR3SeEa1XU7ObeGxJ14T1jNbJx7y7aflieV61TXk3Pup3AQAA1hmuLgEA6OYcqHRzSFsN30LvvT9V559/Qejgu6i0hxobGjR2tx1C0qWQS6mo3+a69e6H9Ppj/6vU4rnKL1+slArhzlElvnpnqzubTRekTE4qVkaJmpWqra3U735/ZVhmfIcp8G3FQXP3nTJ37lw99NBDuvXWWzVt2jSVlpZqv/3201lnnaUDDjhA/fr1Cx2fs79t3OLvz8mxgQMH6tBDD9WZZ56pPfbYI7znZPA999yjJ554ItSy874BoPPmLcurujYVPYp+y1uLS6cunPDYcQvpb37QS//zl311298P0i/O7K/h/YtDrRYnTbLNeVXV5bWwMqfXPqjVQ69X6b8fXqGXp9WrOToUE9F4Q/oWa+yo4uhvJpouGWqWPPVOnf77oZW6Z1KVJk2t1fxlzVpZm1NjU8uy3dbYwD4Z/fLMfrrl7wbpmr/ur38+vZd23rJ17XzesapoT2hpdSJ0Vp8gsQoAANYxkioAAHRjed/aGXFH3vMWLtCzTz+jIUOGhtcTBWnuF3O1/Q6jlUwllElnVFczXws/fkl9S0vDHaPhVMLBzkL0N9wtGr0UPU4kiqIHvqs1HwLgiXRBhaIS1UyfpI8+/CjMP1428F24qac333wzNPX18MMPa8mSJdpyyy1D3xvnnHOOxowZE5KFXY3Xe9myZeEvvhsnUcrKyrTjjjuG7/oHP/iBhg8frsWLF+vBBx8MCba33nor9K9DrRWgcz6dW69l1U3R73ZrliI6dPzz3qM4rQuP7KdzDqnQriMzob+0j2Y36IvKZuXyBbmlLSdEfn7tIv3kT5W6/LpKXXFTlf7roXo9OblO9Y0+OXDKo00N1eiPmxCb+E69rn2iTv9y20r97LqV+qv/WaHL/rRYkz6oU1PWtU8KmrekWW9/Uh+SO6OHJ3XyAb30l8f3VlE6zGYVv79wWaMWLG8OnekDAACsSyRVAADo5tyXyry589WcbdK99z8Q7gQPiZCCNPX9KWpaMFP5fFI55VVSn1WffLWUyysTjZNUWrny4frdHc8pVUhH07kZsCZV56WafJOSqZQKqYIaE80ausOxao6m8x2kXgbNMeG78P7qmggOnrsz+nfffTfUpNp33331F3/xFzriiCNCTYauWjvF/b64Zs3nn39ObYrvyd+xkylu4u2CCy7Q3nvvHZK1b7zxhm666SY9+uijWrBgQdhnAKyeS8ps9HueT/h3ubXcjP64ua/GXFYvf1Cth15drv99bIWuuKVSv7ipSv/vkZVaXp2NfvOd5Mzoi8qkZi/JqlkpFZUkQ2fzWw+JHmc8v4IamrKaOrNB1fU55aLzgOjw1fZDk+pVWlBpWUq5qLyetbhZC6sSKi2KzkOif4tWZHXtxCr96rYq/fLmSv0pWuZ9L63QxMm1oaZLLJT10UlLLvoMtU3R54jOQeL8DQAAwLpANAMAgG4ovls0r4LeevdtXXj62eF5nz691dTcqFQqoeZck5YsWqREU/2Xzasn4ma7CmpINClZXq5kvkaPPPio6tMZFZIF5VIZlY/YUjVlI0JQI1nIKVMyTA8+fod6b7eTepYXhcBnc1NTmCV3kuObeB/x4Nod7733Xug/w4kJ10xwUN01Fc4444zQj0pxsdve77pKSkqi46xPaKYsTvrEx0D8Ods+j/+2fb29tu93NF78vP17qxu3/dCVxbVWdt5559CHztFHH60BAwZo3rx5oQbTnXfeqQ8//FD19VE51sFnY/hyiHX0HsNXh02NP5FrlrpmiNp0Uu/P6p/qR95o1P+9v063vdCkafNzqqzL65UPGzVnSTYaPaGdRmS0x1ZpZRLuJ8WdxidUUZbQATuWqSjdUs49+06dfnlTtZ59t0656BzANV7cHFifHu4jxTmcgtIpad/tMtp2WEt/Kp/Pb9a7nzarqk76eG5W97zUpD/eX6tHXmsMiRnf2hF/Hf6bz7U2/RXNu2WpAAAA6wZJFQBf0xQurVousNa9XPTPqKgPrE8OlDRns6FD71NOnqAfjxylonxC1VVVem3SS6HWSr45q0I2Ojaj/xzc+GqAoqBMPq2GmiXKNTfo1Un3q9/2B0fjlCjpw3n5Im2+5a6qaWiUinpohVZq5Yq56lm2mdKZEg3rP0Cp6B+wJnHw0oFzd0D+1FNPhRoI7pDcQfLddttNZ599to455hgNGzZso6j95E7zDz744FXr69oqrknhRKMfO3HkwY/9uVuCmk3h8/pvR+LpPI7n1T7o6/l4/vG8s9GxH8qAaFxP23Z8j9fY2LhqvDjx09XFtVZOOOGEkGBz02DeHi+99FJoDuy5554LzYGZPxPDV4e4ZpcH75dt32P4+rApGtZXqiiNvvvo+29b9vrHPx/9XjdGv/lOY7gbk1Q0zsravO6bVKPaxrx6lmZ00dEVGj4gqWQ0aSFX0EG79FL/CtdgdRNeTbrnpXotXJHVo2/Wa86iqLyLzjlGDCvWHtuVqTgTlqathiR14v491btXUvVNeT01pV6LXfU1WodozsononKr4L9OwfhlJ3GiB63rO7Ai+hx9CiFh42kAAADWlW5/qnHFFVf46rtvdML4m+jC8sLRo0dnJkyYkPBdjpvqCTPwTXK+WFr2qdR/RFRKpFtfXUe8sOZaFYp7cswB61Eu52Yyctp+sy10UUUf7Tmkr076eJqaV9TprAkn6I4HHlWP8lINHjpcr932byrORdNEv5gtYYyWE4imREp7HXeB5syrVGlZiWoac1r0zl0hOZPMN+gn/3WP+vbqocvOP047jztL5WXl+njGcxq++T7qUV2rZfmcltTWh/l156bAnNi68sorw532bsYokwnRpW7PgTgH9R0Id1NZkyZNCn2oOFDev39/7bPPPqFWgpv6ioPAG4MPPvhA77//vnbffXeNGjVKs2fPDv1/OMmyaNEizZo1K4w3cuRI7bLLLqGps48++khVVVWhRoY7ZneNHNd0cQLE07v2jsdz0qW8vDzsSzvssEMYx5YvX6533nkndOTvbTp48ODQ/4ynGTFiREhAeL9zvzSel/tYclLFNT68DltttdWqeXV18X7jz/bMM8+EpMrKlSvVo0eP0DyYt1+vXr26dZnTnreZE2yvv/56aC7N+6X3H66Hvs7bw7XNXAZ5n9pUto9zErVNef3vo5W6+6VGZV1jZTWhgpazADf6lVSPorx+c25v7TO6VJmUNPGtav3XQ9VaWSf946nlOnz3HmHse1+s1TVP1kbLkIrSef3k2F46ce9eKop+7h57s1r/+XCtGxPVZSf20sE791BxUVIvf1iv39xRpcrqaInRqng/jbf31x4nCypKJnTK/qU679By9e6VUip6jo2Lf9N8TvTkk0+G38mxY8fq8MMP32h+fwBgU+SyeerUqYWnn37a12Uzot/fy/v16/fspZde2tg6SrfV7c80SKoAHcg2ad5he2r4w0+qsdcgrauGVHwRNPsHuykdXWENe+YDCiRgPVrRUKNthw/TNtmcXhy5tYZMm6ZEr56aNes9fTp9hgb076uxex6uH118afRbeY5yn0wPd4jGSRUfv/VNOWUG99aCZXVqqslr1JCBStTOj84uipTKpFRVm9XwPSdo0ZIpys/+QKnmvDLFPbXZAadrwQ67KTNnqs7a+2Bdf9sdoYPZ7oqkylc5IO5tsmLFCs2ZM0effPJJCPTPnTs3BH6dBDjuuOO05557qqKiIkyzMZ2zub+P1157TYccckjoTP/jjz8O/cM4UOvP5qbBnNzw53YSxc+HDBkSahL4NW8bJ5O22WabML/oIickYpxMcaLACShvO9fe8Ti1tbV6/vnnQ0Jl6623DvNzrR9v26VLl+qggw4K/dF4vr5YclDdCRcnHpyw8biuWeN19TpsLHwB6ESUk3GPPPKIFi5cGPreGTRokIYOHUrysh2X6T6+vN38PXtbcS3UMR9D+++/v7bddttNaj/KR/vA4hXN+vs/V2rqrKySqaQK0f5QiHaDRAdn6X7FuZd9tyvS35zUS5sNKFIul9fjb1TrzU8adfERvbXF4IzmL8nqynsq9d7nOYXKrzk3+5XWFWf10dB+aX36RaOufqxSh+xcqkN376XidFIrarL6x5tX6O3pTdHyW2oHeR+N+VFLM18tr5eX5PT7C/tp163LlE55/JbxsHEhqQIAXQ9JldXjFi0AX+GLlKV33aBs8Uq9M+EH67Rxnlwhr6LoxDkZXV1lo38A1g8f55df9GMVsilN2na0cuXlSvfspy/mv6Ff/vO/6aCDTtPYvQ5R37Je+n9X/bemvTlVhXDG8GVAwwGOkuK00stqtEUip1E9ovdqF0XHdUsgzs2G9chIS2a/qh12OlypQZuruLincvlq1Web1RyNO2vEdnrq6eejE7WvN1eETZ+/8/h798m6a1k4yO9AyosvvhiCKq+88kpIJDg47nEsnm5j3Wc6ClT7szjY70DtAQccoPHjx4faJMuWLQs1RZz4GDduXKid48C3t5OTTw5+O7DrBI3H8bQex016uaaG/37xxRdhG7r2waGHHhrGc5LEz71NvWz/dZLFSRTXWvHyDzzwwDB4fV1TxsvdWPgzxds53k/818PGVKtpfWq7TfyYbdQ58f61KfBNEwMq0jr3kFL1i37TQ0LFqZM2H7Ht53VCxZVB3vqkSXc8v1LLq5pDQuPovXrpZ6f01eYDM6F7llc/atD0eU7OJELtEeehpszM6pUP3bdKQVsOTusXZ/TTkXv2UnE0fXV9Vtc8Xqmpn0ZlDtEKAADQRXX7s2VqqgBfarlMymrOITsqpbRSRRkNfvQdJdZFZiW6yMolsloYLauQTGr4fY9LFZtFb3D1BKxLDp76923UyFF6fYddNbBykfL1K1Tx6Uwt+/gFNSaalSntrb/+q9/pqqsvk2oaVfPFwlV3Cbb/ZfS8vhJUigqMbD7bmpBNKJXOKTnqQA0YuK1mffCASuuWqnzUcVqy2xjl02mN//gTzc0Xa9ayhcqkM93yt7e71VSJ95f4u/bnd5LATU65xoUf+7U4aeAaGD179gw1DVwrw8F9N72z3377he3Vr1+/MJ+NZd9xE2buE6ZtTZXHHnssNEvlhIi/fze9NXHixJDoOPfcc9W3b9/w+fz8vvvuC/uKa5f4uPQx7SbRXCPFiSlvp2effVbbb799WMbkyZNDcurII48M05kTC16uO/v3ct0U2csvv6x33303JFw222yzsDx/D+6LxH2sXHDBBeG76Oq8f3mbuMbNE088EZr/qqysDNvVSSsnlVwDqDuWNWvifcc1qLzd3PSck2uuPcV2+rq4+a9Nbz+Kjp1CQtlcQY+8WaOrHq7RirrotfDWl4nKmI81v+Z/hUJeR+2W1CXH9tXg3pmo7E6G64rahqzunlSlp99p0PKqfJi/LwIqeiQ1fqeMzju8Qj1KisK4nt+iFc26+elqPfpGkxqzvgHLCb4vzzHiZcaipypKF/QPp1boyN17RI83nt8CfJ3LbmqqAEDX4rKZmiod6/ZnHCRVgDaiC5NCdAEz78jRYf9PZlPq/+QUFRWvi0RHtKCn7te8P/wqPKss6a8dH50UHgNYd9y8x9D+gzSwrkZv7LqtcvlmpbOlGvnhp5pf/ZEKddXKNzWpsHK21JQKwZR0Mh2dTGW/8aQhUUgrm8upaMgAJapqlWuuVaKot2or52izA87TovnvKb/8M+2w3an6ePuRaozmW9K3twZO+1AfvTlVgwYP7Ja/vd0tqeLaEw7gtm3ey7UqnBjwSbs/v/sqcF8prk0RN4nlRIMD/G7Kyk2BmbfZUUcdFQLADrpsDP1kdJRUcQDJSRJ3vO9Ekj/r448/HhIkTqrEyQzXJGmbVPF2dCJk+vTpIXHgRJSPIW9b11rxMryst99+O+xb2223XXjfg+d1//33h3ntuuuuq/of8bYvKioKyzPP0x3Au/N3r0dXPkYdcHWtJvcf4ws/b1u/5ubMHJhzzRuCcx3zvvTAAw+Ebeb9wTWjnMzsjmVyZ2zK2yWbz2nZyqyufqxKT77TpKbolD3UWIm0TWp8NcGRUD7XrKN3L9EFR1Roy0GtiZXo2qIpm9OiyibV1idCksRJlV4lCQ3um1E6HV1vJFxuFzRnSbOunbhCz01pjqZxvZmOFcLa+J9ryhR05G4Z/dVxfdSvIk0/Khs5kioA0PWQVFk9bgkH8KXoOiSXbAnIBOlGFdUvbXm8luULab3/b79sfSb1ap4XXSXlWp8BWFfC0d2rpyYdspdKkhklo8OuOZXTCeUZnXT8WWqa87GaF34qNWWUj8ZOJZIhobImLjOSTspGx3Bms+HKlQ1UY80SNTRFr/Uo0TlXXKeBffoosewLFW85Vrv3LI5OQDLKRGchhaVL9aNkkbbaalQI0GDT4+/VJ+NOFLgWijtqdwD/4YcfDn+dVHFA1wHcLbbYQnvttVdIlLjfEPeb4v5EfGd47969dcQRR4QkgxMKHt8JhZtvvjnMK27uqrvsR/6sDjo5SeOmw4499lidfvrpOuyww0LtHSeYPHjbmWubtOUaP56HxeO5Y3pv+zPPPFNnnXVWGM4777ww764eYPfniRNFt99+uz788MMQiHNy4Pzzzw81cAjMdSw+RuNjp/1fdC9OcgzoXaQzD3FyJNWaUPG+0DaJ0vLb732kZT8pKJXO6Il3mvTUWyvV5KKldf8pSic1rH+xth5erG03K9J2m5Vo+MBiFUUnAS39qbWcYzz+epWeeLtRDWtIqFhLQsX7bEGjhyd0yoG91IeO6QEAwHpGUgXAl3wF8+zDLY8j+eii6u3zz5KiC6M1Xdx8F02Jggakvmyf3XfKZ9f2QgB8he84/9n/uUypeXNUXlmjuoaG6OBOK5XL6t932FFvfDpT2UG7qDGVUH1uhZ6b9qnySrswCCGVr/IruahsSKg5X1Ahk1ZzIqF8bZPGjD1Itz33vnY66mL1HL6n/us/f6c3J/63Xv1krh6+436dt/U2ak7m1JTPRn8T+uWWW6hs8BA1NzYoG60LNh0O2rvmgDtPd9NCTz31VEikOBnivj4clHPfITvssENolslNVLlZL/cT4iavXGujLdeicM0KJw/cWb2n9XzcEfkdd9wRAulO3mwKvimB4ePZn921SnbaaafQ3Nfmm2++KoHlQKeTJXHTYa7d48SKH/v9efPmhU7ozZ2SO3nlWkL+ztyRuzu132qrrUItFSdp2n8XXYU/Z01NTaidctddd4U7nJ28cxNmrp3jfcXbJq6FzrD6IdbRewxfHTZlTnT438hBGV1ydE+VhbysP3PHnztsj1ADpRCVE1KvspQam3O648VK3fxclT6Y3ajq+kL0Wl7N2Zwaor/1jQVNn9ekW55ZqUdeb9DK2rzKyzJRmZUKS+kooffV15Lq3zupM8f30lZDipRJE9YAAADrF2cfAL4UXcXM/o/ftj7x9VFBQ6vnuAWg1VxGfXcl+YIaEi13z1o2ugpL11eu9eQNgC8lUkndefe9uvfg8Sq45/lCyx2miURSqarl+kVxuXbZfZwOPOGnGjj2DP36tzeoMV+tVLqD4IaHaLqGnJTpUaR7X/lIxZsPU7KxSu89d4cuPPtkffrJc6r89AWl08UatNuZ2nOn3XXSmX+lg4rdvJXvUE0qkYyWXVulnjM/1znnnq90Kh3mj41P24CXaw0sWbIk9IHiRIqbsnIzVDNmzAiBfAe43azX3nvvrWOOOSbUrnAzHw7mu5+CNTXj5SSCA+aezjUq3ISWkwRO2txwww164YUXQvNXbe+870q8Tu3Xq6P1XN36x9M7yeHaO96eTii8/vrrofkuP3ZTaubt6G3qZItrtbj5NG8nb6P33nsvfE+el8dzPxrerm+88UZIfHk897PiJIU7qu+qtYCcQPE+dtttt4V192dy4u3ss88O+4ibkVvT/gTg65wn8bn/vtv30LkHl6nUP82th39cDrQtDzx+NpvQDpsX6ZBdy/XKRw267qlG/ce9K/UX/12pCb9dqNP/dZ4u/v8W6Mwr5+jEf/lCF/5npX53T43+cH+V3pjeoIPHlmn7zVuO1WSypRbM1/mcxcvO69zxPXTQjj1VUsTxDQAA1j/OQAB8RXG+rvVRdIGUTymXSCnji5qOrmu+g1WzmfyY0u7ApVU6n9WHF5weXSS1vgBgrUsqoUxJsfbKN6o5W69EdHz7DtNwiOfyOi+d081bDlLzrIXaYshwvfjkjSoqrlC+2UHclAr5aA75lqRHQjnlCxkV9+2rJfVNOu6Ew9Wjz27qN3aCttj+aPXYbC+dduql6rvtsdp796N0+5//qEw0/0HlPZWor/LU4W5YB02aM0X6r7331GNPPhGeY+Pi78wJADfhtWzZshC8d8fr99xzT/jr5r6c5HAyZNiwYaGz8BNPPFETJkwITTM54O+mpVxborN3gXscT+N+Qy655BKddNJJIXjuGjFuDuyaa64JtVa8Tl2N19u1QtwUlT+Hk0jeLr169Vr12Z0EcEfYHq9tDRFvQydJnEzxYzeP5v4vXOtk0qRJoY+aXXbZJSSr4g78Pa7bpPe4bmrNiRInIty/ivuqiXk81xRy82uuAeP5OUnhDvArKipax+oavL+53X0nhq666irdeeedoekvN1/mRNuPf/zj0AG/azZ1dp8C8FXh2In+HbdnDx24U3H0G976Rqu2x1Z0lqCiVFanHFimkkxC78/Mqq5eKi1Oq6GpoGVV0pzlaX04N6nZS4q0pDqhhsa8epamVFuf03ufN6k4k9QP9umhvj2j+UanAm2PW//OxOvjVgvH75zREbuWKuMbv9qMBwAAsL50+zMQOqoHvlRorNf8o/aVkl+2u+6LmM2eeE2FTO+1U2BEF0nZQk7zDttL6WRN9PzL3G46en3gMx+3tq8MYG279dZb9XeX/Fifj95aymWVS7W9tyIRki7VyZzSPXto5yWVmvnOS0ou/FSF6hVuBVCf1+TUP51X77JMOJYbm5tVWlahdxc3aZvRO6qw6C31GLyl3pg8Va++8Z76lKY0arudtP8B2yo3Z7Z++G83aczr7+on5aVKZ4pXJVBC3y3lFRrz6ef6bNbsUNZ0p9/gjbWjen9/rr3g9XeH6g7Eu4mpxYsXh9oTft+BfwfunQhwM1JOEjjYv7bOs+J9yM0/uTN216pw4sDr5aarDj300ND5u9ehqzRf5VokrlkTdwjvJrm8DZ1k8XYxfy6/5ia+3Dl8XNPCtTD8WT1e3D+I5+dxnWhwvyhO0vi5P68fx9vZy/S0Hs/TOhHjGkROtniIl+1ElBMp/uvlxvPsKtvP6+99LK6Z89lnn4Xt6BpLTtLtvvvuYdsa5/Kd4/3N+6E7qp8+fXpI1LkPGm9Havkgly9oyucNuvKu6LxgcXQMthS7q/goa45OEnYZmdYfLuyt6oa8rrxzpabM8s0XLeO0532u7fHp5Mg/nNZbg3sn9d8Pr9D0+fmwXPN4fuS+2/pVJHXZieU6aMeoXKKGyiYnTpjTUT0AdB0um+movmOciQBoEV2oNH74tvKpr7ZF7wuZt86aoIQjqmtJOppncUiofDXYUUj4LuXVXH0B+N7+9H//XeNK06rtkVRDpn2wsRBqj/QsJFVaVa+GaTP00D33K1eUUT5ZUCKZ0IjBPXX5/+92JTIlrmeioqISFZqrNaa8QRNOOVl7HXuZpn74sXbZZQf95McX6IxzT9KuW/ZTfv5ipYZtreeefUU/HToyKgNKVwXDzZVf8vVLtaKpVgvnzXfB0/oOugp/X22/MwfcFy1aFGoK+ATbARA37/Xpp5+GPlQcjHVzUu5Q3h2fjx8/PtSgcI2MtXnjiufjwbU/9tlnn9CJvQPrTkS4qTH3sfHggw+GwLsTLV2Bg0NxTRPz9vBzJy/iz+NAtreha4i0DWo74eZxPY94XCc8nKhyLQ3XdnGNH//19H7fiRnXIPJ35v5VXKPHnHzyd9o+4RQvw+O5toy3bVdJqHh9HfR3LSgnAPwde13dfJxrqHgfiD+3BwDfn5vi2nFEic4/vLd6R+cPyehcvc3PQeC0R019XstrCvpgTk5zlvmsgnN6AACw6SKpAiAoJLJa8LcXKNku0WFDVyxQIbmWmlCJrq/cl0M27+V8dVn5QlqJ2pZOcwGsZdGxN2v6XJ21xZaqTdQrk/v6se5XHLTMJRJ69eBDdPp5/0e10aFf25hTwXeMrqzV+D120fKyUWrONSifdxN+aaWLy3TnH3+qg/bcXvsdfIaGjzpAA4ftpBNPukSJZF7VNXUaOGp/XVzeW00NlUpkvhpoKcpllW9OqGdlnf584/XtSgZsSG0TKb5LyTUdHMh2IuWhhx4KfW/4blI3J+X3Hdh3rQf3ZeGO5N3pvPtOcZLDwX5bF8Fuz9NJCndwf8YZZ4TBy3Uy4Yknngh9rbz55pvhDti2n2lDab8NOtomfq2zr8evxa+3fd+f2bU67r777tBMlofbb79d77777qqO6NsmbtrOKx42JH9fHlx7xjVTrrvuOj3//POhSTl/x+475dRTT9WoUaPWasIOQAsfUelUQofuUqJj9iwK/aHFRUY4PqO/qWRCMxfldemflus/7q7SshXR73o41+8cNxH2h7tX6u9vWK6P52WVi65H2pY/0eKVSRV0/B5p7bNtsYq/dmMIAADA+kVSBUDgmiiluXSHwaZcNhW93nJH7feWzCvx6ZsdBj3yyZze/9GE1mcA1ibnSxt7lWnb/n3Uuz7tSEjrO1/yK7no/+lmadic6RpS3FOZPkNVMWSYstEM8omCjtl9K+22x+5KjRyrfHNW2WRWyVyTehYV6b//4Uda8f6Dmjv5di1+51498D//oFQ+r0mfLlZpaUFPzp2rRHGxGtyGRxvNibyaovnsWpzS1FfeDuuBDc+/B67l4JonrunhgPZ9992nhx9+OCQoFixYEBIprs3gpstcI+WUU04JTW65KSbXinCiY30Fub0cJwe83EMOOST0teImjFzT4uOPPw79rLjmivtdcVNH3YVrsowePVqDBw9e1QSYt4mbVPH2adu8WFfk78q1U2666aaQUPG+6HV27ZS//Mu/DDWTXKOnq9SmATZFLsadFz/joJ7afZuMEtHvg19bVb6Hx9LS6oLqmqJf8aQTIh2eagTxdPF1RyqVUH1TXitqfS7ixki/nNBjNjUXtM+YUh2/b4V6laWUipcLAACwgZBUARA0JwvKF7d0Wt1eUlklmt1e+5cdy39nhaTe+5sftj75qkQuoYoF80PfDVI+/B9rX7ircHVXuWvZ+lwW1swt65UWEuqXyiif6/g7SUUvp6NxGopzuqq8Qk3lZRo6eBs1OBmaSCudKlKfgX30wdM3atCQMVrRZwvlcknlwnecVLIoHT1PqCibVHEqpcbSCv3hpsd16S/+U9sc+xda2Lu3dp/8pkrrXc5E0yRaTkPSSiiZyWhoz576ZM7HIYCCDceJEtcKcB8pU6ZMCbUCnnrqKb322muaNWtW6MPDTS5tvfXWoUP0I444IiQxnFhxk1Fx3xwbin/H3ITVNttsE5I87qfGtRhWrlwZatbccccdoQN2Jxe6Q/nkGkKu0eEkxGmnnabTTz9dJ554YujIvX3zYl2J90Mn9Pxd3XbbbXrxxRfDc3+XJ598chi8D8Y1oACsawn1LU/rzINKNaRP9NTFZ2sRGpel7qqt7aVE/LijstavtU2uuJnR9sWR381G5yx9e2Z13iGlGtwnFZYBAACwoXFKAiDIfPB6dF3U8V2ehVRBb//FadGFz/e/C9R3y/drWk1TYsmciqN/0dWTn7S8hu/MF6jxEHOQyk3BOGDa9vV1wfP3crpKczvdXb6QVzYTHVmJnIp8LCfbRD0ibqWjMd2sRf17acSUT3XlnC/Ud8e91K8io9Mv+icl+w1SwuGNbL3SyYLmvPe4jj7hTI058mKlR2wXlRMZNTZnw92mGjpMk2ZXa/jOJ+iG2yaqfPORau63pYZf8Ldq6rG5Nv/4PRX69lEy1ZJCLWRTKq7LqW8yo/rq2vAa1o+2x6b7HHHiwX1tuFbKxIkT9cILL4TEijsGj5v3ct8oDtC7RoqTKg5yOzjv4HZHifkNxTUX3EG+19WJBHdY747e33nnndAUlpsFW7JkSfhcm3oZ5cSJaw251or7HHGfLF0xGeHvwYP3xfnz5+uRRx4JzZVNnTo1vOam5c4666zQR8+gQYOonQKsR8mofE+nktpruzJdfHQf9euVisqWr5adUWna+qhF/GxV8iT8/6u/PdY2udJWPnpeUSb97cn9tN3mJWH5AAAAXQFnJQCCT3761yrkm1uftVNIauD8z6IHze0ulb69RL6w2uSNZZPNSmZrokffd0ndV9sL0vYXp77DfNKkSeGO33Xd/I3n74Csl+cmZ7CBuSkO1zvLtfaPEvHRmAghkOj/JcU6e+ZyHTyvSkP3PVyDz/+lGsYcoN4T/o/ef+19DRq1v/Y77TL954Ov67Pq3hq+83H68MNPouKhSFtudpB673Rc9Nrx6rXjCRo+cpxOPeMnGlLRR3X1C5Sf/KIm/38/1+Kmgnb+u39Uz/LNNHrSuy1ljjOtkUQiqUI2r1Qm87X9FmuXt2+8jZ1Q8PHpprxeeeWV0Pm3m/dyHxxz584NiVEH4N1XiWukTJgwISQp3LyXg9p+rys3HeVAnZu6Gjt2rC6++GKdcMIJobkyfzY3BXbjjTdG+/GHoRP3tttlU+Rt0XboqvxduL+X66+/PuyP8+bNC8k895vi79A1ouKO+gGsXz7qEsmC9huT1ridUqGvlUTiyxonPtOIuTxtf5TGz9uWQ23L3bbHtR8WpaWjdivWnlsXKxNdPrR5GwAAYIMiqQIgXMz0SNRFj1ZfJPidRLYoNCH0vXwxW9k1lDwO8E29/ELltBaaGuuGfCevO4x+9dVXw53YbubGQSnfme2mbnyX9uzZs0MTPn68rgKInq/7Ypg5c+Y6XxY6x8duNl8XDU6lFEKnsoVMQY1FBb0/YJC2nz5HT1Uu1ZYnnqfc2PGqa2pWr+KCFq2oVclOu6sh26Q3pnygy376az328uu6b+ddVbfbWP3PdkNVUr1Emf699cnnU7Rk4QwtXPqhlkbLuHSLvpq3/Vh9sO32qsg0a9GsDzV92QoN/tFlau6T1M3VOSULeeXSBdUUJTUr26Bhg1wjBuuSj0UnWBcuXBhqobjGhhMMbubL/Y04yeI+K0aOHKn9999fJ510kn7wgx+Emh5OpLTtDLxtAKyr8jo68eN1d7NXF110Uajx4NdefvllXXXVVaFWzvLly8NvEDYM/064yTnXTvF38tZbb4XvyM2U/dVf/VXYB51c8Wsbw34HbKpcY6VPz4zOPaxc22+WVj4XnU9E5xiuVeKbNsLgF/xf63OXrfnwt2Xw+x4/TBNP2/q4ZfronCVb0G4jMzrpgHL1KU9Hxz7HPQAA6Dq6/ZnJFVdc4fBu3+ji7DfRxdyFo0ePzkyYMCHRNmAAbMoK7pY6m9C8Q3cMzfYUEqsPKA19/HUli3pFj779sRFdG0VTNevT4/dRj9oq5RKrb3Ykkc9q6DPTQ9vK6DwHQn13r2uHODjou7MdfHLw1M28OJi4xRZbhGSLky/nnntuGCe2ujKvbTJkTeVi2/HMd7jfcMMNoW+DM888U7169QrTx+O1nVf7adsvp6NpYn4vft1NjbmZIvfr4DuZraNpuqNC9G9A/8F6ePQo7VlXq1o32VHRW/tPflcreg1QYeQQpbc/SulMmXqUprTo8w+Vbs6rudAQHYs9VJbJqfL1Z5RdvlTJTJGW7r579HiZmkuzKqtNamY0r5PffVuLknlVqEx3HnaYdq6dq/oF1dF+mNLRn3ysj445XUX1OSV6lav25cd0+9BBOqCxRtlEk+qj9Tv5gzna+eRT9D833RR9ca0r3g14v73yyivDHfju/8PHzNrm48Q1AJxcdeJ1zpw5oQaAH/tYdVnhc58+ffqEDs1dVvivkyslJSWb1HHk7eDP7rLSNXLcBJibxNp3331Dp+dOJnEeuH55H/z4449DLcr33ntP1dXVIQnm5uX8nWy22WY09bUOuXxw7VLfhDF9+nTtuuuuOvjgg8Nx4bIB6EjL+VchtNrb7NY8W/tJ69hXz/NafuTbvhaXt62vRX+KM4n2LZViE+fkm8+JnnzySb3//vuhlunhhx++6pweALD+hRufp04tPP30076WnBFdI13er1+/Zy+99NJ12/TJRoCzZKCbS0RXLclZ70SlQW6NCRX78Mc/jv7/3a5ufJd8XhmV1tevMaFi6ehfdwqofl9xwsFN2LjZHgcC3USP7+yNfuh0ySWXhDt8HZRqHxzxtP6RjOfRkXicNY0Xv/9N87LVLbPt9O3f6+g1azsfJ4o+/fRTPfbYYyGx4ucdTdNtFdwMUpEeq1yuqh5SUfTSuJcnq6m8nza7+K/Ve/eTVVFWqhVzp2vpp28r0ZyXYyRplUTFQ1aNTVLJLgdr8LgfqLlnf6W9L0X/pRoTakwXNCRZpWFNKd0xeqym7DVWfzXleTXmeiqZjg7mlLRlj17RNHllCyk1VdUqX7Nc40uLo2M9Wi8Vq2+D9ElRsY4964yoVOJ7W1t8DMS1UiZPnhw6anen82+++WaotRbXSnGH3wcccEAIXjiIvf32269q3mtTSy64bxF33O6mwFwLZ7vttgtBHCdZ3CG6a6+4Q/TVlTtYO+Ltu2LFirBfuu+U1157LSRUvP+dcsopOu6447T55puTUAEAAADQpZBUAbq7XFoz/uqiTt2JWD77re8e6kwUVMh1LpGdT+SjcemsurMc8HRg1H2X+Hs8+uijQ3Mpffv2DcFSJ1N816n7EYg54bBo0aIQwPLdYA4iutkVvx5zwsJ3sbsJlngc90PgZr1iDoi5Y2vfWexArcdzh8IOUMbioKTX06+7No3vPvNjv+d1dzLEAU1P/8Ybb3wlKeK7yn3nrJspcvMwMa+H72z+6KOPwjy8bu5ce9q0aWFdn3322dD8mD8HWuy59x56aP48FUXb1DXH9u4/WAuzjVrcmFRDXY1Wzpymolz0XrZYrsgS9z8bgurR40Qypap0kQaN2UlN+WT4fpLRkIpOJ1JVST22XX/9zcwZOiL6DjPZglakKqOJ8qH22az6KuUbXDcur6J0RmXZaDkr50Vzz6s+2u3SmYwSFb00/qCDN7kg/voSH2ve533c+DjycePj6t577w21AHy8uCaba685sbDffvuF2jEOXu+1116hhorLja7Yifna5LKyX79+ocNz99Ph/mKcbPnggw9CPytOrrjpQpcz8XbF2uNt6poRLsNvvfXW0PzcjBkzQs2II488MnwnBx10UPgdo6YE0DX5t7pQiH7/o2O0tCgaMlrDkGg3tH+t3XhFLb2zUPwCAICuqtvf9jVu3Difr5VGJ4Xj8/n82AEDBqTGjBmTcDCBoA66A3cMn3rwKiWLm5UuzSlTnFeqNP/VvyXR32hIlOXVVJdX/dTXVTfljW811E95XfkPXpVmTl7DMnLR85wKpUVaGo3X54AJrWuJb+IEyUMPPRSSJ24uJW66Jh5iTj44aOgEhO9cd0DLiQfXcnFzQG7ux83/mJMsrvURd1j9ySefhHH9vtu1t2XLloXaMQ7WenoPDuQ6WFtWVhaSLQ6I7bTTTmF83x3vO5I9D9997OCvEyDu08EBNS/H6+Q76B3w9ODky3PPPReSJW4eyYFPc0DOwWKP6+Z6vG5OEnmdPF/fae7lDB06lKBcxLvB7rvtqRtuvkOXRMdYUj20+RYD9eDyhRq4675KZUpVs/ALFZKZaOyOoxjeig5zZItT2qZygbbON4VX8u5wPlmrHaYt0NPRd37xL67QST/8oYb++Gf63dKV+l1lnRYlc0pvNkZFhaTSzbU6qXKxxpf2UiGRVD6d0uJhg3Tz/KW69Kd/EwI03YmThT4OfPy5Q/hve1e+A9Q+zp0AcJLTx5GPcx9vTmD6uY8jlwtOrm6zzTbafffdw+Dl+TUfVz5Outu5jz+zA/feDk4muZaEyzCXdy4jfT5YUVFBc2BrSZygcjntvr8efPBBvf3226HMdo0hJ/eOOuqo0ISjjwO2+frjGxn8++vvZsiQIdpyyy1DucB3gDXx7rGudpF1OW90Tf6N8DnRZ599Fn6LXRaNGjVqnTSLCgDoHJfNjje5782mpqZl0bnhk2VlZTMnTpz45R253RRJFZIq6OayuWb1rL9OpbV5lZYXVFKejP4mor+Jr/3t2Supxc++oeb331X+vbeVnfJWNMR/2w7t32v5269uiop7F1RakQzz+/oykiqrSKm4V1bFo79Q8U7/p3Ut8U2cUHBNFd/Z6wTD6oKyTkQ42OoEhhMwbibMd2o7eeEAl8s+X7x4PHfc7B9O13xxEzl+3dN5cADSPI6bFDrmmGPCOL7r3QkVB8TMSRWvi5sW8mN3hO0Oot3MkJsV8rrcd999Ich72mmn6dBDDw0XUB7XyRI3AWMez31BOAjs4Kb5oiuuvbLDDjuEJI2TRg4en3322TrssMNCLR0uxFr4ZMhB49//53/psq23ir7jOo2oyemfly5VaUmpUgM2V+3yRUoUks6TfFX0PJcoKNn6RqaQ1lMvPaKf9O2nXFFSdb3LNPy1D9R3xx1VWpTRvvvvpwsuOF+33XqzKk44SyN+cI52229/zX71DSXKytXwxSe6d/Nhqq6tUXEqoVQhr3/4YJZmRI9/+tOfdrvf3++TVHEw2vu9gw+uhfLOO++E2mIOSLhGivl7dw2UXXbZJRz30XmOhg8fTn8JkXhfc/DY5YW3i7dp3O+My1Y3n+YEbdwvFOeH343LIAfu3Z+Nk/Gu3ejH7rPnwAMPDM2xeR91X19s4/WPpAqADY2kCgB0PSRVVo9bd4Fuq6VJpKLqGcplatWcyEYFQjqETFc3WP8hxUrn47vY41c7GvOrf303uorzqy7O4zG/MhQSKkSrVTymTA6b50NTVN2+nO4UN/XjbeuEQ2eCpA4cukaLa5w4sOqkhAO6DiT6bndfyPiCxncOe3CQ1zU+nORwDZa4g+u49oiTKU7M+I5vJ3U8T/M6ed18J7Jrs+y4444hoeL3/bqnjwNqXicH07wu+++/f0iqzJ8/P8zH/GPenl+LBwd/PHhdvR2ctOEi7Ev+Lhwsbmqq18UvvqoeuYQa8/U6vDmr+c8/oYamOjXnU0rEbX61kcvl1SNbG0oNH6uNKqhpx93086ZqbfPJRxr+3mxd9NRk7fqLP+pXV/xK9XV1uu3mm9VYW6vikp5KFmX1+H/8l6qHDFRjtLzstPfUo26likpy4bhPZzN6SPW6/777Ovye8eW+HvN3WVlZGY4hJysff/zxcIw5KOpj09+3kwRuCtDNKXlwUtLJRx9n1N76Km8vlxku404//fSQcHaZuGDBgrBt3RyYk7tOOBv7aefF28rJPzcneXNUNrh5Ru+nDpg5Ie+kun9r6IwYAAAAwMaAK2qg20qGoFzdI5colZdSe+U71V9KSXkuGu/bt7VfKETTrUrGdCyZyCmfq1OuR5UyTrCovlPrhJa7rB24ctDK3+s3Bfyc/HBgNeaAohMQns6DmxDy3aoO0D7wwAO6++67Q58M7g/Fd227NohrjnhwrRQvv614+Q7cuukhN9/l6Rw083L9vu9Ec1DYz30HeMy1Zbx+ft8dGH8b8frH2j5Gy/f80nPP6vGe5copq7qitK7ZZx/1KS5RSTql4h5F0f7TOnIbiUxalW++EE2RUL6Qj47VrNJbjdUN/bdRTX1aF978kJpqs+qdqdAJv/qjrviHv9X4Qw7WkqWLVNOc19iBm6vHliNUkkip58A+2qs0o4aaSvVojuanZk0uL5XyJdp9zz2jdeTUpL14P46b93LTVA5K+5h0s39u5itOQPp43G233ULtsZNPPjnU2PJx52MqroXrAR1zUtbJFPcz86Mf/SgkeP2a+3q6+uqrdf/994ekctznE76Zt5Vr/Tgxdc0114TEivdF16y85JJLwrZ2gp9EHwAAAICNBVcvQDflUJDjF4nUImWTGaWyRarvWRO9seZgWzLTEP3/2weSConGaGGtT1YjVygouVd5NHKREoWclj75CyXy3b6Vwk5xm/+u8eG7quM7qTsSBwGdQFlTE0NOzHgwB8Q8+LkDX/vuu28IOnpeHtYUoPU07qNg0KBB4bnv9K6trV01zZqCkvH822r73I8JbH47DmSO2WFHFSXTujb6XoqTWfVbukDZ5hqVVC1Xed/B0UHuruRbEjCrROVCvryPeg8eoGy0vfOJtJrqs8rU1+vcf/5d9B3XqrmpQblkvYq33lbXXn+fnn/2Bb03earmr2zQ5btvp+pMT2Wbcpr3yvP69U47RWVJsZqTRSrNJnTuq29q+7Fu6s37U8si0cKJFCcvHch3UtP9D7nmhPs68mve/11LzE3oucaXkylu0s/9GLnJKh/n8XdJMqXzfKx4G55xxhkh6O/m09zHivuZuuOOO0IThU4uY/W8b7r8d03FW265JfSB5US6ayW6doq3rWsmxk06sn8CAAAA2FiQVAG6qURBcoNfRSFpkVc+mVfRdm47u7llhNUqiabLtj7upHxeQ0dVtD7pWKKQV7ZvTomkky955ZJJ9VvyjApeUXwjN6HioKr7Uvj0009DINYBrbjWSvy3s5ykcefVDnideeaZuvDCC8Nw0UUXhf5K3Na6a5d4cPuaroXiZXS0HPcR4eZ03ESYA5G+S9lNf7l2i5MtTrK4Rko8rWuouFkYv9+7d+8QaPPgZfhzxcvxdHGn9G2DxvHn9YCvy+cLuvma/6ffLl0ZEqori6S9+5Zr9mvPKFXeT4VUkVKt29H8/+bo/xUD+0WP0iqKXk/lE9E4KQ0cvJke+f0vdN+5x2rz6LtqasioSSkdffK5mjd3rh596kkNqJ6r4cccq3whp5LorGNgzVJtW71YqeasynoV6e0B/dU0dJiefvwJf4HfIWW7aYm3e3wcfPjhh6G/JAek/de1xxyY9vERN+91yCGHhBopcfNePi656//7c2Jl2LBhoeP0U089NTRf6ESuE1p33nmnXnjhhdBUIsndr/M2ce0p77dOQjmx4n3Sfaa4qS83R+fk/JqS+wAAAADQVXHFDXRXbr6ncUZ4mGqNBaWjf8ldyluerE6hoIoB3/Zu0pQSmdro7xqC3ImM0luVRPP/MsCST+fCXfFYMwfzfKevm1JxIMvNdbnTawe0nPBw3yQOzFZVVbVO8c2c7Nhqq63CdO74esmSJSHA66a83PSQmxlz0mX06NEhkeMgo5fl8fy+myiKuY18d5TtPlzcYb37f3Bg2ME0N0vkdfb6ej2dJHFtFje144CxA5quVeMkj+ft9fFf18hxk0fxnfrmhEpZWVlItsyaNSvMy48Jdn6Vt8f4Qw9TUyKpS+ctVKq5SL8Yvo2qFy9UPp+Jhmw4zmOuvOZuVhLRMZor5JVLNMupj0L0uCbdU41HnKWBe+yta888SDeetreGVq7QqEvO18itt1VVbZPuveLXqs6mlY3OONLVSzRi4Rf6ZGBf7f7RDA2asVD7P/+aytIp3XrLLWG53f1eddc087Hw2muvaeLEiaEzbx+DPva8Pzth4n4/XBvluOOOC30U+ThyLTInWuIEI9YOJwJcfu25554hoXzooYeG78DJazeLeM8994ROG0nitnD54jJ9xowZuv3220Nzae6fy78DRxxxhM4777zwW0C/PgAAAAA2Zt3+9rBx48Y5+lCaSCTGRxfEYwcMGJAaM2ZMIm53HNhU5ZXUsntPUVmhetWd4a6t0pxqVPOcrDKJqHhYzSFQXCLVLO18MKQQFTW9BiajY6qj4HbLa6mti1UoaYqW+eU4mVy0ljteokTy2/fh0p3EZZX7THDgygkFJzociPXdwa4Z4kSEa5e4iTAnJhz4cgfzcV8orjni8Z3AcJM3Dni5lojvwnaTQ57H5MmTQ00TJ1RGjRoVAotuXsjjeDkez+M4+OumctwZvcf3+nmenp+TI06aeH2cNHHn937fr3n5Xs77778flu8AnO+6d/LF6+VEit/3Z/PgALM/j8eNyu1VneP783u5H330UQjauakZ7ob+qlT0G/ejH/5QP////ktnjhyuQYm8rp6/UEU77KmaJQvCd5IMfZsU1Lh0vuqLylVeX6viQUNVX9esbHSc5qPjupAqKJFvUrJ0oFJb7KS+0f7w3l3/q5du/F8N7dNLi5ZUqcfe+6qkslKZ+mrVTH9b9eki3VudVXVRsSY+8pD+5//9t84+91yddfbZ+slPfhLWr7sFW10Dy4lFB6NnzpwZkopOPMY1sbxvO8HovlKi85Zwt3/c4byPjXh7cd6y7rgMcTNrTmD5u3BtoS+++CIkkV3WuCxyorm7Jrb8m+J9dfny5SFx7ua+XJb7dW+zCy64QIcffnjYht6W7Ktdj8ufuNxx7VefM5CoBbA++TfDNXWdjPf1hcsiX3P4XAcAsGG4bPYNtL6RrKmpaVl0bvhkWVnZzIkTJ+ZaR+m2SKqQVEE3lYgKxtL3fi+HRmOJ6F8mn1Z6eInyC1Z3x3hezrdUL+580DOfqVNFfydLOphjIanmRIOatm5QuvDV5EkumVJjY5Uyww9qfQVr4nLLSQoHsNysihMe/jty5MiQQHESwxclDpI40eBx4+CWB7/uQK1f97x8d7YvZBwodPDWtVfcxNjYsWNXdSrs112jxeM4YeJpnUAZMWJEmJ+X13aeTsR4WtcocYfaXkcHKOMmixxwc5NjDhx7vb0Mr5vn7ef+6+SR18t9u7jmiy+4PHh5Xmd/NidwPC9P43XrbkH6NYm/b3838xcv1U+ef0tXlFXoTyuXasi4Y7Tsi7lKR8deMhqnEG23Qb0yanj3KVUvWarSTA81zHhbmjZFiS8+U8mc6SrM/kj1H76t2unRMH+20iUl6tunn5oa8upTXKz0sk+UqFyg5bNnaPMBg1Sdz2vWnFm67LLLwoWzT9K8H/3yl78M36m/M69fd+L986WXXgpN3DlY7+Cmt4mPEScMnUzx4P3e+7iPW2+37radugKXYy6zXJ6aawDGFxl+7O/NZZnH605cw2r69Ol69NFH9eyzz4bEuX8zXJPK/ae4dhVBsa6NpMqmYjXn28BGgKQKAHQ9JFVWr9ufcV1xxRWOtPWNdorfRD/gF44ePTozYcKEhJvS4SICm7KG6F/JjTsp10HcJ5dIKjetRsVVPULtlUTh6wHpuR9klU5GJ7gdvNfekK2i/xW78/SvL6xQyCm/l99pCRJ+VT66yM8oc9606LGTPByTwNrii9ZUOqXhAwer0FivkugYG/W3f9TU9yYrmYuOt2ROJb7z/JUnVVSaUUlto0buvIPOP+88HXfcMerXr384IluO25ZEjR97aGps0sB+/bTzz6+UsjlV3fk/enfGDF14wYX601V/Cnf3/+xnPwudfnv8dCatzz79TAftu5/mLVygZDesWeQaXjfccENIGjqI4OSg//q5k5AkBrsWB6CdOHDtPNcycnNgDvq4ScQDDzxQe+21V/jeNnU+ft3co2saPvPMM+HYdo0VJ0fdRJ2TgXHtFHRd/h6dGHPzoU6O7brrrjr44INDLTnKno2Lv0u32+mbphJJnzt/h2MvmkXeN11F80kkOfvG+uPfj7q6utAfl2s7+kYu13J0TXwAwIbhsnnq1KmFp59+WjU1NTOi6/7Lo/P7Zy+99FIH+bo1zpKBbqq4oUb5dPskRouiXFQ4jCqJLszUtjWur+jZt3PFR7i4SzuB3fH4WXeQn0u3jNeea64kG91vfTRwSfdddLhd1xEv6/ssb32uK1pqRySV0Gfz5ihbHB3vPcpUv3Spkhkfqy1JkpXNeVUce7YqTvobLY9ee+qpJ3XO2Weqd0Wf6AsLKZVovJbaROa/nu+yZcs1auQWqqvPqzY6fqvra8N7Tqj89re/DYFnd/LtGkVnnHFGSPA4CFuSKXYsp9tyjS534O1O5x2Mdm0I13wgqNn1OEngmhiHHHKIzj333JBE8ffkpgdvvfXWUGPDiTI37bYplm3+TG420ncTOxDvzuinTZsW+vdynyneJg7Ku7YVCRVg/clHx2ZVQ1ZfLGuOyp/vdu4cnc2pvimv+cuaor+58LyrcvHK2SMAANgQuEoHuqvihNyvirkT6rZCh9KZpBJjipVo03F8W30Gd74adiHZcVLFQZnEbillU02tr3xVIeHpopVLNDvGi+8gDnavD17W91ne+lxXtASFo42u4kyRFi1eHL1SpIa6ZVF5UKREMi/lUyoqKlaucqUa50xXUWk/FWUySqeLQtNGLV9Xx6cRTY0N2mOfPTXro8la8MEHytY1av78+aHfieuuuy4s230v+LX77rtPmXQmNDnT2NTYLQOwvvvn2muvDbVS3B+Rm/hq2cYcE12Zvx/XRnHTVhdeeKFOP/308P15X77rrrv05z//OdRkqamp2aQSK/4s7tPKTdb5eHYCKe63y9vA/ad4m/h4B7B+uITxsfn+7Gb93/urdcuzdaptdA3Slvc7y/NYWZfXjc/U6j/uW6l5S7IqdMXGPb7yuTad8hUAAGw8SKpgvfPJ+qY6bEwKhT6qShQrmWhUNiQ9vuR0i2V7NyhXyIbH7RUSTcrn11yEuNmwXNIJk68HSROFhJJbJMM7iXZ9qcSyhWLlx/5B2UQmWl7X2r4dff8MG//QHbkZI0dMBg8drvrq6uiVglKJ6PiMNkcq3iTRtuk9YjPXX2l9YfW8HROppLYetVVoriGdT6ipyLVcngnvOfjqv25WxjVV/NjrsPCLBeFxPI/uxM3umD93d/vsmwr33eQaRmeffbb222+/kHB59913Q4ftjz/+eGgbPhxrGznXvHENnIcfflh33nln6KTfCUDXTjnnnHNCk1/eFiQEgfXPjX3NXpTT0283aEFlITpPb33jW0moLvpJeunDJr0/O6/GZs+3a/HPpNdpRXWzPpzbqNc/qlFtfTbU0gEAAFhfuv0VD32qrDsODHkbOojgpl18Ie7HviN3Uw0cuemPuBPhrs6hnSbVqOquQzUguzxcoLSX8sVYoVS5dxpaXmgjoaTmfZiK/r+mK7a0BmyeVLpnNH27pEi0B6iwV0HJNTTr1bzXv6p41MnRfhQ96ULHY3V1dWj2ZF2i/NkwXFOgO3J5fNpJp2tKXYMqK4apONq/863NewWJJvVI5DXllj+puEev0In9msyeNVuvvfK8/v6BF1XIF6nmpSe11x6j9e9/+A/tsOMOmjNnTmsHyFK+sUkN0W/EwMGDNGDAwHBXf3fb/91++JVXXqmdd95Zxx9/PB2ybsR8ruMEyhNPPKHXX389PHZtFjcP5uawttlmm422BkdDQ4PbU9Zzzz0X/rq2ipus23fffTVu3Ljw2OdB/H5tfPwbQJ8qGzf/Wvt7fGRyg/5w9wrtvlWxfnV2H5WXFbRkhX9nEypKF9SnV0aV1Tll8wX1ix6XFSdV09Cs5VVZFWdS6tszpSXV0uV/rtTSypz+6YxylRfnVFKU1maDMupRklCqdZ/w8pqyec1cGF1RNOTVM5rXlkOLVBRdB4Xf92gZbkZsYWWzVtZkw7nDoD5F6t87pabmghZFr6+ozYbkT8/ilDYfXBQtJ7rCSETzj+adL+Sj6aW5i5uj+efUu2dSmw8sVjrpPmOk/314oa5/rlnbDU3rr0/srf4VqejzpdSrrKV5UzddNndxtG71hfDaZtG0Ja6JH62br0PqGnOaH827OrpMSacKGtg7E80jo2gzYAOhTxUA6HroU2X1uv1VD0mVdcMn2U6grFixQosWLdLChQvDxbcv2Dw4yeJxNiX+PG773neq9unTZ+PZf7I5LbttL1WklysdXfzkEl8P5tVPaVJJc0aJfHSV0Zoc8d1wK+fnVL9i9cE/f8VDR0fbIfVlbZdCIh9dLKWV3LFYhUyD8u4wpVWhUKR8slHpQk8lD/i/Kmw+rktux2effVYzZ85cZ4EGf2bKnw3j/PPPb33U/Zxz9rl64e131bjNWCVTGaVziej4TEaHfEHJQk7FRUn96Uen6pDxh3xj4nje3LlatniBjrvyv5XLFqnmtefUL7oe3n2PPfTKK69o6eIl6t27QuMPHa/f/e53GjBgkCoqynX11f8bvgPf+d6dkFTZdMTnNj7nmTJlSvi9cG0On/eMGDEidGK/zz77bDSdt/vz+ELKzfU9//zzmjRpUmi2z/uo91f3KeOmvgi+b9z8PZNU2bi55PH3SFKFpMrGjKQKAHQ9JFVWr9tH7UiqrH1OpixdujR0XurAs5t6cXAhrqXiIQ46bEr8mdyUjZu/cMesG9v+s/L2Q1Wcm6NMh6sdXe28kQyJFF/nBIXocT6jBdNX/30WopGHjmlufdYiEV0g1SYaVLRHkdLtmgVLed9QToljbo+Oyn26bAnlJk98l+66CogRwNhwfv3rX7c+6n4eevAh/eUPL1GyKKPEVjsr36efskUlKmpuUi46xHNpaf9EVbT/3/WN+/6ihQtU0atc+5xxkeoKadVOe0eNlYs1Z97ccJe+y4wdxozRrFmzQuCjuKxMv/inX+iyyy4LZWd3+/0lqbJpcq2VL774Qi+++GIY3NeKa63sueeeOvTQQzVq1KjQsXtX3d99nNbX14cgu5NDb775Zqil6XMcN3Hmz+DO+rtbEnRT5O+apMrGbVVS5c16/f7uldp962JdcVZvLatq1p+fqNKympwO3D6jQ3ct11WPV4ems84e31u7bVWslz+q001Pr9Q2QzM699CKaF5J/e31lZq7sElbDc9oybIGlZYko3mW6IxxPbXZwCIlo2JraWWT7n21Ts9PbVBldVblZQkdv08PnbRvuXqWJjV9Tr3umlSjzxZG14YrmqJriJQO2KFMP9i3RBPfbtCUz5q0eHl0jhFdZlT0zGj/7Yt1WjT/AeXReUg0/wXRe/dMqtOrH9ZpebT+Q/plwvwPHdtDvaL5X/3QAt30QlYlxRmNHJSMfjul4/fuqUN3KVFjc0G3P1ulFz9o0LLqnAZUpDU+ev24PXtEjzOqqsvq7hdXhnVfVh1Nm8prv5176YJDe2lQRVIpdvsNgqQKAHQ9JFVWr3tFLTpAUmXtctMQn3/+ud5++23Nmzcv3Jnp4JtrcLhZLAfTvG0dMNrUtq8vZBws2WOPPdSrV6+N7vNF1x5advch6t+4QErmo8LBzVu1BEpcu6RxQbOK55ZGr8cJlLwK+aQWfJBSYjXx1axqtdmYklDSeCr3seL+U/J756K/X+2rxYFV11pJHnmnEv12a321a/L+7UDZuvqOPV/Knw3j6KOPbn3U/TgA7PJ6xGYjVJouaEVdTuVjdlRDn+Gqy2VV3KNU1Y/eosoVK9eYVCkU8qqsXK7evftqUL+KaD4N6l/aU1OnTVO/QQNXBeji3weXnX7NwVr/PnRHJFU2ba6164SEa3nMmDEj7PNuBsxNZjlg5GYHu1rg2hdPvkHmjTfeCAmhuHZmdJ6sgw46KKy3byQh4L5pIKmy8VuVVHmjQb+/Z4X22Cajy35QrhufqtLEd5u0/WZF+vkp5RpUkdFfXrVcC1c06e9P6aPxO5Xo0Tdq9C+3r9TuIzP6xzP6KJ1J6ufXV+rjOY0+21fP4rTqm7LR/JM648AS/eS4ipB0uP7JFbrthQY1ZZPqVZpQVXTeUFqUiJbbS8fvU6Yn3qjSv91Tp2whoWgWqmvM65i9ynTcHiX6w70rNXtpIdQ68Rmv+27JpPO69AcVOnHvslCr5t/vXaEHXm2Mzonz6lGW0vKqggZWJPTTCeU6cIdS/fmxRbrlxWZlc9G1RS4f+oP7UbRuZx5cFpJEtzxT71u1QrJneVVOPaN1/MmxPXX8Xj316scN+tfbK1UfXQBVlCVDrZjRWxTpZxP6aGifTHR+EjYr1jOSKgDQ9ZBUWb1uH7UjqbL2+EB79dVXQ8DZAYQQnBsxQptvvrmGDBkSLr7jhMqmmFSJ+eJzY/xsLUmPrCrvO0W96qco5U7iWzuwb0mjRBc9k8NY4ZlrqiiR0/wP3buKA4AtY7U1YIuM0j2icjZR8H/OnKi5T70yIxPR5F8Nnmaj+Raf9LxUMjSM15V5X/eFKzY9a0oWbOrifdrJDt95vuNOO6t2RZWaG+tUW0ireOhmapz9sSqXrwgd0a9eQVVVK9WzRy899MhDOnL8Ydpq61Gat2ChEu2Cc16my8v4b3dFUmXT5xofvunECYrXXnst9M01YMCAUGvliCOO0PDhw8MxsKGPAx+Lrlnszugfe+wxvfXWW6GGjW+OcZDdCZUttthio+0XBh3z905SZePmX3B/jyGpcnelxmxRpIG9cnp2alb9ehX0+wv7Ra+VhE7of/TfS/XFimxIqhzSmlT5zR0tSZV/OL0lqfIz11RZ1KT/c2yZdt+2WA++Wq2HXm+OztazuuHygVpZn9C/RtMsXlnQX0XjHDK2RLc8vUJ3vZzVjlsk9Q+n9dG7n9Tp3x+o04By6a9PKNfA6G9pSVp1TQn9212V+mxBo354SKkO3LVcNzxVq5c+aNKuoxL6+9P6aqmbILtquTLFaf342B4av1ORfn/nEj31XkH7j3FipZ8emLRUN7/QrC0HpnTeYT3Up0daIwYXaWVdXpdfW6n6aDkXHlaq4/fpqVueq9Mtz9RE80/pH87oozuerdK9rzZGzzP66Um9NbhfQStWNmtw39LoenXjvJbbFJBUAYCuh6TK6nGWjLXCJ/FuY9t3NLrdbdfY8EmQ+xfZe++9tdVWW6l///6hBocvxB2wc/ByUxw21pPwhHLKRateceLdylXs3vpqS38niehvKvqOU7uWhedBIhd98SkVlaWjz9z6WjuZsmZPHDgHU8imlN+mSNmkT4xbArgh2VLIKX3aS8qXDl01flfmAIOHjr5/ho176M7igK7LZ584TX7zDc2aN1u//Y/fqyiRVfbTqSrv2Ts6AL75IHUCvZBt1oro92DBgi9UV1vnBbS++6W4vNxYy02gs3zuM2bMmNBE6Nlnnx2a/vL50uOPP66rr7469DXkRMuGStp7mR58U4w7or/qqqv0zDPPqKqqKtSqOe+888J6b8wd7QPdQvRzmkolNWN+s174sBCatfqLI8u0zfCicIrtM3vXOPHj+JfX5+jhb+tg+ehBSVFS229ZqhEDS3TIrhUa1DcdXS0UqbI+oc/m1oXaH27Wd8GyJj3yWo2q65NKR+fHS6uisqS2EJr1cnFWXJTW/5+9+wCQorz/P/6ZLVc4eq8ighiwIIgFNUaMEhO72E3U2JKYxF96/8VfYorRf4rpxt5bLDEaRWKLPXawgaIiKr0cHBxXduf/fJ/Zudtb9mDpd9z7pc/NzDPPPDOzd7vMzHef5+nTo1yjtu+i4QMrlcyNiZLNJtw9Y0LD+pdpRP/oWqC6Jqu6hqyef6NGq92tRiqR0Tsf1uqOx5crlUz7bRdUS6vr7TPL6pDvCmy34Z219+guGti7XHOXBVpZF7j9BvpoSUZ3PbFCNbV1/nVZVWfjuUg7blem8nSoNz+w7tGq9fyMOlV1cnnl7fdeDgAAbFkEVbBJVFdX+64t7ObbWqRYX9s2GKv1tR23SslPaIuS7r+UH6C67Ihbtbz/pxRmOymRKXPrEsq6X1t9eqVqg9VRcfv4CEL1G2Ld9+SyYkHWlc8o9C1dmlcmx5WpLJNQ0t2AZX2fYaFWpwIlTnxOyXRP97fhstrJnwd/x9hWWcDQAisWHLeHrGec9nnNXzBfC1asdMsZTX9lWq5kcfZ5kE6Xq6GuUR98NM99TLj3+erVWrmyxtcHdETx9Y99ucQGd7cghV0n2fKrr76q6667Tnfffbdmz569VQIr1kLNWtLcdtttuummm/Tmm2/6Y7Muys455xwddNBB/jMBQNtmnx12hVpXH3WpFbrr7Wwi7a64LTf+XLFh2uMla01uyX1G+eVIVDoqZ11jVVUm/KD2FpRZsdr9u96YUKNbWOX2c9XUGv327uX6+5MrtWxlne8qzIIyVot97sX7srxs7rMt3lt0XO66IdmgIGH7s8cTgapXNirjNliwrFHXP7RCl/6jWvc8Xavqmno/XopV42tyxa1OvxxVrZpV0WfosuUZ3faobbtctz5Wo+UrV2vZitWqd8e398gKfXK3tNtHVg++1KBf3FajK6ZU66PFDX6/AAAA60JQBRvFLljtRtxuvt9++22VlZVpl1120W677eZvxg0Pn9ufTFCvbgddpBU7TFZjsvnGIpkNVDHOvqFqt1SRTMI67ioQ2k2XfT0tt+w0hPVqKK/JLbkPH7e6MVGhyhOmKUh3dUVTFqMB0IbED4L9449EoEsuvlgnnXJytLIV8TY1NTV67/3Zagyz6tK1i+9GCIB80NJarRx33HE69thjfVep1sWWtVq58cYb9fLLL/vuT7YEu46zL8Y899xzuuGGG5pap1gXX8cff7xOPPFE7bjjjv76zkSfBwDaKgtWNGZDjRiY0vgR8q0yLvvXcr05u9YHH5KJUAn3Ps40hqpZlfFBhay7bg/dRbh9gSq+qPeX5L6ZudUYaNHSRlXXZJRUQj2qEkoHja6erCrLs/r2cd100Rm9dNHne+rXZ/XQD0/opmE2cLy7h7DPmPjy3j4+4o8Qy/ffz7L8XIp+RqU7VQS+YWz/7mX62jHd9cszeuqis7rrt+d21zeP7qp+PazXA1/U1WOtS2xL+y+rzlXuKIOEersy5x3VVb84s4d++fle+u05PfW9E7trSL+0BvRM6mvH9vT5H98lqZq6rKa+6O5pP6jzr198HAAAAK0hqIKNZg/O7JuV1l94//79fVDF+mBG+5VSuftRoe77fEfBqC8qzLi7lmw0BkrS3XSFPf2sv3WxwSMzBYPOmwFD3N9AdIekIEyqYnwXJdxNW0LuJiybdjduCZVPflFB0tUbpKKiufIA2hZ7kGoPKE445WTNfufd6CGJPRBZi6UrV2jmG2/ot7//g8orOqlbt+5+rAYAUWBl4MCBOvjgg3XyySf7LlPtPfXiiy/64MZDDz2kBQsWbNb3jLWIsa5bH3jgAd1yyy165ZVXfDeINs7LKaec4o/NWhx39K4RgfbDxihzV9rusrx7p4R+/vm++unnuqqxIaXz/rhMV05ZoYaGrCaNS/oyv7hluSZ+b65+edtiNTSGUTAhtKHpQx+AWbQioy/+foE+8Z2PdN6fluijpY06c1JKOw1I67B9u+vEiZ39/v7f32v1k5tX6Be3VutH1y/XC2+vVqeKhNWixoz7abcJ/pIhum4I3T4ymaw7FjW1CgmzFuiJytvlxWmH9NBhe6W1YFmDfnf3Sv3M1X/hzcv105tr9OGSjCrS0qf37qWRg8r18jsZHf+zBTroO3P14+uWaGR/6ai9k1q8rFF//GetfnbjCv38lmX66S0r9e6iQGWppH55yxId/n/z9dMbF+r19+vdsbj7knTouzyzLs2a+kQDAABoBUEVbDTrf9tu/O1hwLBhw/zYKXyTcRuRSii1x1kKPvFL92lR67Ns3JXMjhn/7TELklhXX6mqlg99QncjkrYB6nOyXRrVEOS+dZspd7dYK5U88QmFZakoD0CbZ5/x9tnerVu3XE5xccAlk2n0g4z+e+qDuuPOO7XzzjvzbwOQx94PNgD83nvvrTPPPNO3DBkyZIjee+893wXXFVdc4YMs9qUVe09tKhZMsS/EWLetl19+ue644w598MEHfrD8k046SWeccYY/Jrr7AgAAAIDiOvxXzw488EB7wlPpbmwPcjeZY/v06ZMcPXp0YN8g5OHP2kUPzTKaOXOmZsyY4V8v6x/cgirYNgSyoEda6raT6rrto9ScOxVkrfuvhBK93N/AvJTvLqBrt7RqFkYBFtvKek/u3Nf9TDRIWVd2t4QCtzqRTSkTZJQ9daaSyU68x4B2xN6vjY2NeuONNzV7zvv+2+z2cNZSzMpkshm99tprvmXLlVdepQ8/mqtBgwf7b7vbeC1Yk3Wj+cQTT/jWnjvttBMtAzoYe9907drVdwNmfwPW/db8+fN9K2BLdk3as2dPlZeXb/R7yK7brG4bjP7ee+/13bfa2HdjxozRMccco/3339+Pjce/zx2P/W3Y34N1RTdgwAD/RSnr9o2/hfYh+i2FWlzdoAXL6rXToLTG7Viu7fultHxlvVuXUGVZqJ0Gp7Xz0AqlEqEaMlmVl6XVp1tK2/cJtNeItHYfUaa0u/yfv6hBqWRCnSrL1blTQsP7J3Tixyt12N5d1KUypfJ0QiMGptWpPKu6xkBlbrlb55QG9UpqwqhyjRxcqcUrMlpUndHQfgnt9bFy9exs3XJJK1c36oPFjepantDeI8s1fFC55i+pU/WqhDveQHt/rEI9uqQ1cki5KsrcrYQ7u0QypW4ub4fegfbduVyDe6f9OC89Oye02t1upMoS6t4loR37Z7X78ArtMqxMXSsDd40SKlXutu2c1uCeCY0dnvQD47/3Ua2qV7t7lFSZKsrT7vyyOmH/Ku3zsUq3bNcr/N1vDfZ8wa6JZs2a5b+0aZ9Fw4cP9/9OAQC2DvtstvsHG3+xvr5+sbs2nNKpU6d377///g7fDUWHv1q44IIL7O60p/ujuND9A37mqFGj0pMnTw7sxpWbiLWzN5Z7Q/kbc/u2o3UR8dnPftZ/6xLbFt/Nl5tmFzyjxP1nuPuyejUkkso+l1EqW64w26C5b1iQxB6uutJBRgNHW6P/pFIj3Q1NjwYFmZQSYaCGU1633r6UdH8/vMeA9sVudDONGY0ctoP7TAj04aL5PgBgg1kPGTRYy5Yu1cy33tJrr7+mXt17qFNVld57/30faLGHwbzni7PxMy666CL/YPvII4/k4UEHZddVFqS0QMrUqVP17LPPatGiRerRo4f22Wcf/z6zh0vx+Cbry96/FvB85JFH/BhH1lrFrt323Xdf/6WY7bbbzr+feZ92PPa3V1dXp7vuust/UWrcuHGaOHGi786XYHj7Ut8QqrY+q3QyUEV59F5eXe/u2Rrctbf7VVaW2zThlrOunAUsogcCFkOwBuRlZbYUanWd+8xotLkouepU6T56UqmEL2v8vWCj7U9ylwbus8M3cleFq6M8HTQdi/0JVZYllLJKnMbGaN8Zt3Ors8ytq2/IuOMM/JgvlW77pDtY64LMughb7eqpd8eSSkbHYYGWMrej0N13WDdmfv+uLqvdzqHS7dv647Djt3O3db6FvW3r1tk5rq7L+oH83cvg8y3IZPtNp9zVjVXka8OWZv8G2jXRlClTfGtn6xpz0qRJqqyszJUAAGxp9tk8bdq00O5P3P3DTHev8I1evXo9dP755zd3T9NBcZWMjRIHVuxNZt1E8CBo22QtT3zfwn0nSEfcrvp0mVKZpJLjq/wNTZBwdzf+3sPd4Li/ie79or+DRONqNXavV8KVDd0dVfjZ6Uq7m5ZU2MBDG6Ad8i0o3Fv3vQ/n6O5/3auvfe1r2mv8nlowb76efvYZvTfnffXt11df+tJ5uv7GG/X2O7N8eR7UAutm7xF7r1iLlRNOOEGnnnqqH9B+xYoV/gss1113nW/RZMv2b22prOzSpUv16KOPNtWxevVqjRo1yn8Z5uijj/YD09NKG2j/rJVJ58qEKsst+GHjoQU+yNGlU0JVlVGwwt7mvmVJVdTSo7ubdnHrbDyRpH0OBdH2XV1+D7feynTtZAGH5oCKsc8LC250c+t6d43KdXb1lKWiQhagsGOpqmgOqBgLzNixdHHblaXtKxpRkMS2tbJ2jMaO3dbbsffpFh2n1WfHYRu5s/OtaWy7+Dwqy61VS3Tedhxd3ba9ukSD6+fvz861W1WgPu64bX2XXL3RZ2DzsQIAALSGoAo2igVT7JttNrXWPXZDjm1RdPPiPzB67qKyY/6lbCIrhQ1SVYMSYahk2UqFavQ3Yp16umWVKbuvu3EJE8o2ZKQTXnEVJO0OydVF8A1oj+yb7hUVFe6tnNTYcWN1ySWX6LHH/6PnX3zBvr3iWy0+OHWq/vinP+qQT01SYMHU9Xj4C8D9M+neN9YF1yc+8Ql94Qtf8N/S7dKli++a6ZprrtHNN9/sWxNYYGRt7y9bZ9/4ffXVV30wxdK7777ru2k97LDDdPbZZ/tWKrYvHzAF0O754Ky71vaxgRwLMFicwqZxtq2Py9jUuruKl41drhcGUPLXxywvDsbaJH/f8bLtt1B0TFY23rblcswW4+Pw83ZLklckWh9l5M8bm21azK2Ll6N18Uqrt/j5AQAAtIagCjaK3bBbSxWbxn198wBt29ZoHxuJ4Uoe/5Qa3M1Hw85phamE+g3t4m9GsjYOS9ColZUrlHF/D5mgk3TGWwrSKXc/w98G0J7Z53w+eyBhn/v2QNaSzcddxcT5hQ9IAKybvW/siyrWauXYY4/V5MmT9bGPfcwHSR566CEfWHnqqaf8+CvFrrssz7r3+s9//qMbb7zRt05ZuXKldtllFx133HE66qijtMMOO/BlGAAAAADYAARVsNFsYEu7eefGvGPwv2VraFLWU5UnTvFdeWVHupReocD9l9FKlzLqtEuZ1Biq/KQXom/H2XZN348DAADrYsGVPn36+PEtTj75ZO23334+YPnKK6/o9ttv94PNz507t+lazFJjY6Pee+893Xnnnb7MG2+84cdhsW1POeUUffzjH/cD38cBUAAAAADA+uFuChut2Dckse3LWHwktZ3SJ0+XutQr61uhJNSjT0rpwYFqwwqVn/y2wiR/H8C2gM96YOuwwIqNW7fzzjvrc5/7nG+5MmjQIM2fP1//+Mc/fLdeL730km/FYumZZ57R1VdfrX/+859asmSJb+1iAZnTTjtNI0eO9C3OaEEGAAAAABuOoAqADZJ0/8keyiSrlDxxmsr3SCtINai8f1qrBnRV2eemu2UfeYk2ANBu2bhZ9k34mI2tYt0OzZs3z4/R8PTTT+vKK6/0gZf8cqWKv2Fv23744Yf6zW9+4+u17iVt3AgA7p/bZNKPh3LEEUc0jYeSTqeb3n/33HOP/v73v/uAyssvv+zXxeOyHHLIIb7FC13yAQAAAMDGI6gCYCPYg5lAQbqLdOrr6rmj1DCmvyo++18lFT1Y5dEN0P5ZN0HWxaMl60bIBqvv0aOH/7b8jjvuqP33319f/OIXfWBkQx7YWtDGUteuXTVs2DB95zvf0fDhw9WtWzf/YBhAxN5j9v6zsVFOPPFEHXnkkRo4cKCqq6v1wgsv+G7BbCyVeCyWk046yY/FYu9bAAAAAMCmQVAFwCaQUL09cL30RVWcdq+SoYVUkrl1QMdQW1urRYsW+S55bIwDm7aWrIWHJWuVEY+F0B5Yy5Evf/nL/qGuBU/iFiw2tXEcLG9DgioWtPnrX//qX0NrBRO/JnV1dTr33HNzpQDE7y8LNg4ePFif+cxnfHBl3LhxqqqqUufOnbXPPvv47r4OPfRQ9evXz7+/NuR9CQCbgl0jTJ8+XZdccolPb7/9ts8DAABozwiqANgk7DuwqaBKqUS5b55Cp1/oaOzB5be+9S3fesMedvbv318DBgzw0zjZcpzs2+VDhw71wYj2ElSxhyD2QOT73/9+q8e8oQ9vf/SjH+XmmtmD41tvvbXdvD7AlmTvtS5dumjChAk64IADfFDF0sEHH6zx48f7AAvBFAAAAADY9AiqAACwCVj3OjaWgbWusMCDdZVV+EDTxjOwVh4XXXSRD6ZYqwwbNNoCMu1B3AWYBUA25TFb0GTvvff28/n1WlClb9++PBgG1sLeJzaQvb13LNk8Y6cAAAAAwOZDUAUAgE3AHmBasq6rrIusBQsWrPFQ09bZt8e//e1v++X2/NBzU3bdYXXdd999TfMxC1BZNyEA1s4Ck3GLLlp2AQAAAMDmRVAFAIBNyFqsWOsTG8i9WNDEWl7E3yhHxFq/2DfrLehk40NY12iHHXaYH8OFftcBAAAAAEBbwhMdAAC2oE0RTIm/lb4pvpFeWEepdW6OVjYWQLn++uv1/vvv65577vHLpb5em+K1KFRKnZtjvwAAAAAAoO0iqAIAQBtlLTfsoX3cWsPGYYnnbTwWW782VtbKxPVYd1rW+sPmbRpvb8s2H5ffFIECq6O1euL8+FxiFkCx8SFsakEbW99a8Cb/2ONk5eNpsXXxOZbCtrHX26b2Wsd12DR+jeLlOA8AAAAAAGz7CKoAHVD8EDA/FWP5+Q8g11a+tfwNsbb9AB2B/e3bQ3rrEuuDDz7Queeeq0mTJumII47wg8QvWbLElysWILBt43wLSFgdcZDCuiaz5ZgFDWpra/W///u/Ov744/WDH/zAL8fBhI15H65tOzuW+DhtWhiQsPWWLMBiAQ0TH0tcPm7BYstxecuLy8Sqq6v19a9/Xccdd5w/v/zAVDG2Lj4uY/Vaq5lTTz3V1/Gd73xHH330kV9nvvKVr+gb3/iGLwcAAAAAALZ9BFWADiUre0y4ZOkKXfrHq/XbP1i6ys1fpZWr8scuiB4o3njL3br3vim5POnGm/+u6265y82t+bD0rVmzdf0td6h6eU0uZ8OtqKnVDW4/ixcty+UAHYO97yyIYC1KDjnkEHXq1EkjR47UDTfcoOeff15TpkzRxRdf7Mdlqaqq0pe+9KUWQQRrfXLOOef4YISNU2JTC6LEgRWbnnfeeX4f8+fP9/XbwPk///nPddddd+lXv/qVunfv7oMv8XgmGxossP1VVlb6umxqx2PJlisqKvzUlvfdd9+m1ik2Fo0do+Xbsu170KBBuRqj8xs2bFhTcMjKxOdo85YeeOABHzh56aWXfD09e/bUpZde6s/vN7/5jd+3HY8Fj4qxfdrrOWPGDP/6WP02zsutt97qgytW1/bbb+/rsfr/+te/+i7LCKoAAAAAANAxEFQBOgh7SJjJhvrNpVfo2hv+rkwYKBO4vEDKKNBfr7hBf/zzda6kBVYSygaBFixYpoWLq/32ZvGS5VqwqLrpAW6+VXV1mr+w2u2j9W+AlyqRCDRv0TLVu+MFOhJ7MG8P6i3Q8eijj/qghgVAVq1a5VunxK024gf/1113nQ9EWL4tW3Dhl7/8pSZPnuyX46CIzVuyeQsSXH311Ro+fLjfl+VZitm8BScs8BB3FbYhrDXJypUr/fFYEMSWLdmx7rbbbu7zZYEPbNx5552aOHGi32fcisTKxcdb6IknntDee+/dFFix8pZidsxf+9rXfJlC8bnYfrp06dJiu3zWGsi2j18LCzTZMa1evdoHvObNm+fPw9aZxYsXb/DrBAAAAAAA2heCKkAHYq1TFCSUcSmZCPWJfffRARP2UXk6odB9HIT+Aab7WMg9G8xai5VMfbTghAoU2IPOIs8OgzB6+LnmI9ANE+3DfvCgEh2DPZS3IIQFOuwBfpxng7bHwRR7iP+73/3O51sZCw7YdKeddvJlLAjQp08fH2ypqanxrSnyAwe2nbXYsO6qjjzySC1dutSX22677Xzd8b7jbax1jM1vSMDAjsXS+eef74MnXbt21cc//nEf9LDASLdu3XzgZsCAAXrwwQd9mcIgSv5+bZ0FkAYPHqzHH39cM2fO9Mv521j5r371q7r88sv91M7NXlN7TeLAjpWxc7Jk3XjFr7WxeXsdL7nkEr+tzdtrvGjRIr8+DkL17t3bB1fioIrZkNcIAAAAAAC0PwRVgA5i3qLFCoO0splQXz77VP3Plz+vvcaO1t7jRuvLXzhdX/vy6T7Q4mMYgX04ZPWt//m8zj7ztKiCzWB9HkLywBLbOnvIby1UYvbA3vL69evnW2QYe6B/+umnt3iYb+bMmePz4gCDvV9sGwtg5LM8ayFirV5uvvlmv2zbvP32236b/ACD5R911FH+GOJ6S2V12XbGAie2vQVBHn744aZ95p+DLVu+neu6xHVbWWvBk8/qsVYjFgyxrswsCGKBpblz5/rgSD6rx8aqyT83yxs/frzPs/lC8TnFx2stV+LzKPydAAAAAACAbRNPAIAOIasbb/qHwjCj44/9jDpV2retXXbCoifRt8lTyUBf+eLpipqa2INDC6sECou0FMkmbF3oU/TgsdSAR1aN9Q2+9IuvzNAddz+g9+bMV2PWHuQ2f5s+Zt2ANYZZPfPsS/r3w8/Knvdmsy0fjALbAntY/+KLL/oH8/HDfMuzZHkWHDC2zsZSyQ9+WJ6VsXFX4m0tkGDdfJn8h/1WnwUS4vFMrKVHPDbInnvumSsVsbLWksW2LwxIrI1tFx+fHYMla4Vi48DEAZX42GKWF6dS2PZ2Dna+8Tkbm7/lllv8vJ2TlbM67ZjsPAvrt/FX8re3c50+fXqL87W8gQMH+nOyeuJ9xsd79tln+3K2TX5dAAAAAABg20RQBegAGhrtAad18RVqyOC+bt4eLBZ5eJn3wNGeDf7u0mt19XW353Ka/fYP1+o3v3fJrV8fFjy54ZZ73LZX6eHHntR7c+bq73fdp9/94Rqtrmt+SBzLZLK61O3jiWdf0stvvKbf/flq3fkPewiaKwBsI6wrKesaq/ChfBwQsfz4gb5NLTgRi/NsEPY4aBA/8C9kZfMDMvkmTJiQm2tmddg2cVBnbeKydix23BbQsO2sNcm6jqtYXmvWVbawdY6x4xk7dqw/vny2HNcXvzY21ko+O5/q6mofgLLXyMrkn4e1iLGgkZWzBAAAAAAAtm0EVYAOYFl1jYIgVHkqqbxnsWth3QjZNJTWGCzeWqhklbF2Kgn7xrbllfZA9M67/qXFy6qVcJUnbQfZrAKr383/5bJrcqWa3XTbP9y6rC+XCJMK3fTdOYu0um7Nh6ZAe2ZdZMWtI+IH/xY4sYf0ts4CFLZsyeYLAyO2bA/+SxEHZAqDE3GrjkIWkCgMRhQTBxosxa1ErBsum9q4JsXq3hzseAv3ZXn5gahibBsr8/Wvf92Xj9nvwAJD9hq/8MILvsWLrR85cqTvasxaDtl2FnTJ3w4AAAAAAGybuPsHOoB775sqG2T+8EMPdku5b77nftg0P7UUKCwYld6erX77y2fou+efqW995Qytz3PS4yYfoX59u+q8c0/W17/6eX3ra2fra/9zln8Q2WgtaQoe3AbZrL721bP0zf85U18/73Pq3q3Klcrqr5evXwsZYFOyv9P4bzWe2gP3/PwNlb993J2UjbPSo0cPPzh6a8kGYreB39clDjYUC3BsiqCHHa8FHSzIYAEVW7b5/fbbz69fn27ENqW1/V7y19lr8MMf/tDn2edS4Wti+XF5G4emf//+GjRokB9bZW37AAAAAAAA2w6CKkAHsGzZcvczoWHbD44ynGy2XstX1Kpmecu0LvkPGW1+fR7E2gfOZ086TuXlFVGGkwyyvtWK/VfopBOPVtJtFAQJJZJJnXnaCb7VSmO2tG/OA5uDtVyw4MCPf/zjphYk1kphxYoVPpCwqVi91uJj3rx5ayQbeL1w+eWXX85tuXXYe9ICKjbNb0ljr9Ubb7zhx2dpy+y47fPMXvN4APpin2/2+7eylmzeylpAy373Vt7yAQAAAADAtougCtAB+HHglVHg3/HRQ8JEkNIV19yky67NpWtu9qk0G/rQsNhHTkJZP+bLmhJJO9bmh5r2wDKTzfqpf3iZywe2JAt2PPTQQ7r44ov9g/f44bq1WLAH8mt7qL627qEKt7M6Ldk2paT4fbE1/eQnP9Ell1zij8OOydh5WZDFWtTEwZa2GHiwY7bji19DG+fGBte332ms8DW287Bgmp3r888/n8sFAAAAAADbMoIqQAeQ9wywSUPWMgMlw6QSYcI/vN3cHwnRg9SsVtc16rIrbtBvfne5fvvHa9RQ4vNV/6A2F2TJZK1DM2DLs/fKZz7zGT8getzFlSUbN+Spp57KlYr+3qO/+Wb20H6PPfbILTUrNri6se3jB/mlpK3tu9/9rs477zw/Hx9P/utw8skn+9ev8HVpK+y4br31Vh84sxY2s2fP9i1RnnvuOY0YMcKvt3VlZWW5LaJt7Pd6xhln+OW28HsAAAAAAACbD0EVoANIJaMBmuvqm8czSCdCfe2rp/n09a+erqT1s7WZ2XPU3//pSv3xbzdo+crVyiYSymaCXAua0pSVpXNzPLjE1pEfLIhZnj1ot1YN8XprwVAYPLAWDeeee25uqZltu+OOO/ruxGJWjwUgamvX3i1f3Pojnm5NdszxAPU2H7egid13330+Lwritj32+zr11FN9l2p2HvE5WCBsxowZPtDy6KOPtmi9YizQYgGYtWktcAYAAAAAANoXgipABzB655HuZ6hH//OMX7YHh36cksAeANtDz4RC33Jl83pv9odqaHT7yzbqrNNO0Ne/cpa+ef7p9tX/XIl1q2+MH0y2zW+6Y9tXGCgxcd5ee+3VNH/llVeuUdbGXinWUsUe1j/zzDM+2GAP8U0ceBg6dGirAROr37qpGjx4sA/MlBKsKHb8prV8kx8YaU28fRw0ueCCC/yysXWWZ+dp6226pbV2fvnnZoEUOz57za18HFiJgysWPLHf38yZM3NbROzcdtlll9xSccuWLcvNAQAAAACA9oygCtABHHjgfu5nUq++NsM/KCz2gLT1x6nNwo0IZNh+7/7nFGXcx87XvnqWunfr7AehtwYniRIe2MaaSrbygBTY3Oz9c8ABB+SW5FstWEBjyZIlfp0FDCwI8q1vfcs/hI/L2Dob3L7Yw30r17Vr16aH+rYcv0/tYfyf/vQnHzyxh/e2fTy1ZC1cFixYoNNOO82XN3YMxfZjdVq+tZqIAzW2HB9zsW3yAyD5ZeJzK2Rl7BysKzArm1+nHbe9Fl/5ylf8vLH1to2dXyF7PYytj4/DysfnX+wY4vX57LwtoFVMfE6WjE2t/D777OO7/rL1luJ1tk8ba8XYeRorf/XVVzfVUUwm73UEAAAAAADtF0EVoANIBFI6GShIJtXQYA/2Sm8Z0oI9qAwCZa3CDeCfN4YZdzzN38aPtP4gMp9tH7qPrdAdf2IDjwHYFB544IEWD9Qt8JH/0P473/mOD7TYOmMP+bt166Zvf/vba3QdZayc1VdTU+PnCx/Of+Mb31CPHj1891lLly7V8uXLddNNN/m6LJgzZMgQ/fnPf27an7HAiQUA4gBDXO8tt9zip3FZCxjY/NSpU/1yIavDggvxNhbcsJYacaAhZuveeOMNvz6u216XeD5m21177bWaM2eOVq1a5fPs3G1Mmo8++sgvx2yfdn75wZP4fPL3k+/CCy9sqjdmZZ944ok1ysctUWy97cuSseWXX35Zxx57bIvztLLWtdmsWbP8spW3Y7djWldLlaDFZx4AAAAAAGivuMMHOgALYjRmGpTJZvX7P12jbJEYxpqPJtfUpUuVwjCjutUb9o1re55pDyALH2yGJcR47OHlylV1PkJkj1eLPUwFtgT727MAyvz5831Qwx7A77DDDj6AYAOaV1ZW6je/+Y1veWHr7G9+zz339ON0WHAgP0BQyMraGCpVVVV+3lgdxgIbRx99tAYNGuQDLDYwuu3/S1/6kg9yVFRU+GOz90rPnj39ccTbxnXZuurqal/28MMP9+st0GPn8+qrr/oyxuqJk63r0qWLL2vjjVi9O++8s68rv5ylXXfdVZ06ddIVV1zh92nb9evXz59zXMZYXcOGDfPrzz//fPXv31+9e/f228TlbN7K2X4sQGXHbPMWjLF9WLL1cfk4TZs2zbf6+b//+z9f3l57O2Z7/Wy9iacWDLF19nobKx+3FjL333+/3+8999zjl40F1MaOHetfeytn29jvLD721tg5AADQUdm/kfG/rwAAAO0dVzVAh5DQN88/W0kFClMp/eZ3l6uhIVQ2tGCLpVCppD0MjKMbuWnQMtpxwuSjXV5Cl191vTLZ+Fvded/idvupXrFa1dUrW6Rly2sUuLL+G/HuU+fqq2/321t66tmX5PsBC6yuvAeSbrm+zrrlyebKSpddfr1bkdTJJ02OygBbiT0Y6Ny5s28NMnLkSB9gsS6h9ttvP//AwJI9dLeuuexh/uOPP557v6yd1Wtp8eLFPvgxfPhwX4+JgzHxgOcHHXSQn7/ooouaHujHA8Rby5WPfexjvvWEJQuC5M9b8MOCBxZUsP2MGDGiad1uu+3Wouzo0aM1atQof/zWmsTqtbz8OuOycXkbpD9+cGKtT2x722dcLn/ezsECL2PGjGlRZ1zOUnwMxs7RXhfLi+spTJZvr5d95lj5eP/5+47rjZO9bnaO9vv6z3/+46fWQshYixV7vSww8tnPftYHcyzY9PTTTze95utify8AAHRk9u9lKf9mAgAAtHUd/ormggsusKc+Pd3F3YUNDQ1njho1Kj158uTAHpZwwbd29vDJuli5/fbb9dZbb2nChAk67LDD/Dpeu7bp7Xdm6+57H3JzcTzVAiL2oDabywn1ta98XvYs1LrZ+s2lV6pb1046+/Mn+7XZbKjf/f4qZfzg9lFQ5Vv/c6b7IAn0yqsz9eAjjysIo/ryWV3fOv80zX5/nm6/+1/uDyTlykVlrCefM08/WdfecKu+8ZUzXL1SzcpaXXbVzW47959bb39PNm9tVIKwXt/8n3P9tsDWZu+B/M87e4gfBz8sYGHrNuTzML/ewn3YsiUTBy7yy9h+4/y1Kax3c4mPdVPsa32PeUPO0Qd/3Tb2GsbHbuJ64jqLrdtQ9m+pBccssHTkkUf6AA5QKnvPv/baa74VlTnmmGN867lSPgcAY59n1rryrrvu0owZMzRu3DhNnDixRatJYEPFn1FTpkzx/14eddRRfEahKPtbsWsi+1uZPn26bxk8adIk36oYALB12GfztGnTQusuvKamZqb7t/wbvXr1euj8889fc1DUDoYrGaADGT5sO331i6cpEVqXOpZcZpiQtTDJZjM64rBDcw8H7WGiPbBNumlzgMRWfenLZ1hpfwNuN0PZsPlBY9KtsUYnKbdd0qWmqQVu3H4GD+yrVNKVch/KobV0cWlAvx7q3S3tgyfxQ0r7Zn7KHmg25j3IdGWVrdfXzj/blnwesLXlP0yP/35tGr8/8tevj/ztCuuwZas7/2FEfplSH1Js6LGtL9vPptrX+tazIfu1oFj8GsbHbsl+p/H4KnZhmb8OAAAAAAB0HB3+SQAtVTacPWCipUr7E1rrlND+j75Nb21Aot9XHDyJH8g2B1NaxF9Dt70rn7VgjNvMgh02aLyNtWK1rfm7twfN0QPJwPr+8vVG9WXdJonoMPxDyvhBptVl5a1Fi5/YfkK33ncRtuEPqgGgLaKlCjZG/C1wWqpgQ9k1Fy1VsLnEn1G0VMG62N8KLVUAoG2xz2ZaqhTHlQzQ4diA0Ukb792n5gCFfRxEHwlhU+CjOa+J29byfDDG5iyg4spbndbixQIoLZPlxQEV01xfHFDxoZL8Gys7vkTKH5+1fImmFkyJBrsGAAAAAAAAgK0h7ykmsGHsITcPutuPUn5TUXBk7fJ/503lW6187fUVbsZfEwAAAAAAAIC2iKAKNpp1U2LdpdFdCQAAAAAAAABgW0ZQBRulrKxM48eP16GHHqpRo0blcgEAALAlWQtSxigAAAAAgM2POy9sMLt5t9YpI0aM8ANaDh48mK7AAAAAthKuwwAAAABg8yOogo1m34pMJm1gcf6cAAAAtpYwDH0CAAAAAGw+PAUHAAAAAAAAAAAoAUEVAAAAAAAAAACAEhBUAQAAAAAAAAAAKAFBFQAAAAAAAAAAgBIQVAEAAAAAAAAAACgBQRUAAAAAAAAAAIASEFTZxoVhqIaGBtXX1/tpY2Njbk3bZ8dux2tTAAAAAAAAAAC2NoIq2ygLRnz44Yd6+OGHdcUVV+jSSy/VH//4R912222aOXOmMplMrmTb9cYbb+iOO+7Qe++9p2w26/NsGs8DAAAAAAAAALAlEVTZBlnA5NVXX9X111+v+++/X6tWrVLXrl2VSqX05ptv6pVXXvGtVtqquGXKkiVL9M4776impsYv2zG/++67PsjSHoJCAAAAAAAAAIBtC0GVbdC8efP0z3/+UytWrNDhhx+uM844Q6effrqfnnnmmdpvv/1UVlaWK12ajemCa323DYLAT3fZZRedeOKJGjZsmBKJhA+uPPPMM74FC92CAQAAAAAAAAC2NIIq2xgLNkybNk0LFizQxIkTtc8++6hnz54qLy9X586dNXToUA0YMMAHKczq1av13//+VzfddJOuueYa37LFgjL53W1Nnz5dzz33nG8lYuuvvfZaH7SZPXu2amtr9dJLL+mWW27x+U8//bQP5ljAw9Jbb73lAyFW1roiszLWpdeMGTP8tq+//rpuv/12n//II49o6dKlTcGSxYsX6+233/bBlGXLlunf//63nn32Wb8PO94HH3zQt2YBAAAAAAAAAGBLIKiyDbFgxMqVK33AYuDAgdp55519MMVafhQmK7tw4ULdfPPNuvPOO/34KxagsADI1Vdf7QMzFqCJuxL7+9//7stZ3Rawefzxx3XllVf67S1YYoGYuXPn6oYbbvCBlziwMmvWLP3jH//wY7lYcGbRokV6/vnn/T4sMDJlyhR98MEHmj9/vu6++24fYLHAirFuvh577DG/rq6uTsuXL/dTOy7rCswS46sAAAC0D/EXZwAAAACgPSOoso2xlifV1dW+dYq1TLEASjEWkHj55Zf1wgsv6OCDD/bdgp1zzjk65ZRTfKDiySef9EEWu/m1ZAGNIUOG6OSTT/blDj30UB9csdYrkyZN8tufffbZGjFihA+8WMuSmAVYevXqpeOOO86XOfroo31w5LXXXvMtaT7/+c/7OvfYYw+/rQVRjB173KLGzueAAw7wLW3Gjx+vk046SYcccojPBwAAAAAAAABgSyCoso2xgIi15LAxU+KARDE2eL11zdWjRw9NmDChKQiz4447arfddvMtTyzF3yi0oIiNcdKnTx9169bNj3Ni2wwfPlyjRo1Sly5dfJmRI0eqvr7eB03iba28bdu/f38/YL4FRvr166fBgwf71jS2vnv37n5baxljx1b4TUY7FzunZDLpB9y3FjjrOkcAAACsnV1z2fVjfiq8DtsU7As39oWa/K5eAQAAAKA94on0NsYCDhZssG7ArDVKayzwYS1ILKhSWVnZ1KLFphbgsMCMtU6xm17Lq6qq8ikuZ8EMC2zY9rZPY+ss6GHim2XLs/otYBMHQGyaTqd9MMXqMFYuXs+NNgAAwOZn13vWBWzcevnFF1/0491ZF7EWXNlU7NrOunW1bl7ff//9zRa4AQAAAIAtgaDKNsYCHzYQvd0gWzdard0Qx4ENC7wU3tTaDbaJgyXGyluKgyqxwuVi8gMm+UrZFgAAAJueXf9Zy2Ibv87GurPx8yzZ+Hh/+9vf9PTTT/v1sVKDIFYuTvlsOT+YUqwMAAAAALQHBFW2MRUVFb47Lmup8txzz/mB4fNvWu1m1rrYstYj1pWXrY/LGGvB8tFHH/kWJNZipa0FPuw446CP4WYcAABgw9l4fNtvv72++MUv6mtf+5ofP8++pHPLLbdo5syZTYGQYtdchfnxfOE0X6l5AAAAANBWEVTZhsQtQkaPHu3HKvnvf/+rO+64Q88//7zefvttvfHGG/5bh7NmzfJBExs7xdx7771+gPjZs2frqaee0vTp0/1YKTYGSrEWJluanZclO2ZrPfPOO+/487ExX/K/QQkAAIDSWTDDkl1j2dh4NuadXR8ec8wxfr1dH1qr5rlz5+qll15STU1NUwDE8u2a7M033/TXYxZ8sfFSXnnlFf3nP//xyboSi7uTjdkXeKxeW//kk0/6OtbWZS0AAAAAtDUEVbZB1sLkyCOP1Mc//nEtWLBAN998s/785z/riiuu0L///W9VV1f7YMnHPvYxTZ482d8oX3XVVfrDH/7g1++6666aOHGiH1TeWDdhdrOd32rFtrdWMbYuXzyIfDy2SuGysW0tz8Z+yWdlrAVNXNamVi4O7NgYLGPHjvVjwVx55ZU+YGTnx7cbAQAANlwcXImvqewaza7xrHWz5Vlw5LbbbtPixYubyllw5PHHH/fXjtZC2rqete7D7r77bj3yyCM+3764Y0GTuDtaC77YNpZv3Y7Z9LLLLvNjuhBYAQAAANBeEFTZBlnww8ZVOeqoo3T22Wfr1FNP1YknnqiTTjpJp5xyim/FEgc29t57b5111ll+/fHHH6/PfvazOvbYYzVo0CBfxoIiEyZM0OGHH+6/wRjXb/NHH320D3LEeca+3WiBmriVyy677OKPw5aNlbNgzac//WkdcMAB/oY93naHHXbwxzds2DCfZ8dpdQ0ZMsQvW8Blv/320xlnnOGP95Of/KQ/jnh7AAAArL/4Cy12TWXdgVkQZdWqVRo6dGjTGHv546EYm7e8OL311lt+MPpDDjnEdyV23nnn6bjjjvNdi1m9lqyliwVPrCWMlTnnnHP8l4EswGJfmomDLwAAAADQlhFU2YbZtwwHDhyocePG+eDJ+PHjNWLECHXq1ClXIrp5toBHXMZar1gLFMuP11uAxbazoEbM6hg5cqTvJiJf3759fR3WF7dta+t33HFHdenSpalOOy4LoFiwJG6FYnr06OGDMHZzbXr37u3rshYq8bZ2bLbtXnvt1bQfAAAAbDjrGvbOO+/Udddd51s333ffff7LL/YFl/yAS2tsXc+ePf11nXUTtnDhQn+NZkEZu46zfAvCWJ59Wce+QGNj+1nAxfZh4/vV1tbmagMAAACAto2gyjbObnILU6FSyxQqtezm2rbYOgAAAJTOgh3WKsW6VLUxUewLMZ/73Od8y+X8L8UUY9vaeguajBo1yrdMsSCMddH6l7/8RY8++qivM27hYq2k4y/LxNtZeVqoAAAAAGhPCKoAAAAAHZQFN0aPHq1zzz1XX/3qV323sda9qwVATBwQyZ9asvFW4gHqjbVE3n333XX66af7blqttfSUKVP09NNP+/FXTBxMAQAAAID2jKAKAAAA0IHFrUYsxYGPOPhhU+sC1sY8sYHq47y5c+fq3Xff9cEVY9132Xgs1kWsBWkmTZrku4W1cvGA93GdhVrLBwAAAIC2iKAKAAAA0MGtLbBh4+NZt2DWrdeVV16pa665Rvfee69vpRJ332VjqVx++eW64oor/Ppbb71V1dXVfgy+eLD7uLULAAAAALRnBFUAAACADiidTvtWJbvuuqvvvqs1Nqj8mWeeqT333LOp1cnBBx+sk08+WXvssYcqKio0fPhwn2z9ypUr1bt3b98NmG1jdVurlX322cfn5wdwbDD7fffd1w9iDwAAAADtAUEVAAAAoIOxwIaNm7L33ntr//3394GRtXXPtd122+moo47SOeec48dNGTNmjMaNG9cUEOnfv78+/elP6+yzz9YXvvAFnXTSSdpll11812G2/aBBg3TooYf6aX43YxbUOeKII9S9e3efDwAAAABtHXcu2CjW3cPSpUs1f/5839c2AAAA2g/rvsvSulgAxIIeVjYOisTLsfy8OGgSi9fl5xnLswQAAAAA7QV3MNhg1vVDXV2dnnrqKd19992aPn26z6O/bAAAgG1TYbCkULy+WJnWtltbfQAAAADQ1hBUwUaxlioLFy7U+++/ryVLluRyAQAAAAAAAADY9hBUAQAAAAAAAAAAKAFBFQAAAAAAAAAAgBIQVAEAAAAAAAAAACgBQRUAAAAAAAAAAIASEFQBAAAAAACbVRAEPgEAALR3BFUAAAAAAMBmE4ahMpmMnwIAALR3BFUAAAAAAAAAAABKQFAFAAAAAAAAAACgBARVAAAAAAAAAAAASkBQBQAAAAAAAAAAoAQEVQAAAAAAAAAAAEpAUAUAAAAAAAAAAKAEBFUAAACAbUAQBD4BAAAAADYfgioAAADANiAMw9wcAAAAAGBzIagCAAAAtHMWUMlmswRWAAAAAGAzI6gCAAAAAAAAAABQAoIqAAAAAAAAAAAAJSCoAgAAAAAAAAAAUAKCKgAAAAAAAAAAACUgqAIAAAAAAAAAAFACgioAAAAAAAAAAAAlIKgCAAAAAAAAAABQAoIqAAAAAAAAAAAAJSCoAgAAAAAAAAAAUAKCKgAAAAAAAAAAACUgqAIAAAAAAAAAAFACgioAAAAAAAAAAAAlIKgCAAAAAAAAAABQAoIqAAAAAAAAAAAAJSCoAgAAAAAAAAAAUAKCKgAAAAAAAAAAACUgqAIAAAAAAAAAAFACgioAAAAAAAAAAAAlIKgCAAAAAAAAAABQAoIqAAAAAAAAAAAAJSCoAgAAAAAAAAAAUAKCKgAAAAAAYJNLJBLadddd9e1vf9unESNG+DwAAID2LMhNO6wLLrjAruh6BkFwYUNDw5mjRo1KT548OSgvL5fLiwqhqDAMtWrVKt1+++166623NGHCBB122GF+Ha8dAAClsX9LL7roIo0ZM0ZHHnmk0ul0bg2wbtlsVq+99poeeOABv3zMMcdohx124KElSmbX9HV1dbrrrrs0Y8YMjRs3ThMnTlRVVRV/R1vJMZ/5k0L7z/1u8n8H8T1W071WGK1rWrap22aNcjnF8ovlZROBkmHxcsbm42OzabQcBVBiUfHmbWJWNt6+sM5Y/rxpsezm16y1uYxN11Z3MzuOaBqGWWXdfEJJX3fWJTuTaLtQf7z8cDfF5mb/ntk10ZQpUzR9+nSNHTtWkyZNUmVlZa4EAGBLs8/madOmhVOnTlVNTc1M92/jN3r16vXQ+eefX5cr0mFxlQwAAAAAAAAAAFACgioAAAAAALQR1krFxC0srG1GfmsLaxUSt1Jpwa+ING3rpnHKt7a8uJWKHUexMs2tU5pbqTSXaz6GmJUz+XXlz8eK5eXz6/POMRZvV2w/rWku4s4ySLpJIne+UtL9KKUOAADQcRFUAQAAAACgjbDup0wURHDJnu/bNBewyH/eHz/8t2l+isV1xfLXxYrlWYDC9hYHKvxyXtCixX4SbtpURzz1W/u5FmXzxHnx1OrPz4tTvJy//1hr87E4r/DYrbuveNmkEglZWCU+5liRKgEAAAiqAAAAAADQVlhLiSZBLpjhpkGQUCBrVbHmk/44aFCo8Ia/tXImf50FG2xvcRDCL+eNmdKirM27FOYft99z87ax/Hnrp721dfnifJtasn3H83H+2qYmkUi55eiY/JG71zCwFiruOOPXO152M/5cwkSo7BqvIAAAwJrXWAAAAAAAYCuJuqFqDghYeMM0hTHiddZCxLhly8qPtVjZ/Dpilmf/GSvTIhBSUL7I5gWi4IOfs0loQZJ4IafpoC27ZYVNQRrLzyV/DgXlYsUCQvG5xHXnbxkV9xXakp+6V9b9lwuk+AJ5ye/fyuQUCV4BAAAYgioAAAAAALQR9uA/Zg/5s0H0mD8v1wcRctlu0Ydh/LJ1a2WpMBzgy7sULUSThFu2BwIWO8gPeMTzhV2HFfL78bGIqHwU4MgFRmzO8vPnc2w+f9mO3y/5aVRLMU37yd82f9by88rEi1FWlJ/wLX5yy36mOTUFU5r4ggAAAGsgqAIAAAAAQBth3WllQymjrJsPlLCn/TaQupu3xhXZMOvWWdDDVlhwIHr8b+sSFtHIZm1LZVw5C7dY8MBv52MEtk1L1s1XNms1urW+rC/o8y3MYVuEgR2Tn3PVRUGRwB1koJQPvlgoxMbOt3J+yPeoCqdwf25diyzbS9rXEea6NotbpET7sUcWVpkr5ybRsomOwWd60bE18QPPJ1y9NrVuvWwL29b2F712/rVx+/KtbSw65Ni5N51fU90AAAAtEVQBAAAAAKCNiB/oX37lybrjn19QNkiob/8q/f2fZ+vv956lRJBSOhnqznvOVqg6/fjCz+imv5+m7Ues1HbDazR02GpXplEpt92td31effot0cc/2Uk33Xa6rrv9RCnR3AYlDmBY/Tfcdpquv+UkDdquU1NA4eeXfEpXXHeCevddqPO+tpuuufkUfeEre/ugxP+79HD96Yoj1LvPQn35m2N0zQ2TdfKp41z9SV11w3E66bTRroaWgYkrXP5ZXxzrslMaun0v/e3aI/T17+2sD+Y8ru/8aLwawg98gMXq+MtVx+gnv/q4fvvnT7vyWe3/yW469Kguuvj3E91+j9KnjuijQ4/s4Y5VuuBnB+n//eHTfj7ptv395Z/SHy47VDUrX1Sf/h/pD275S18b64NVYZDRHy87zK3/tFLppA+oXPy7Q3T6WTv7Lsnic7eHJTaAPQAAQCGuEAAAAAAAAAAAAEpAUAUAAAAAgDbCd6cVBrrphkeijKBRe08YpnkfLnP5dgvfqJ13GeS74/LdYVkXVtmEZr9TpTnvuvRelcsvi7Z1Fs3vo/88Uq377n1e6aRbl003tcaIp6efvY/7mdU7sxbouz+Y5Fuw+O6xLDeb0aKF/fTn37+i6uXV2mff7ZUIU25N0q0LtXRxH/3+1y9rZU2ogw8drmwm6kosVrgvkwkb9d0ffVxz5izW7y55VdsNPlAX/+JJlScGu3J2TjbofVY/+9+HVFmRUuD29eTDK/TAPdWqrXXnncjqX/fOdcuL3DFYvbnuu5TQ6N36+TH8v3TmLeraabwWz++na69+QqNH97MX1hUqc3W7qSvzha/s6bfLZ92v2UD2+ccLAACQj6AKAAAA0E5ZVzW77rqrvv3tb/s0YsQInweg/YrewVm9+Pwy33lWQknt9/Hh+v2l/1J9Q706V3XSARNHaFVtnXu/l/lwQiKV0Dlf2l9nf3F/jdqljzLZTFNQ4Jvfn6if/uIIHXHkeH37m39UJoi6/7L1oXXkFWQ0duwQfeeb1+iuv7+oHj0r/JgoNmJKNJaLjXViwYiUunbrrJWran03WhbYcJW4cv4IVNkpqeXVq3xAw8Yvsb23FphIJkKly1J66bmPFNrYLK6uRJi2Dd3/oc4+bw+trmtQQ0OZ39eE/bbz20X1Jt0+bC4KtuR/5NnyhP37KXB1lZd1d/XasSX17lsZtzKr7t0q3THZfKgLfnCHdhrV3dVl52dBnNCPX+OP2Z+XvQYAAABr4o4LAAAAAIA2xJ7rr1zR6GakHj0qNWLHPpr52iotXrxSY/ccrHHjB+utmR8pG0bBCwvCrFjxkWpq5qqhfqUPbMTjpfz99ntd+pdbt0oX/OQcJeTqzbGB5gf07+nKNmjBvLReemGRy01o9M4DlIiiI+rUqUzX33Kqrr35RB9l+MoXLlcyaXUH6lSV1lU3nKRrbjreHXNCX//KdS43GhjeByWig4tOKJrxPxNh0u3TAj9pt7fmMV5M0uXsPmaQnnhkpju/QPPmLdbxp+zogyu2bMfnB5S3wq7eeDB737omyCiVcuvzxo0x8d7DRK0rY0GUQEsWd1ZjY1ZHTx6pTK54IuGOy039oPy54AoAAEAhgioAAAAAALQhvpWIS42NGe2++1A/H6Sk6a/M0SGfGq2uXTrpkX/PVBBmXNnQd7l1643v6pYb3tFbb6105Ztv9d97u0qvvpTUV7/wd3WuKtOuuw7MrYmCDaefNd7NJHXtzaf6Ae/NWefuJWWjOmpr6/TJA7+jwyf9VJ87/kYpY91oRV18raxZpUkHfV9HfOpnOu2kG1x9vV1u3HGYK2YzFviIFptkwqwPjOwyZqAyuaBK3KqloiqtZCqpgw8dpcuuOlwDBvRWRWWl0u78rVWKlfNF3Y/4dWqSDfTC8++5nKySyZRCK+PS9jv0dCsTqqm2c4oCJhY0uurKhzTxk9upodGOIaovPnYAAIDWEFQBAAAAAKCNaA4aZLVwYbWOOGZnLVm8XNYN1+V/fVQjdrTAhfTEo7P91EIWNq5It26V6t69Uj27V7nc0NdjunetUO++FfrujyZZYc2c+aHP99w+dtmtv57770wd+snv69CD/0+33/KY+vazcVmyrpoozDBkwDj16T1SZWUV0XbWJZjtI5Hy6/r1/pjSqTKr3uVG23Tr2skHM7Yf1l3DhvduOh4vkdDNNzysHYZ304QJw1XZKaV9D9hB223fXYcfOdIf1zGHX6xjj7hYxx99iT+Ovfbb3m3oag8toGOjp9jpWAgkbpXi8hIZPf2fhdabl77z431UXi51ded/xtm7ac6cBbmWLhE7vddftu0T7lgr3NYWiom6TYuPNe+IAQAAmhBUAQAAAACgDfr3g9M0aEgvvfTibCmoVzaskI2blMmGSqajwegzmaxS6VB/vuJE/enyE/XHy453uVEXX9bS5Q+XH61Lfnu0+vav1EEHnK/6ehtkPtK5W4VcEV3y84fVr/fu6tNjR919xzuuzlD9B1S4acbXEYlCJlHAIfT7zeTW2Vjx+UGTxsZQ48YP0fd/fIBLB+qr3xxnIQ9fV9ZtlwxCPfZQtX7z6zt1+jlj9Ns/HaETThmpF6c9rgM+uYNW1zaof9/RGtBvlHr23sHv65jJO/nWLY1uPj4mq9OSHW/GtzaxMVaSOv6Y36pL17Qu+d0huvCi/TV9+jv61U+f81vYedj2UXwl8AP4WxAm6+qIz8EGqrdkY7cAAAAU6vBXCBdccIEFlnq6i6cLGxoazhw1alR68uTJQXl5eYuLQqzJ+qxdtWqVbr/9dr311luaMGGCDjvsML+O1w4AgNLYv6UXXXSRxowZoyOPPFLpdDq3BgA2P7umr6ur01133aUZM2Zo3LhxmjhxoqqqqvzDe2x5xx7+Zx888HdUuQf7vksqHwXI+qBB1BrELfv7rmg+vgfzw4H4X53P9ZvlFq1oVM4lW4y2sdr9CpeX8HlWh3WPZdO4rPHFc0vRvE3z/k5cnh27DcfiF21bl7KhO+5cOfubi/O9eGrb+cFgLM//n/th2+XO0c1GY8Uk3Wa5gv6nWxHYoPvWgiZquRLX78+p6fyi6i0ZX8b9n7CokOW6/dtcVEO0/nd/OiS3hM0pm836a6IpU6Zo+vTpGjt2rCZNmqTKyspcCQDAlmafzdOmTQunTp2qmpqame7fxW/06tXrofPPP78uV6TDyrv6AQAAAAAAAAAAQGsIqgAAAADbkLpG6S/PSv/3sHTJYy3Trx6Vfv6IdPdbUkP8VWwAbU7UXsKl0FpmRMu+UUWutUe0HJVqanaREzW+iNbZvG1hrVWatsltZ9Oo1YctWWuOuJWKtSSJ9muV+1YeNrVivmzM6mr5SMFqjlupxKy+uJWKsRZQth/TdCx+PrcfV9SvztVj+dFydKL+GN2y3zaXbJ0dqbUxiY7Jb+CTHX+8HxPVEm3vWYbVbS1z3Kx9NDatAwAAKKLlFRAAAACAds2GGrjxOekXD0k/eLBl+tFU6Sf/lp6cKS1dldsAQBuUlXVnZQ/3w4IH/BakyLgsCwD4oEhuvV/2P5v59T5rzSBBFDyJ8uO12bz6bNK03k1tVTF+H8bKRHNefmCi2Kbxer/OzeeXL8avD+0RRiL3IKNlrRZocaX8vJW1ucIHHoWvpS3Z2CmWb7XlH8O6jgcAAHRcBFUAAACAbU1uHOrGoGWyq/+sS2U27ACANikKMtiPVt6oQaBkHE/IPfj3A8X7OZvJzbmpDwy4/xMt4w9ei6BBvI3/uWbhKNbSXL7ofF7UpUXdztoGfPdrWonYtKjHFWke6yQ341gZn+y/gv3ES1Z7/jgpliyYUljeFMsDAADIR1AFAAAA6CAyITcAQFsXP9JvmuYCDnEwIH99nOKgSbxs4hYkNrX/8nv8iwMHcZ0t5OrKV6x8PLXiTXW4fTXN59hyfquY/Pl8LY43N9+C7xfMZrJuvU2jTzObzT83X79NbcH2bcnPNu8znsvfttgxFcsDAADgngoAAAAAgLbEurkK8kMFUbAgVhh4aO3hf34Na7v5LxrEcFrLz2d7bnmkrWstcJGfbMyV/HFXTOF8/rLvsiyPrbOc+HwLzztuNZN/zPn1mcJ9AAAA5COoAgAAAGxjcuM5F7XuR6QAtio/bog99HfT3LgqPgDg5n0wxWbtgX/hiPBOfiDA5q0mm0bjjbRc79uv5AIScb7fJtH8mCAa9L1YN2TNnyTW9ZjVZdv6feUFOfL3FyssUxi48edYkGcsx7rsih9j+HpciveRP83v2iu/jLF6CreJ2XJhHgAAQKHmqyUAAAAA7V5FWrro09L1J0h3n9Iy3XmydMuJ0uf2kHpX5TYA0KYEiShAEXXplfABBh8cUTJ66G/z9uB/zbhD0WCEr8ttVRgsiGqKrLEubzkoaDFjomBLxB2VT7ZNnEz+1FJ8bIVl4vlYsfX2CiQsWpx3evlnGpe3YErcFZpNClvqxOVsXeE+4mVTLA8AACBGUAUAAAAAAAAAAKAEBFUAAACArWjWMunpj6SniqQnPpReXiTV1EtLV0kvunnLK1b2v/Ol5atdhYHUvbM0pI/Up3vL1Nelgb2ktLsLKNJzEIA2IOr+ytpYhE3NMbJuxnLWbDPiiuTezLmi3tpaWMTr8lti2D7z56O64jqay+eLS8UtUOJpoeh81lyXX19h3bFoO2tnk5uPiwXx3pu3baohN2PrbZ0t2oOP/NeupH3npgAAAIUIqgAAAABb0Y8fkg64TDrwry79pWU6yKXz75betmDKe9IEV87yCsvZtkdfIT05R1pdL33p9iivWLn9Xbryv9LS2twBAGhTfCAgftCfiMZUsRv3hNy8m8bBAT9fEA9oLUCwvuK68+vLD4zYvIUrWhxrnsK8uFyxssbXl7cu3lccMDJB0HJsl/zjKeTX5NWXv+/8/RQeT4tyuWUAAIBCBFUAAACArajMXZGHGSmTlbJhy5RxyR7p2bPD+nppaFJqdGXXKBd/hT33tNUmjUXqs20Dl9ysGtx0Y1gddlyrG6Rpc6VaNwWw8SxYkPUP813KWijF2JgkQfSg3y9HbPyQeAyR6F3ZUrGgQFPAwk198kvNom2isUnyAxf5ddl8/jqTv7617WLFyuZP4/VBmPDHV1iHjbFieXG+lUnkzfuaXD2+Lpv3i831x/LnC/dh8tcDAADECKoAAAAAW5l9GdsenFqcIz/Z97LDvOd89szPlgvL+Yeu+c8D3XwqXLOcXf3bvjZF119WhQVubn9VOuxm6WdPSK/Oi4I3ADacDfseRQWi93z+TbtvPZKb9ytzouItl+O34toCA1n3YeC3at7Ulc/NOBZosO1zpVpYI9CxjgCFicvkT61sXL5w3pVoOo8mLdZHmueaxXVZyq8j3i5eF8s/flO4HgAAIEZQBQAAAGhH2sIFfDYbBVT+M0f61cPS3EXSLx+Uzrpbunc6gRVgY4TK5L3PWwYAmlulOHFgwiVfyv2IuwOziaXCoIXJn0/G9eXVG6/Pn1poozDoUMiXy+0vlj9fTCKIWpyYYmUtqzA/Ooqs31d8TPHr5Zdc+XibZG5q+YnEuvbVnNc8zyMTAACwJq4QAAAAgDbAHuEl3Y/81NojzMJyrSlWrrU610fC3UUsWSVd8aI0Y4mr0y2HSen5D6Sv3yv99Wn5wfXNptgf0JFYSxUfnPARlKx/f2VDG6reVrqfrbznbTj3/KCLBQbWDB7Ey/YooPlxQBDYfLzOKll3CgN3TC7ZMcrmrT1cPM3Li1JUzp+TbZPbLl7vMnyymk103C5ZcT9ov5W15DPcGltv9dlZWCDHtnTLrmyQdeVc/QmfFyWfn0tWPupULKrX15dL9kEWBYbcKs/KAAAAtNR0qdBRXXDBBXb12NNdtF3Y0NBw5qhRo9KTJ08OysvLcxdyaI1dbK5atUq333673nrrLU2YMEGHHXaYX8drBwBAaezf0osuukhjxozRkUceqXQ6nVuDbcHaWmzY1ZJdMk2ZKb0wR2osUtae8fXqJE3eXVq+Srp3hlRT667DilxqdXV/Olauf2fpxhelOcuKl7OsvbaTJg6XypJrP0bTWldhFz/s0hNSdZ079oIydoG9/2Dp/31aGj802ifaJrumr6ur01133aUZM2Zo3Lhxmjhxoqqqqvw3+7HlTT78MvemyfgH/A8//SP3Jm1sl/dXUXCi/R13eXlXnXL8te7YLaAS6P9demC0AptVNpv110RTpkzR9OnTNXbsWE2aNEmVlZW5EgCALc0+m6dNmxZOnTpVNTU1M92/69/o1avXQ+eff767A+jYuEoGAAAAAAAAAAAoAUEVAAAAYBOzxh8La6T5K1pPK+qjViL7DpU+v6d0zl5rprP3lk4aK/Wtkob2dPNjorxiZU8eJ/XrLKXcFf5ho1svd7ZLew2OWqlYF17Fji1Otr5YSxYbT+WthdLqxuhcC1ne0+9J97/rznN18ToArEWY0KNP/8S9eawfvfbZ1qu9tnRavXqp7r3/u9ECzewAAEARBFUAAACATez9JdKfX5DOvE360p1rptNvkS5/2rrHka5+STrvH8XLnXW79LPHpWkfSY+9J/14inS2yytW9lv/kl7LBTr+b6r0xbuKlzv3bun3/5UWr5RufLV4mTj98AFp3orcSeVYgKTW7cPGMqhrkDJFHjpaDKUhJd3wlLSgxt108GASWC9hYIO+r1IQJF3KZbYz1v1Xe2Sv+aIlb7s59yFnA9oAAAAU6PC3N4ypsuEYUwUAgI3HmCrbpjcXSN+9T7r3TSmbzGXm2GVSmJFO31f61Seln06VrnpOWl3k+aON6fzxHaTffkZ6Z6H05fulRcvXDGRY0KJfuXT5CdKBw6RDr5Ke/UBqKKjTytk4K+ftIv3Q1fnTx9w2T7ljtPxcGWPHaPveuYc7h3OkId1zK3LmumM4/5/S3191CwXnl6+3u9K+4NPSAdvlMvJ06yT1qopa1sRsMP30WurDpseYKm3P5MP/4t+EDz/x/ab7Khug/crb7pEfYN2y/IDqgXs/W4Qz6bJsgPaoJIqzlycMbDj/4oPP333d5br3n/9yr2f0Gp512l3+pb74d5/wy9i8GFMFANoexlRpXXSF1oERVNlwBFUAANh4BFW2TRZU+f4D0t2vuYViv9JG6bT9pIsPcunf0mUvSCuLPOdLh9I+O0iXHhoFVX4wRXq72t3gFHnWPaBCuvJ46YDtpU9dLf13jtRQcEmWcssWQPmfXaVvf0r66RPSFU8WGWjeLSfd8ezcU7rnrDWDKvNrpK/eI/19un+22zpXT6LMrg2lTK2brnbJHWeYkvbqJfWvlLq79UlXR8b2N1gaO0Tatb/Ur0uuDmxWBFXanmig+nCNoMrDL77h5lJuVYOblinrPkgCVy5rZbLuDWTNx9CqwP2t+4BKK6/T1b/5mW68/haFUXRKZ33uTlc00MW/JaiyJRBUAYC2h6BK67jqAgAAADqIzCb6ErtvTWLPeqPnva1z+8u6W67sajfvyiar3Lxtk5H+O1+6913p2hnSVa9H0x8+LB17ufT0bKnBlQE6qtC9d4IiD//nL27UslUJLVvZoIXLXKEwqRF9umm3IX20Xbce2n27Xho3tJfGDu3ppn1KTmO37+2mvbXH9v22qbS7ndt2fbRjv+7+NRkzdIAPUH20OKsZ7wc+zfwgGwWmCkRdsOUWAAAA8hBUAQAAANog31VXbj5fYd7a4hqF62y52EPCIs8TW2Wb96yUtu8idS8v7YYi3qUNcG9s2bohy9jGuZRKS31c+ttR0mdG0Q0Y0PzOaVZRltXchS4tDpRIhMokbcyVUEtqQvXqknZTa4uRUkMm0OyFjaWnBY3bZADBOvtaVV+vd+Yv02tzlvlWKIH7r3Z1oBW18mnVKmv9k9sAAACgBOtx+7RtovuvDUf3XwAAbDy6/2r/7EFk/vM4C4a8v1S65hXpyVlSMpVbkSeRkQ7ZWTp3D+kPT0eD0Ie5gEM+CzyMHih9fldp4QrpTy/Y34xbUSSS0bVc+p/9pd37Sd+8V3pveW5FgaTb9sDtpdPGSde/Lv3bxkUpUp8ZVCVdOEnq37X5PO0yz6705iyTvnyPdN+MXOuTDWSb9i2Tfv1p6eTx0euHLYfuv9oe6/4rDEI9UqT7L8v3PVjZ1NY1ut9RMlSFe2OH7s0TyMZa8QX8Vq2L32hRGfs7COz3bW/0ogrfmFauZR2FglyZ5p+mZT3WIVf+9oV7yd9Pc9nidUWidfZKRKLlrPswTbjXrCEbqjHT6Na61ykuax+0bt1Vv/m5brz+ZjcffRifmRtT5RLGVNki6P4LANoeuv9qHVfJAAAAAAAAAAAAJSj21Y4OhZYqG46WKgAAbDxaqrR/qxuavzedzwZzb8gWX2eXStZ1Vqcyt32jtNhan7SizF2tDugi1WWkua5Ou3gtVmfS1dmnU9Rt1iJXX62rtxi7Suvs9tutQlpi5Vy9rX05vZP7c7Suvmy1jYNt3XdV10lLa6VXPpT+/LT03Pyo7PqKrxa7paQv7yd97xPRcWHLoqVK2+Nbqrj/Hn3qB7mc6Pc08+f/zC2ZqDVF6Kb2XrJk2/gWLDbvylvrkOi2LCrrS/j1LvnWGZaf9+bPtdCIWBm37IpFfwVWu9tXtKPmeS+qw/JMlJ2bd/uzz5eEL5Kr3+0n2sLYXG7Jjs1mc+fQvC5ajs8tavVixxMtR+xY3bLPsv3YURQeo613ydcTJxNNf+Q+1K674Tolc2d81ml3+1ou/t0BfhmbFy1VAKDtoaVK65ouMToqgiobjqAKAAAbj6BK++Qfwbkf/50j3Tot6pKrsNuqlLvKjB9ArsHlZ12+BV0saLK2Kyfb3AaYtzK2j9bqjMvZM0O/7yh7TW6FlbF9Wzl/3EXq89w6GzDeHlHaNjVu/tVF0kJ3vivrpeUbcTuVcJUmyqXfHiJ9dpzUpSzqmgxbFkGVtufYw/4qG6P+4bzuv+xN+sE5N7n3pL0bbcm9Gb1sFLAI4gCKLWT979UHD1xeVIPbzgcTslHsIcz4uq2eaB+2LqrX57v1vqybD6wuvz5KQRQhcaL9RPt17Nhs2ZXxwRsLyriyfrd+W/sZHXe8/2gfbuKSdVtm+4rrj47BrYoqcNtG5+63sX27OevSK9q9LUWBn0g0jbpJi7YPXP32cCjKi9b5ffoKQp2/oLNuvOEGH28yZ33Ouv8KdPGlBFW2BIIqAND2EFRpXe5yoeMiqLLhCKoAALDxCKq0X3WN0vWvSt+4W1rRzm4rbAz4+JHs2sRXdNEjyYhd5lkgJrOOyz27yHb3YdG8q8DmEympvEwa1kUaO0Q6Y6z08WFS2hUuDEphyyCo0vZYSxULBJQSVLHAgAULonn7aYGC3Dr3xouCBrYiDi5Y4MJ+78WDKs2tVSxgEq1L5Nb5sVrcfH7QY81tbT6XrHxBUCWuP5tt9NtGAROXXDWFQZXoGNxyVIEr1XxscV507lbGlpqDKlHAJLdtXtk4z/6L6mhOawZVrKVKqIsvZUyVLYGgCgC0PQRVWpe7XOi4CKpsOIIqAABsPIIq7Zd1r3Xjq9J5d0sNrXS11ZFZK5hOnaMbjrKUdFR/qT6UxgyU9hgq7Tkk6l4MWxdBlbYnHqj+0Sd/6JaigIBNm4MqcfAgCgZYawprsWHBhkgUPIgDGE23ZrZs2X59FBBJH7CLwoN2zQUYrOza7uOiMtFPE5WNt/CBityS7d7KJXOBi9CHcq1sy3BuGFh+VKZJPJs7lvfn1eaOz32QuHMYeP0f1Vi7VGl3Hommc442ioNN/jWw9fH52PYWgLEDsz9rP+9eg6Y/8SJBFbr/2qIIqgBA20NQpXVcJQMAAAAbqLEhN4MWkknp3L2kR0+XnjhTesqlS46RrjhZ+vpE6RM7SBWpXGEAa4oDC2thARCfcssxH1BZhzh4khncw0dAg1TaJ//mzU8WHfXrkwqSqVyy+eYUl43mrWxCiXTgk+/Tz+WHySCXUi1TwuUlEi65Mi5F+8wlv63tP60Fi+q1fGWj26ZMDeWB0us4R4uhuCOxOZfyy9p8tBz4oKGl4vzrWMJrCQAAOp7WryAAAAAArFXzt5zRJJTGD5DO2UMa20/aubc0orvUvTLq5it+AEx3X0Bx9jDfYh5Rd1trip/zR8/8bSF+8B+9qeKASRx0ieTK5FqvxIEX+whLug8yKxalXKAmTj40YaWaCrj/rbylgrK5/FytboukKx+lhMu31LxtlOL8pvW5/eUn3/4l4eZdtdkwo0Qm8C157Bz82ccvSNPr4Obcodp2Ps8mxpdzCzagVU7ztmuyPbe+FgAAdGTx5UWHRfdfG84uQOn+CwCAjUP3X+2XPYu7ZZr0f1OkmctzmR2cDT7/qZHS74+QRvTKZaJNs2t6uv9qW+Luvx5+4gdqDj627P4rGickTlEAwLq8iuTGDmkamyQ3Lej+y4SW5/aRtECDm7eWI1Z3NpvxQQ7bwHZlhxFtY2Vchr3Z/e5yK62cZbhFq8duB0NF/SIGVsA+MH2+FbBF29ht47c1uW67QgvORAETv972kztW26eFObKpRiUbk1FWdBBOrt6mMWIsP17n2H5z3X/Z62Ldmdj66G/c5tfs/utMP1B9qEsuPTDKwGZF918A0PbQ/VfruEoGAAAAAAAAAAAoAUEVAAAAYD1F34mWRvSQupe5mTijA0u512D3QdJX9pGG9+QlATZc1jf+aGrEUcAacVhLjniaa/zhtNwiKmMrLT9XyFqm5FiLDhvI3TrZ8mOb+EHjHWstYnm+hYi1JrEWIm7e7Shw5awxSyK07rqimu2hgtVh9VkjEZu3g0tYF2CW59Zbvu/Kyx+zy/BsH7bgUhB3tuWOz1q0WGuYIBOt9xtbWavX1dqY9vk++Xpi0VLTurjJSe4Fio7D1ZO1c3JHY2O5WP2tsVVrWQ0AADougioAAADAeooezkkj+0qp5meUHZqNJ33wcGn/7aPXJvc4E8AmZgGBWDRv3Xk1P/2P56N1a48MtBZUyN+HiZcL91NYzt74Ppbh8ovVbeUttTzGWMu61qg7J96vX++qaW0/xRQecyvFAAAA1qrDX0IwpsqGswtSxlQBAGDjMKZK+1bXKH32dume16T6XF5HlMxKu20n3X6SNLy7XSfysLK9sGt6xlRpWyYf8Rf3e0no0Sd/6N5IUdTW2mQ8/OIbfh6bx9W/+ZluvP4W+XFmnM9/9k4F7nX/f7+f6JexeTGmCgC0PYyp0jqukgEAAIANlE5KJ4+JLqotHNYh4wihtP9Q6fefknboHmURUAE2Qpi7TS/2PvJ5SR+4NNbFlT34tx6uWkuRaKZpsV1zr497AeJz8ee/jmRnHr+cLToNi19IAACA9UBQBQAAANgIO/WS9t1eyobbygPL9dOni/T5vaT9rNuvXB6ADdfcndWa76ggm1WmMaPXri9Xw2p3Ox80+sCKbdFaCvxYJFFd9tPGQhncq2u7TYN6VKoslVSvTuUas11fjRnab91pu37abWhv7b59X+3u5/tot+36+DFlWuV/D5YAAABaIqgCAAAAbCD/cLKbdMCO8q0zUmt5PretsXPt6e4mfnawdPTHcs8fAWwS9nliA6oXanTvuef/WqHX7i3Xg1/v5Ap20mtvJPX6G4lW02uvJ91nVVxXoMqyMvXp0qndpF5V5erVqcxNy9TbUrdO6t+9SolUynfVZf/JD6Rvp+d/uElhCvXBIpcWNujDJav1weKMkgkbmL/1RyK+bj7YAABAEQRVAAAAgI3QrUL67n7StyZKZdv48zcLIiXcOQ7qLF10qPTej6Rz9nCvQaXL584C2CQCe5MpVJAb2yNfIpvQnl+u1cd/s0qf/vNS935s0M6jGzV6dKbVNGp01tW26T6cqqur/ZgX8+bN0/Lly3O566cxtBY27qjCTDTNhMravJvWh6sVZhuVdfOLl6/UDf/8UDfdv1Q3P7BEN7l0878W6+lpNb6eRDbQjfcv0C33L1KjK//+vDrNWVCv2fNbpvcXuP1ls3L/K+NSVaqE18MVsYAMAABAIW59AAAAAAAAAAAASkBQBQAAANhIFSnp+I9JvbpKpXwBur1KZqXte0o/OVA6by/7tneutx0Am8zaepxKBhnN/TDQ0upQs94qV6hGvf56aq3pjTcSCjbhrX9VVZV22mkn9e7dW5WVlbnc9TN7TrWuvXuObrhvka6+e7auvWe2/vXEXNXWZzR/fqPueOgD3fCvBXrgiZUKUmVFW+2YrPv8OezjffTx8T0UuFMc2q9cQ/qm/bS1NKRvuXp0dx9epaD7LwAAUARBFQAAAGATGNVX+vkhUtdK69F/25MMpQOHSb8+TDpjL6ky7W4muJsANgPrFsu67FozkBCGZRo4KFTnLtKIERlXIqHRozIatZa08yhXl0UfNpFUKqWysjI3F/r5UlgXX5lMRu/NW6Fr7/lQz74qlVVUKpFMqLyiSmmXlq8o012PLNXjL9WqvrGzkin3ARME7nMmGX3YWAQ3l8Lcp6yNlVJRLvXsnlJ9g7SqIavahlCr6jOtprr6rBpcmXWxsf0ZUwUAABTDbRAAAACwCViQ4bCPST/+tJsv07YTWAmlbinp8+Olnx8aDUpP6xRgc7I3WOD/W0O20eduPyTrW2YkQzd1b1K7sfdTtzIv9uCTDbge+nFaNq2m+m1MlHhsFEvuPwtG+DFS3LRmZb3+89yHuuHej/TEi7VKpcpciWid+9GUbOJmfL4FleL8YimwqZMIklqwNKOFyyw1lpQWLAs1b0nGb79WuX0AAAAUIqgCAAAAbAL2/K1HpXTcTlHgwboBa88X23b89h30kd2lb+wv/epT0p6Do3X24BbAZmJNJCwVCapkk1LV7BXq8eJ89XxhoZsucsmmC9T9jUXuc2hLBgLyjs8GnleDqqvr9cTz83Tjfe/q+nvn64b75uuux5bqg8VlSqbKc1u0coxrnm7r8squz2bGgj6lsHq35KsJAADaD4IqAAAAwCbgv7Xtpv07Sf/7Sem4cVKXdPO69sS+1D6oi/S58dJfJ0vfnSh137ChEwCsLxs/xD4zinxuWOuVldt31dI9+mjJHv1c6tuUlo3us0U+bKwbr4y1Qslm9fz0+brhn7N10/1LdMe/V2jqczWat7RMFeXd1Kmi3E3TqkinVJZKqrwsqbL0pknJZPQoI2stWhzrDqzUFLjPt1QJr5PFp9rZRzcAANhCCKoAAAAAm5B1/b9TT+n3n5FO3lNKZ13emkMjtCnJ+MlhRkrVSvtsL/36UOm3n5Ym7iCV25AGPF0EtojmxibF33SW279bZ/ee3DrtKAL3IZetr9eN932gN+cklEhVWabq6jOqb8hukdSYcefuXigbgH9o3zKXUtquxDS0X5kG9Un5Vj1ra9ljXZDxsQcAAIohqAIAAABsQvYQzr4E3btS+stnpPpfSE+eJ315vDTABrG3AMvWeRbq+YeEtv9coGdML+lre0mPnSvN+Z7U8Gt3vOdIk3eXupVHZQBsQe5N6h/4F/mgCDI2gH2gzp0qFGZDJd1/FlwIw6DVFFVTPLJrMYU4uGDz9Y0Z3fqv93TN3R/qpn/N1zV3vqUwE6q6pk433/OO7n16kaY8tURTn6/V9kO6qHePhHp0S7lUpp7d07n5zZ86Vya1sGaVXnlvoUsL9Mq7CyrIz/AAAEnwSURBVDStxPTKu/OjbWYvUtZ/IBcXvzYAAACFCKoAAAAAAAAAAACUgKAKAAAAsJntNVD69eHSTSdJp4ySkpXRIPA2GLxJbaarcqvXt5xxKe32FQ8+/7Fu0gkfk356kHTb56SfHSodsJ00sKttBWBr8q3J8qYtBCmFyuihZ5e4+awarAWK/xyxFhfFk/8MyNo7f01Z1SsbWCuVrB5+5l3d/MACl1OpdFnaV5uu6K7r75+v+x5dpmyqs6qXZrWkOqOl1Y36YH6oxW55aXXDFk8rVzWoMp3WLtv10K5De29QGjWomxJBMnohWpGlpQoAACiCoAoAAACwuQVSeUr6xA7SHyZLD50q/fgg6dBR0uCubrUFOzK+2EaPXWLb+3pcnUGj1LtM2rm3dMho6dv7StedIF11vPRndxw/OFAa6dbZscXbAti6LBRikZJiz/ODoEFzPwy0YkWgt2am3Q19o15/M6k33mg9vfa6e4PbB4JxlVoAJRtmtLK2QY88tUDX3/2+brx/oeYt7axUIumKxh8EgR2FkomEwjb24WBn07kirVQy7Y4vtc6UCBJaURuqplYuJVTt5svSZf6ztzV0/QUAAFpDUAUAAADYzJoeUbqZbpXSJ4ZJP5wo3XyC9K/PStdOlr55kDSil9S9TurSKHWqd6lBqspIZVkp7aaWLPiSsmWXOrn5Trmynd20h5v2cNuMGyj9zz7SX0+UrnZ13+D2c+tx0i8Ok07aTZrg9t+jk5TM3Q3YcQFoG9Z2k54Jkuo3IFD3bgkNHe7e9CrTqNGZdSQbhyUK1SjIaOHSOt354GLd/2S1qmvLVdW5syrK0yorS7iUVFm5SzZ1qTw3bUsp7VIyaR9apX9w2dgyXTsF6tIp4VJG3Tql1rn1+u0BAAB0JB3+GuGCCy6wa9aeQRBc2NDQcOaoUaPSkydPDsrLy93NJZdQa2Pf3Fm1apVuv/12vfXWW5owYYIOO8zdqTu8dgAAlMb+Lb3ooos0ZswYHXnkkUqn07k16AiyYXPrkGX2Deo6lxqkRSul9xZL82ukFfXSapefyUYX71n3w74/XZZ0KSV1LpP6VklDe0p93LTc/QlVunWVLr/KpbgVin3pmks0FLJr+rq6Ot11112aMWOGxo0bp4kTJ6qqqkqJBN/B2xqOOexP/s3+6JM/dO/Z6HdgLUYefvENPw3dZ8HSJWn16FXvPj+SLifq4qs1YZhw9VhQJZAft979ztv1R4F9ALoPsz5dqzSoe6WbDbXww6x6DUo3ndfazs8Gp0+ESbdd4Aesz+YCTlf/5me68fpb3GsULX/uxJtdPYF+95dJfhmbVzab9ddEU6ZM0fTp0zV27FhNmjRJlZWVuRIAgC3NPpunTZsWTp06VTU1NTPdv53f6NWr10Pnn3++uzvp2Nr1tdSmQFBlwxFUAQBg4xFUQcwCLHYJtTFXUXHgxKb+uaMlLsuwFgRV2p5jD/+zD548+uSPmu6r4qBKIsxozocJLV2WVHk61I47hXr9dfs9rf2NvrNvrRL6+kYO6KXKsg373cafK1uL7b96ZYPeXbhEfbp21uDulbr6u6HeeLRBO45P6aw/JzV7fkbJuLuzIsIwqe36JPzf99qDKjcpCAP97q+f8svYvAiqAEDbQ1CldVwlAwAAAG1APBbKxogDKDb19W1shQC2OAt0KXS36kXewGFYpoGDQqXS0oidGpQNA40a1ehSQ6tpl1Guvmx06x9kQx9QCTOurkyorFted8qqsbHB1VGv0M0XL9MyWd1hY9btxO3UTYqVaT3ZiVobkcQayX72qCpzP6PXJqOkjvt2VuXJUIec60q4121Ir5QG9AxaTf17lfbh6H8NfIYCAIAiCKoAAAAAANCW2AjqFpAokE1kNbR3N534qd4aPaifEplAr72ZdCnRapruUui2y2cxhSBIqpT/bJD3VNK6GUu7bcK8Na3/Z3UHiVR0Cm5f+evW9V/W7SPMtR5Zl0SQVbZTUh/7cY2enLtENz6wQLdOXajbHlzaepqyxAd61iUbWoCntOMAAAAdC0EVAAAAAAAAAACAEhBUAQAAAACgDbHB6IsJFOqDJStUs7Jeb89dIqWyvnuvXUap1bTzqEa3ZctmL9YWxJprWIuQdSX3wyXreMv9F0YD468rRU1Bsr7BjctYY/3aku/aq+XhtiobZlRVHugTe3TTgSWmT4yvci9kJlfD2iXoQxEAABRBUAUAAAAAgDbCj6myFlm3+t2Fy2RDlmyoZbUNmrdileYvr21zadGyle5FKC2YkQrKlEoFGtS3XAP7lZaG9K4sKWhjRawLMAAAgEIEVQAAAAAAaCMCP+CJ/b/m7XoiE6p8Ua06z1qmLrOWqqubxqnqwxo/HkkpZi9cpnlLazR32Yq2l6pXuvPIHei62OsUJHyLkpZD2q8lJS2lchWshQ+oEFQBAABrIqgCAAAAAEAb4RugtPIsP5MMVNerQtXDu7nUNS9104pBnZXKlBqN2DZYN2ZRV2axUoIgpQdK1tVqCAAAdEwEVQAAAICcrfX4jMd2AGL+Jj2wUMGa/XslwugWftHCpJKyEVYSrmiUEmGgrLVysa6z8pI1XglsfhsUhllN/dtKfX+vOt16wWpl3fLs+XV6b2F9q+n9Bavd67buMVX82C48MgEAAEVwhQAAAAAAQFtigZDcbL4gaNBHHwVasCChmTOSSgSNev2NhEtBq+m111Nuu4IAjcVb/E7aXrIuzpQtbSB5Cxptv4vUqIz67Rj4MFR5WVKVqaDVVG49f7ldrIsPaoUlHgcAAOhQCKoAAACgQ7NBn+352uRb3MXx96XfPi7VNbr8Nb8kvlmU/VQafYn06FvRsbQV9e41uORZ6Y+vSLOXbr5j+2CF9PvnpJ8/IdXU5zKBDizqcspSy9v1MMgqEwYaNEiatH+lhu+UURCWafTojEbvnG09ja5T1tpd+FYuoUL34bbb0P7affsBGjO07aVdhw9QIpX2AZL8lAmz/rUJQ/fhZAEYl2uvyYDdyrTPz2u1uG+N/jF1mZ58rlpPPLe81fToCyv9B5q9zGHCvTK5lj6he41ajOVi64uGtgAAQEdHUAVtXnThvO0lAAAAAAAAAED70uG/dnHBBRdYYKlnEAQXNjQ0nDl69Oj0scceG5SXl8vlRYVQlAUGVq5cqdtvv11vv/22JkyYoMMOO8yv2xSvnYUdrJZtNQBhr5GdG39nANCxrVq1ShdddJHGjBmjI488Uul0OrcGW4q1wLB/jk/+u3TbM9Kvj5LOmyCl3VViYgt8BWnQLyR36amrjpQOGOH22UYuDTJZ6RdPSJ06SccNl7brsXluHuavlG6ZLtU0St/cR6qwrnmwxdj1aF1dne666y7NmDFD48aN08SJE1VVVeX+/vkO3tZw9Gf+6KePPf1/7rPJ2mg4YVbf+ckv3OdVoJ6dy9W5okKNjY2at3SVPpi3jnemtW4ZmHV1uQ8798Ye3Keblq4MlbXmeO3oVsQOv0fnwP1dhpqzqEZVleXqUVWuuvqsXn6z1pUo7b7Rxp2ZsEuVmws0Z8mKppfgiSn/0JNPPRe9Ts5Jx1znX58/X3G4X8bmZX+Pdk00ZcoUTZ8+XWPHjtWkSZNUWVmZKwEA2NLss3natGnh1KlTVVNTMzMIgm/06tXrofPPP78uV6TDakeXUJtHflDFXZT6oMoxxxxDUKUEdgNmFz133nmnZs6cqX333VeHHnqoX7cpXjurf0XNSn00b4Hq6+tLvERuH+wGtVeP7hrYv28uBwDQURFU2frac1DFro825KrLvrOyrsu1wqDK0B7RdvmK1VHKMcXVWLliQZVS9oNNg6BK23PUp//gPgeSeuzpH7s//lxQBVvcicde4z6jEgRVthCCKgDQ9hBUaV2Hvz3JD6pkMhkfVDn66KMJqpTAbsAaGhr0zDPPaNasWdpjjz206667+nUb89pZvbb9q2/O1GXX3qonnn3BB1fs9rvwBru9sZclDAOl00kNGzpEXz3rs5r48X1UaU9SAAAdEkGVLceCBEl35beqQVpZLzW6ZRuwuEuZlEpKx98i3fn8mkGVeDvbxra1f89Tbrmb++d7bZc89iVw297GCal129n+Orlfb9fcdnZdY9O1BVUs4GPLi1e57SqiYypUl3H7cLc19W5qx9XLnj+5bQqDMytcGTuGHrnnU3ZMdj6WZ9v1cPXnb1csqFIoPr6NUUpLlfh3gE2PoErb41uqhAn955n/de/J6AbIfk8mvs/KX47vn2LFlk3+tsXmTbGyJr9MrJRti82bYmVNfpnY2rYtVk9rZU3htoVl85ctqOI+4fQXgipbBEEVAGh7CKq0rvmKoYMqDKqMGjWKlirrwS48V6xYodraWnXp0sXddLu77o1kdWbcnfNv/3q1/nb9bVrtbvJMWTqtZDLpfi9+sd2x6/fGxgY1NGZyy6EOmLCnfvzNL+tjO+7g8wAAHQ9BlS3nnSXSrS9LD78lzVoa5VmQYuxA6dQx0rUvSf+YJl1cEFSZsVD69dPS63Okj1ZE23VNSaP6SZ8bKx24UxQsydfg/rmf9pH0l+ekt+dL71dH+VWu3K6DpC/vKe0xNAogFAuqxK1nXvxA+uWj0psLpON2kf5vkruGcPXYdcUcdw73znDn9II0vzbaZ7k73tF9pUNHS591x2ZBI7OoRvrGXe4c3Dbf2t/Vt0h68HWXb4GirNTP7X9wZ+kXR0g7949uEuwYLKjiLr90uLtUWdWY248rb3pVuXPpKfV2UzseY0Gap9z5JtzyPgPc6+L2X3jtVufqecaVaXTTPd1ruMJN//6qVO0u+b40PhoU/4NVucKOBVO27yLt1NtdD7pjwaZl16QEVdoWa6lib6kP5l/rfj/RGy7hPhjsfWa/LxPfq9py/rwpLBstR19Qi4oWD0aY4vuJty1lP9FyYdlNuZ/89esq2/KYLKf0/ew97gIlXPk/X+k+nLHZEVQBgLaHoErroquIDoygSttkLVO+8b8X6YFHHnMXt0kN6NdH43bdWb1793Q31u3z5i7jPohmz/lQr7z6hpYsq1bolgcN7K9f/fhbOmCfPV2JIHehDwDoSAiqbH72eOyhmdKPp0jPz5US7iXu7FKqs9S4XL4liQUQMu4SI+FuDy4+Igqq2AP8e6ZL35gqzVnslt36Tm6boFxqcNvVNrry7t/uHx4offMAKe3K27IFN658WvrtU9L7rpwFNsrteydunyvdsgUTkm7+2qOk48asGVSxy4EPXLlrnpH+9Jy02B3fwArpwk9Jn9sjOqG3Fkln3OHOZ47b1u23rNLVWSbVrYhaddS5vMlDpb+cIPVw+37HHf/hl7vtVkb1N7hj6Oz2Wdklt7xaqnD7ueZUadLI6PWw54q/eDxa19mVq3evTdYKu/pDd472qLdLN2nvvtK+bl9Jt+79pdId7rWud3WdOS5qNVN46bbIHcNtb7hprXTW7lErGWupsrha6t1VWho1UI5uVNzrlHX76uTq2c7t64gdpSp3nth07AEyQZW2xYIq9h749Z+OdPcH9k6zh/1xAMGtiN4dbs7l2dTeL3nrCsvGQQLLWp+ytmziMsXKbor9xGXjMsXK5i+bKK9529bK2rLJLxuXKVY2f/nXP39FoVv+yxUEVbYEgioA0PYQVGmdXTF0aARV2qbq5Sv0le9dqEeeeEZ9+/TSZ48/Wp/Ydy+lU6noaUU7FGZDLa+p0T+nPKT7HnxEy1esUN/evXXxBd/WQfvv40oQVAGAjoigyuYTPUqLHvSfe4f0yLtRa48v7i3t3C9qJbKgRvrHDOk7/5Iyrmy4Svr1MVFQZeYi6bM3S68ukI7dVfrRAdKgHlFwxbqsum2a9OPHpB6unv/9uPQ/B0b7e+Rt6Uy3v7mu7pN2k765r9uue9Ty5d1l0r2vSdM/kE53+zh0pyioUlkm/eZwab/tpL+/KF3zkvSC2+92VdKRo6UvuUuFHXpHrTamz5OOvj4K2IzvGwVbdhvgzsetW+Jubx57zx3Xg9KH7hhPGiP95Qh3nq7sYX+TZtRGQY5PjZC+t7/brr9bdse8xOVb92A7uvri7rfi7r8aXL7td1QfaR93fBYEsXUzFksvz3evmVv+5DBprNt2jju/f74vrXb7Ps3tu1hQZd4K6Y433f5WS6e616fM7c+CKkvcNomkNMK9xnu7/VS5+Yz7JVrw5XH3ei1z0z6uvlPc78K6UMOmYQ+SCaq0LT6o4lzy+8P87ycST+Mbhvzlta0zG1rWbOi261PW2PL6lDW2vD5lTenbXvqr11xOqL9ceZRfxuZFUAUA2h6CKq3jKhltWtLdwe80Yrj2HLubOnfurHRZme8GrD2m8vIy9e3dS5/Ydx8NHTzInZ27WCeKAgDAZuMfmWWlw6+SHpwpXXO0dNPJ0gE7RF1XVZVLw3pJX9tXqvk/6eDton+arcWJPcD//v1Rt1n/PE26zW03ZnDU1VXXSmnH3tIPD5KqfyDt1E36+j3SHS9J0+ZKP5jiG1jokbOkq4+Luvvq6bbr4raz4McPDpZuPiMKqHhun7OWSSfdJA38hfRFt9+uZdJKd0wzvyv95sgo2GGBjeWrpW88IL1TLQ3pIu09VLrfnduvHpN+8oj0h6ek6R9JR4yMWtrc/4Z0sctL2vdS3LK1arnqCOlf7pzsdejeye3Lpe3d67DrwOaASj57nnXcztIJu0nbdXfH2NXt200PHu5eu72jliQPz5bm5rpG21BVtp9R7nXYNQqsDHD7Gexe2936SV8dLx3mjnf+Uum+d91r02A3ebkNgW2QPd5fvXq16uoaiqT6InlxfmvrSkmF266trlLLFstfn7KFaWP2U0r9capXxv4B8c3zAAAAWiKogrbLXb8mkgl179Y5963dUNbPrbUgaq/JdK6qVGUlX68EAAAAAAAAgPaGoAraLvt6VhgHJKKsfNYUvl2k3PHG4uAKAADY/JasjgaRT5ZLA3pGlxeFbPwQa53Ss7O7OHb/TFtrDmt1MbfaLaekIb1yBYuw7bpXunrdPmyckpU28Hud1LnC1eO2Lba/YqyBSHe3/xPHSh/rLj00RzrtVmnecrvmicoYO9bGrNuvm77nju8P/5V+92zL9FuX/vqyOx77goo7rr42nkuODWQ/oCq3UKIydy52jrbvQvZ69Sxzx1hiq5FiddilkQ2Gb9Nu7vdkLXLyxT2/lrtzsTJWRf5rAmyrMplGl+pz0zg1tJjPZjN5y1a2cDmez9/O0uqC5cJtW+6ned5SnUut78eOqbGx2Lp4uXA/cf1R2eZtbT/xvKWWx9Ty3AuPsXA/+amw3sJjbHDHkFFgfRsG1jEkAABASwRV0G4l3F219fPc1lPuOQAAANgKelpwIyll66RH3yr+MN4e2i9eJc1fISV7SBVpqX8XacygaFD5qW9GwYBiz/E/XC5NXyzZWNIDe0t9q6Tu5dIrS6W3FkRl1vn83xXYoZv0t89I102Wfn+UNLqXdOdr0s8ekpbn9VhsXXr1rHTH5Y75kO2lO06QbjxGuvvE5nT1EdJVh0tXftolNz1rnJRx52HddG3o40EL5MTBjbWxgIi9xqvc/mzAfncp1ILVUW8HkdfNWCd3Tslcd15LV+cyi1hRG5WxMV38d1RKOB6gvbIvZ1lwocG9kRob7EF/tinZA39LmUxUpnnZPrOisvnro+1Cl6Jy0bqgYDm/7Jr7aVk2Dvjkb2vTaD9RPc1lWx7j2vZj9dq0tW3j82reT/O65noLl/PrjNat69wzqqmxD94sAVwAAFAUQRW0SzWravXqm7P03Euvttn0X5defnWGFixc4i/OAQDAluWfhQXS2XtJ/bpIlzwpPfWu/CDrti4ek8PGT/nWP6Xn5kgTekr7D43Kjxtgj9SkCx+XHn87Chb4FG3mB6v/3n3RYPeD+kkje0djk4zs73bbKP38CemVD6Kytl3cSmOR2+5pdxz+mV1Og7sq71welTlohPSTQ6SPubpueFk6+AZpsdvG1lWmpcO2l1Ju/qUlbkN3fieNc3k7uzRaOtxNP7unNN6dwzFjpCPcsrXU2VL6d5UqGqRGd3yPvR8dc3zesdnuXJZaAMuCXW6dtegZ0Cdq4fPqAqnWbW+b5G82373Gz8x127jXqG+ZOye3TSlBHqC9sr//v/zuFfc5Ve8+s+IAQpSagwRrLrc2jVN+2cLl9SnbHJAovq0NbJu/Lk7Fyuavs7Sh27Y2jY61ZdnC5fz8hsZ63Xz1h/63EAQ8MgEAAGtytzId24EHHmi3Y5VBEBwUhuHYPn36JEeNGhWkUil3AcWd2tZiAwP+69//0fsfztWOOwzV7ruMVkWFu4t2smGoGbNm6457p+qFaa/74Mqrb77dJtObb73rLsVDDR08wI8LYzdHK1et0rMvvKwP585XVVUnHfKJfTVsu8FuTfFuzgAA27aGhgY98cQT6t+/v3baaScl7UkzNgn/z6r7MaK3NH2u9Npi6eE35buqsoDK+9XSm/Olix+Vbp4Wdb914SHShO2jbQd3l16eI72xwG33rtTJZVpAZs5y6dUPpR88IP3rHWm7btKfDpd2HxQ96N99oKv3I+m5D6RnXEq5vNpGt53b3xOu/E+muv38RxrZKxq4/jePuzIp6aidpKE9o9Yeo/pKw9z+n3bbW6BhlksHDIsG1x/Zz9U7T5rt8h50xzVrqVThtlm0yh2rO58f3i9d8Ji01B3nJBsM3+1/qVt30wvScnf8J+4sDe9jL87aWSDo8fflrmGk0e64rAuwQlbmJffarnbT3VydXSukHVzZ92ui852zzF1ou3Ord+dvwaTn3Ovy2Cz3Ota7c3Z/6mP6Sz1cvV1cmffcNrNd+bdXSGXufOy1toH533Z5974mrXB1DHevy0FDo0AMNh17oPzmm29q8eLFGjBggIYNG6aysjLuh7aSm2941n8Grapt0DNPzFO//mXq0q3CfW7ZnUXogyzZbBAtuw8zm2bsRsO9IX1AwiVr6RJNbdnKRu/XaFtL0eegn3f58eeiX++W4zK2jd1/Za01h8vIuiMLZN1lRa04bH+2r8Kp/U3ZfH5+frI8n2/HFNS5vGjeL7u6o2VXh9/Wytqx5fL9uigv688vl5fLj5Ott8Hm8/N8Kijr/vflGt0H06w36nXfXQv9+dqfv71+Rxw9yv9esHnZ34NdE82aNUsLFizwn0XDhw/Pja8KANga7LN5/vz5euedd1RfX7/YXRtO6dSp07v3339/Jlekw+rwV8kXXHCBffWkp/ujuNBd+J05atSo9DHHHBOUl5dzE7EVVS9foa9870I98ewL+vTBB+j0kyare7eu/s1sF9MPP/6cbv/HFNXV17fp35Md2/jdR+uzxx3ujr+LD6osWLhIl152tf774jT17dNbF//4Wzpo/32stL9wBwB0LKtWrdJFF12kMWPG6Mgjj+ThwWZgD+dXNkjn3Cz9/R2XUe+SXQGWu399bcwSGxMlJd13gvSp3LMzC47YdgutNcpd0vVvuEz3D7kFPAL3K8rUuOS26dxLuuso6ZMj/eqm1hPvLpMufkS68nmp0d1yBLmARHKV3ZxIY4a5dUe76QAp/VNpRIX0l2OkA0a0bIFhXZZNvk5yh6mT3bFde4qbcdtbd1yXuPp/+rB8a5qs/dm47QJ3bnY9sX13t/4z0pGjo/x3FkqH/U2a716HW915TrL8dbDz/8UTUqdO0nHDpSGuzsLWIe6yTFe+IC1z53iqq9O6TbMyH1ZL974nfbDYnXMy6rbMAkt2fGl3rvaadCqTPrubNMhtY6w1yt2zpI8WROdgY7nYg+LV7pgtMDVmsHT4DlFd2HTs+rqurk533XWXZsyYoXHjxmnixImqqqryXdliyzviU5dG9zgu2VvOPjOs62P7jAl9tsu3Bf+mt/+j/0KfGbiPN9sqWh1NcuWs1YXfzuajqV/r5sNchlVhQ4kkXb7tN77Xsv3G9Q4duUTde7o3dJj0fz+xprIuz+YL1xUrO++jKi2d390t562z/gEDC7xkcuX8GfhDz21WwGVG/0dLRQrFefGxRXJ5buLP252hnWPox1GxV8A+XaXLrjnWT7F5WbDNrommTJmi6dOna+zYsZo0aZIqK4tE9AEAW4R9Nk+bNi2cOnWqampqZrp/Q7/Rq1evh84///y8NvcdE1fJaHfs0jfZYgRTu7xuiymSSLgL8uJX/wAAYAuwy4bOZdL1n5P+fZr0y0OlT492abh03v4u/1hpxpejPPsXOw4c2HZ9O0t/Olm6/3Tp55+Sjt1FOmRH6csHSLecJL39pSigYv/U5wccrJXJrw+X7nP7+/mkaF+Wvu72d6c7jntOlXbrH5W9wOUd7erdbVD8iC9izx/3d9v84yzpxF1d2j1ab/uyAfK/eaD0xBelX7nzOXaUdOgI6Yzx0l+Pku51+7WAir8EcfX06yqdsLd0lNvPTrn9ro3t287/oO2lUb2kPu51yD82Y1c79sx99yHS6N6uTFVuf86gbtJkdzyT3XGNH+jq6BN1pzbJLZ/uzuUTw6JWOl1tkPvcZVM/t4/T3DGf4s5zwg7RNrv0lQ52x3DqbtJn3DYEVNARxPcO8XvOL7pkU7sLCnxgwJbd1L8Ts5bp/g98cCDmZ+Nlm/o3W7StiVZFP32dufUJN4kCIM3J9hvP9+pVpc5V3XzgrXPnzrnUxS/HeTbt0qVLU8ovGy9b6tE9+iJBfsAlVKNbtoBG7sR9nkt+Ns7LT/azedmqilNhXtSdV/N2Jn7NLIgSKuOm9l8UUAEAACim+Uqig6KlStvUWksVz10NfzR/kR578nktr6mJ8tqo8vIy7b7LxzR6p+EqS6f8zQAtVQAA+WipsnXknqF5pf7zm7+N2VTbxevXVp+VWdf62MbUU0wp25R6fOuz7w3ZBuvPHmbTUqVtOfLQ3/up3Y/ao/34t7Dm/Wnz/YNf1/RGjEIM8ZaF28XLreWbluui/WR98CbQ8af0yuVHbF0UwFh/9XWhptyzKrfUvN+1HZux5ZatTornmXi52LpYa/nmb9dOzs1hc6KlCgC0PbRUaV3rVw4dBEGVtmmtQRXH3tQ1K2t9n6ttmfWLX1VVqbR1lJ4zn6AKACAPQZWtI//5X6n//BY+M9xU28Xr11aflVnX+tjG1FNMKduUenzrs+8N2Qbrj6BK20NQpXD/xZcJqmxbCKoAQNtDUKV1XCWjXbIbvK5dqtSrZ/c2nWwclfyACgAAaBvs8VmcSpW/zabcrrX8fKWs3xT1FFPKNqXsd333vSHbANsSe5BhXXJZMMDYNJ6PRMsWePH5uTeMjw+4FAa2Jrculhc8aFlXS7aueX00DdzUxnaJuu7q1DTt1Cmej/Mr1blzYV7x+Z69urjjz9Wf94aPuv9q1vJ4omULhMR5NrXXK2YD0MfCbLRtXD5/m1hr+QAAAMUQVAG2NC7SAQAAAKyFPdiPW08UtqLIDx4UrjNxgMDWuLkoLze1e5E4aJAflDD584WidQkfoIjHRrHASOfOlrr4IIrN23gpnTt3VadOVsbymsdbiZajsrbcpYvV0dwKobXdW7ZPuQKtTWOF+Vn3Qth8frm1zRcmAACAQgRV0GbZ/UFgI76669hMJutSZttI/iYo8N/yshQ3zgcAAAAAe5CfHywpfLAfd8sW5yZaefBvuTaYfdOC+xHXFQcaTH79FrDJX7b5eNmOKJUMckGRTurSpUpdfNAkCpJYUCW/pUoUUImWC8vacmc3repcaTt1+7B7pHhflvJalbgUvxrZbLS+sCVLobi8bR8NwB/NFyqWVyxQBQAAkK/DXy0wpkrbtHjpMn37J7/U6zPf0vCh22mXUTupoqI8t7b9skv2latW6YWXp2vuvIXq3auHfvA/X9J+e42PCgAAOhzGVAGwNdlDZcZUaVuO+NSlubk1H/DHyza1e4t4bYt8CyTkli30kHT/maZ1CQs0JBRambyyYSJQ4IMWzYGbfEGQ1PCR3fTJQ3s31RXLVdUkf3nNsnnLYaBrLnvXzdj+mo/FlYp+Ni37or7ewGacYvXGfBG37E61OLeuuXQk3t6/Rnl1X3H98X6KzcsCeoypAgBti302M6ZKcVwlo82yS9qydFoNmYyWVldr0ZIl7T4tdmmZOxf7ZlVZWVrpdIqbVQAAAADrlB80MPFSfpuNOBDgp2FCCZeUG1vFWAsVy/elcsGDmAUgbLlwP8bysspo4NBqvfPOO5o1a5afxmnWrOb5wuU1y+Ytv/u2dt3D9meBn3i//iBzyUQtVnyjm1zQJ87Ll79sZeMAUVGubLHt47zCdQAAAPnWvFrqYGip0jZVr1ihr37vZ3ri2ed16CcP0OknTVa3bl1za9sxd3G+YNFi/f5v1+i/L05T3z69dPH/fksT99/HrbQbmKgYAKDjoKUKgK3JHh7TUqVtOWzS7/zUugr2j/b9PULUssLyjOXbb8em1uLE/6Zsnft92n1stD5qoeIjDGHevUZuGtUYLeTf+8bbR/PuhzX7SIQav3elBgy2FhzNZTee34HefVua9WaDm7OjSjQda9NxWZAjiM84OvL4GGO+qC9jJYqLz2191tNSZcugpQoAtD20VGkdV8lom9yVbPRNodyy46+R23vK3RTE34Ky88s7RQAAAAAdnL9vCAPlhhnx877LKzefzWaiTLdsDTHsfiJwBa0lfOjX2XzG1eGmsiCFS25ZQaObzyW3HIbRvOVH6xryyjS4+5ZGl7L6zDF9dc5Xd9IXvjpS48YP1YABgzVg4EA3HaiBAwe7NCRveZDPs+WBrpwt+3W27MrF65rL2rYD/PJ+BwzSaecO0+fOGaLx+yXdEayWjavZ2BiPSxnmxqjM+tfAxqm0ZT/vpy7f1tm8L7eW1Njo6m0sus7y4+3jMgAAAIUIqqDdcvcP7UJ+YAgAAAAAAAAA0H5FX5vvwOj+q22qXr5CX/nehXri2Rf06YOj7r+6F3T/5WMVuRYfbZX9DRX+Hc1fuEiXXnZ1rvuv3rr4x9/SQXT/BQAdFt1/Adia6P6r7fni5+92P6Mbg6ijKz+TE4+PYr8bl2ktWIKo9Yr9Lovdw1orDmO/z8J7p7h88XuqQNlMUolUwvcgJt+yxcqmosOxVi5OtOwKBNZKxookc+usqzC3rZUOGnLL+dvaMadzy3YO1jrHlU5Yi5OEEsnmsWCKnVv+MRc773WJt1/Xtn+56sjcHDYnuv8CgLaH7r9at/5XHtsYgipt07qCKqtWrdbzr7ymj+YtbLpJaItSqaSGDR2iXUaNUGV5mc8jqAIAyEdQBcDWZA+WCaq0LV86857cHNoCgipbBkEVAGh7CKq0jqAKQZU2aV1BlTfffldX33S3Fi1ZZl9warPsb2jY0ME67YQjNGRQP3fTKi1YRFAFANCMoAqArYmgSttz4jGXu5/uxiB3b2ATu68o1lojWhsN7263Rc1r3VzUvKRArnx+PTZvNyq5vLw1TZrzbD/2nw0nb9u4rNDluW397vI2tmMqqiA7OvboWKNVcYF4Gp+H3S9Fef4I/P4KKvNlcwfiV7kfTeeWy8/9jJdsaj+j1zhXNM/VN56Sm8PmRFAFANoegiqt4yoZ7Ypd5NrNRE3NKlUvX6n6+gY1NDa22VTf0KAVK1aodvVqf9wAAAAAsDYLF33g0hwtXDhHi/z8B1rg5qP8wuTKLP5QCxd/4KYuLfnQLy/2yzY/V4uXfOTTkqVzXYqmi5fY/Lwo5eaX+pSXn0vLls53+fO1ZNkCl1yZZfNVXe3yqhdoWfVCLVm+QMuXz9cySy6/2i1b8su5VL3C5cUpt97S8hULfZ5No3k3rYmTy/dpkU8rVtr6+T5vha13y5aXn2pWLnbTJS65aY2lRapZtSTKr3HTOK1c6qeWt9KVt+UVK2ze8lsmAACAQgXfweh4aKnSNrXWUiWKS4R6/uXXdeWNd2nlqlVt/vc0sF9vnXnqsdpxh+3cUkBLFQBAC7RUAbA10VIFQFtASxUAaHtoqdI6rpIBAAAAAAAAAABKQFAFAAAAAAAAAACgBARV0L7kusdKJpMtu/2KBltpe8kJgoSSCfr1AgAAAAAAAID2jqAK2hULTSQSgYYM7Ks9x+6skcOHavj2QzR82HZtMtnxjR+3s3r37hkFgYitAAAAAAAAAEC71eEf8TJQfdvU2kD1+apX1GjFilV+0KS2KplMqGePrqqsqMjlSPMXMlA9AKAZA9UD2JoYqB5AW8BA9QDQ9jBQfeu4Ska71a1LZw0e2FfbDe7fZtOgAX1bBFQAAAAAAAAAAO0XQRUAAAAAAAAAAIASEFQpwprAW7ImTqStk3JjvLdgWeubAAAAAAAAAADYVAiq5Aul+sZG1ays1fKalaStmFbV1ioMs35Q+mzW+nmu1+rVdRuUGtzvFAAAAAAAAACAjcVA9bmB6l26cFnN6jPrMon0wCHbBclUihdnqwlUV1+vp557QfPmL9aQQQM0cvj2Kisry60vnQ38PmRgf03Yc6yqOrWNAe4YqB4AkI+B6gFsTQxUD6AtsB4rGKgeANoW+2xmoPriCKrkgiq1jY0XfjBv6ZmzPlqazoYKQmu2Qv9RW1U2m/HdgLk3rBIWbVjvv1bbJlS/3r107udO0E4jdnB5W/+XSlAFAJCPoAqArYmgCoC2gKAKALQ9BFVaR1AlF1RZWdtw4ax5S86cM3dJOplOBe4PRJ07V0WFeNC9dWxE/MPe9EuXLlP1smqVV5TrS6efrPG7j86t3boIqgAA8uUHVY444giCKgC2qDiocvfdd/ugij3IJKgCYEuLgyoPPvggQRUAaCMIqrSOoEpBUOWD+cvSw3YYFhx+xKEaOnSIbyXBk+72p7GhQS+++Ir+dd8U1a2u03mfP1l7jCGoAgBoe+Kgyu677+6DKqlUKrcGALaM+vp631LlzTff9C1VDjzwQHXu3Dm6FwKALWTlypU+qDJt2jSCKgDQBhBUaR1BlaagSuOFs+YtPvOjhcvTn5j48eD4E45Vz57do0K8TO2OfePuvXdn62+XXaWPPpyrL51xEkEVAECb1NDQoAsvvFA77LCD9tprLyWTydwaANgy7HPoqaee0ty5c/1n0W677aaKiorcWgDY/Owe3j6LXnjhBb377rs+wEtQBQC2LoIqrSOoUiSocvCkg4JjJx+lbt26RoXQLn0w50P97bKr9f7sOfrSGScSVAEAtFlz5szR1VdfrbKyslwOAGw5cRdgNrXWcpZopQJgS7LPH9PY2OiDK/ZFk09+8pMEVQBgKyKo0jo6yQUAANjK7GLVxlKxKYlEIm3pZA8zLahrrVOstZwtFytHIpFImyvZ504c2O3SpYt69uxJ610AQJtFSxVaqmyzaKkCAGgP3nnnHdXW1vKtcABbnT3Q5LMIwNZmgZW+ffuqW7dufCYBwFZkQW9aqhRHUIWgyjaLoAoAoD3IZDJKJGg8DAAAkI+ACgBsXQRVWscdPAAAAAAAAAAAQAkIqgAAAGxF1l+4fROTRCKRSCQSidScAABoqwiqAAAAAAAAAAAAlICgCgAAAAAAAAAAQAkIqgAAAAAAAAAAAJSAoAoAAAAAAAAAAEAJCKoAAAAAAAAAAACUgKAKAAAAAAAAAABACQiqAAAAAAAAAAAAlICgCgAAAAAAAAAAQAkIqgAAAAAAAAAAAJSAoAoAAAAAAAAAAEAJCKoAAAAAAAAAAACUgKAKAAAAAAAAAABACQiqAAAAAAAAAAAAlICgCgAAAAAAAAAAQAkIqgAAAAAAAAAAAJSAoAoAAAAAAAAAAEAJCKoAAAAAAAAAAACUgKAKAAAAAAAAAABACQiqAAAAAAAAAAAAlICgCgAAAAAAAAAAQAkIqgA5YZib5hIAAAAAAAAAAPkIqgCOBVEas6FW1YVqzIQKomwAAAAAAAAAAJoQVEGH15iVZs3P6L6X63XjU7VuWqcPlmSUdfkAAAAAAAAAAMQIqqBDsy6/Plqa1R3PrdZdL6zWw2/U667n63TPS3VasDzb1CUYAAAAAAAAAAAEVdChZbKhXvuwQS+916AVtaHqGqSaulAvuuUZ86y1Ssj4KgAAAAAAAAAAj6AKOrSGrLRoRVb1mVyGY61TVtVJ86sblbGIClEVAAAAAAAAAIBDUAUdWllS6tMloWTBO6EiLfXtklwjHwAAAAAAAADQcfHIGB1aKhFoeN+US0klg8C3SrFAyo79kxruUsKtt2wAAAAAAAAAAAiqoEOznr22753UCXtXaMLIlEb0T2r/ndI6YmyFBnRPingKAAAAAAAAACBGUAUdXjoljR2a1hcmdtL3Dq/SOZ/opJ0HpZTi3QEAAAAAAAAAyMNjY8AEUufyQL26JNSpgi6/AAAAAAAAAABrIqgCOBZDsa7AQv/DcgAAAAAAAAAAaImgCgAAAAAAAAAAQAkIqgAAAAAAAAAAAJSAoAoAAAAAAAAAAEAJCKoAAAAAAAAAAACUgKAKAAAAAAAAAABACQiqAAAAAAAAAAAAlICgCgAAAAAAAAAAQAkIqgAAAAAAAAAAAJSAoAoAAAAAAAAAAEAJCKoAAAAAAAAAAACUgKAKAAAAAAAAAABACQiqAAAAAAAAAAAAlICgCgAAAAAAAAAAQAkIqgAAAAAAAAAAAJSAoAoAAAAAAAAAAEAJCKoAAAAAAAAAAACUgKAKAAAAAAAAAABACQiqoEMIgkCJNpLsWAAAAAAAAAAA7Q9BFWzTLH4Ruv+qly/XgkWL2kRasmyZO6hQFRVlqihPK5lIRIEWYi0AAAAAAAAA0KZ1+Me4F1xwgQWWeq6sbbxw1rzFZ360cHn64EkHBcdOPkrdunWNCqFd+mDOh7r8b1fr7bdnacdhA9Wje5UPZmxt9Y2N+mjefK1YsVK9evbQt750jvbZY2xuLQAAAAAAAABsXdlsVtOmTQunTp2qmpqamUEQfKNXr14PnX/++XW5Ih0WQRWCKtusOKjyzjvv6TOf3E8jhg3Ordm6qlfUaMpDj2nWu7PVu3cvXfCtr+qAffbMrQUAAAAAAACArYugSusIqhBU2WZZUOVvl12t92fP0XmfP0njd985t2brmrdgoX7316v13xdeVt8+vXXxBd/WQfvv49bYeCtRGQAAAAAAAADYWgiqtI4xVdAhhGHoPwjaQrJjsZFefASFKAoAAAAAAAAAtBsEVQAAAAAAAAAAAEpAUAUAAAAAAAAAAKAEBFUAAAAAAAAAAABKQFAFAAAAAAAAAACgBARVAAAAAAAAAAAASkBQBQAAAAAAAAAAoAQEVQAAAAAAAAAAAEpAUAUAAAAAAAAAAKAEBFXWEGp17WrV1zcoDMNcHtob+93V1dW532O9LUWZAAAAAAAAAABshCA37bAuuOACCyz1XFnbcOGseUvOnDNvaXrw4EHBQQcfqKFDhygIiDu1R42NjXp1+qt66KHH/Px5Z5ysPcaMzq3duuYvXKRLL7ta/31xmvr26a2Lf/wtHbT/Pm5N4P7eojIAAAAAAAAAsLVks1lNmzYtnDp1qmpqamYGQfCNXr16PXT++efX5Yp0WARV8oIqb8+1oMqSdCKZDKqqOqm8vFzujyUq2E5Zi431badhZxzYz6156u6g7cjt2KPDWL+DCcOsVq2qVW1trSrKy/Slz5+s8WN2zq3dugiqAAAAAAAAAGjLCKq0rsM/wo2DKg2NjRe+v6D6zLfmLE43ZDOBDyo0P9Fvnzbw+K3XM7/ZVjp3C6VEr78dSHQQFhxar8OJT8BtN7B/X33hjBO14/ZDfd1bG0EVAAAAAAAAAG0ZQZXWdfhHuHFQxaULa+sazkxXdk2P3mXXIJ1O2dP9dizQqtWrNOXhJ/Ti9Nd8i5t1jhHjVqdSKX36kwdo3JidlUokcyu2LDvWVatX6/Z77tc7783R6J1GaK9xu6uyoiJXonQWpOjft5d22nEHpd25tQUEVQAAAAAAAAC0ZQRVWkdQJRdUcX8UF2YymTNHjRqVPvroo4P23vWXBVCWLKvWLy+9TLf94wH/sH6dQRWnvKxMP/7ml3Xi0Z9ROp3eag/5q5ev0Pk/+LmeePZ5HfrJA3TaiZPVvVuX3Nr141u9tKFfJUEVAAAAAAAAAG0ZQZXWMQp7MfZke1tIJoyCKeuTfACiWH1bMFlAKzqe6DSi7Ch/fVNbCqgAAAAAAAAAANovgipF2DP4bSFtjGL1bckEAAAAAAAAAEBbQ1AFAAAAAAAAAACgBARVAAAAAAAAAAAASkBQBQAAAAAAAAAAoAQEVQAAAAAAAAAAAEpAUKUNCcNwk6UmGzDqe9C0TfG6NyjlagQAAAAAAAAAoL0iqNJG1K6u01vvvK8Zs2brvTkfbXSa7dKHcxdo9ep6laXTSqfSfrq2ZGVSqZSWVddo9gdzi9a7IWnW7A80f8EiZbPZ3NkCAAAAAAAAAND+bEA7hm3LBRdcYIGlnkEQXJjJ/P/27i3Gruq+A/A6M2OPZzAGbIZruCckdggyibiKGOOACgooIiCCIAkqfWmVypWSVupTDc1bHyq1LwkQqSpJqihNeIAWAw4gruFmLg4kQMDmboyvgG9zPT2/7XOcgfpyMLQ+M/N90vY5Z++11157zszL/vm/1uh1c+fOnXbZZZfVent7S2Pfjkb/h1LBUR8bK3fe93D5j1vvqL6Rvt4Zn8oXMzI6Wt54e3VZt35DqVelInuuF8nRrq6ucvwxR5dDDzmk1Loao/ikJSaNLoZHRsuxnzmiXHvFpeXE449pHtiz997/oPz13/+wPPTY8nLxBQvKtVddXg4+aFbz6MS2Zu268i83/lt5/KkV5bCBQ8s//cPflkXnntU4UhtXJQQAAAAAsH/kP8ivWLGivmzZsrJ58+aXarXa9+fMmXPP4sWLB5tNpqwp/wh3v4cq9XoZHBwu/3zjv5f/vP3u0t3dvaOi49O4dpKURj/70tMnzVJ2aowhP8fZB88qP/jLa8tFi85tHtgzoQoAAAAAwP4hVNk90391gFrjW5g2rWfH+1rjS2n8ky/mE2/7GKjknF32ty9bxtDocHRkuAwObm/sAQAAAACAiSnPvdmPUsUxbdq0cvIJnymzemtldNt7ZXT7+2Vs8NPZ6vuw7aqffd4a91KGtpRjj5hdjvvMkc27BgAAAACAiWfKTza0v6f/atm4aVO57fb/Ls88+2w1BVgWjJ8MUibW39dfzl+4oJx5xullxowZzSN7ZvovAAAAAID9w/RfuydU6ZBQJfKLOjw80ni3Yx2SySL3kpDo49xTK1R58LEnywXnnVP+4pory+xDDm4enWCyQM24W3/r7dXlX2++pSx/9jmhCgAAAADQcYQqu2f6rw6S0KG3d3pj6y3Tp0+fNFumN9tXo6Oj5e133i3rNmysfj6tLYZGShkcqXf8NjzWzFUa467X6+Wtxv1s2LipugcAAAAAACaOKf//4jupUoU/aVWq3Pfwo+XAmQeU8889u1zyZ4vKrJkzq+9l47aesvyNnrJ1uHlCB5vdXy/zjx4uB0wbLWvWrSv/dec95eHHl5et27aXw1OpsuTvVKoAAAAAAB1DpcruCVWEKh1pR6jyj+W+hx+rPvfNmFGOPPywcvBBB1Zrzmyffmx5p/+8Mlwa31NVB9K5ZoxtKodtvb90bV9T1m/YWN5du64MDg1VoxaqAAAAAACdRqiye0IVoUpH+mioEuOXJumacXDpnTO3lO4sfN/ZoUp98IMyuOGFUh/e0tzzJ0IVAAAAAKDTCFV2T6giVOlIuwpVdnwf9VKvN9/XuvNmx8FOVh9rjHls5x9b1lVpEaoAAAAAAJ1GqLJ7FqqnIyU0yTRf44OthBGtPKJ6PzZS6qPDnb+NjWbAzfH/KVDJvXV1dZWu6h4bm0AFAAAAAKCjCVXoSH19M8pxxxxVuru7qqxh0m2Nf5L25h4HDp1Tfc5+AAAAAAA6V3fzdcpauHBhnmX31Wq1RfV6/bSBgYHuuXPn1np6ej5UJcH/n1RzpEplZl9f2bDpvbJl27aS76N3Rm+ZMUm2mf395aQTji3XXX15OX3+qWXatJ7m3QMAAAAA7F95RrtmzZqycuXKMjQ0tL5Wq93V39+/aunSpaPNJlPWlE8Nxq+pMjIyct28efOsqdIhBgeHysuvvl5eXvVq2bZ9sPGX3DwwCSQ0OuqIw8r8U+aWA/r7mnsBAAAAAPY/a6rsnlBlXKgyPDxchSrf/OY3hSodYqxeL6Ojox9ai2QyyG9W1lNJuAIAAAAA0EmEKrtnTZWPmGwP7ye6LOLe091dpvX0TKot05l1dQlUAAAAAAAmEqEKHS8VQ5Nza94gAAAAAAATglAFAAAAAACgDUIVAAAAAACANghVAAAAAAAA2iBUAQAAAAAAaINQBQAAAAAAoA1CFQAAAAAAgDYIVQAAAAAAANogVAEAAAAAAGiDUAUAAAAAAKANQhUAAAAAAIA2CFUAAAAAAADaIFThU1Ov15vvAAAAAABg8hGq8Kmp1WrNdwAAAAAAMPkIVSagVITsbttftm/fXt58882ydevW5h4AAAAAAJhchCoTzOjoaHn//ffLunXryvr166ttw4YNVZixP0OVN954o9x8883llVdeae4BAAAAAIDJRagygSQ0SaByxx13lBtvvLHcdNNN1etPfvKTcuutt5annnqqvPfee/slXBkaGqqCnrwCAAAAAMBkJFSZYDLN1ksvvVS9Hn/88eWEE04oAwMD5eWXXy4///nPq8Bl48aNzdYf1poibHzo8tHP4310f6vtrtpnPZWurl3/Oo0/b1fntvbtrV3LntqM37e7NgAAAAAAsC+EKhNQwosvf/nL5Vvf+la1XXvtteV73/teOffcc8tjjz1W7rvvvg9VjCRYGB4eLtu2baumCRsZGdm5P+0GBwf/V/iQacayP+e1ZF+rj5w3NjbWPLJr6TNt0k/OybnpY7x8bvWVcaVNtrz/6JjyOfsTKKW/jG18m1Zfec2Wdtn2Nk4AAAAAAGhHd/N1ylq4cGGt8dJXq9UWjY2NnTYwMNA9b968Wk9PT1V90Wk2b95cli9fXubMmVPmzp1bBSwZ58yZM8sRRxxRVq9eXVWtNO6hzJo1qwodsu7KE088UR566KGyYsWKsmnTpupY7vHJJ5+s9h111FGlt7e36ishxOuvv14efPDBMm3atHLIIYdU04o9/fTT5YEHHijPPvts1ecBBxxQXTfnrF27tupr/vz5VV+5bsKUF198sbru448/XlXYJPTIeblWZC2WHMs1n3/++ar/jCfXyz22xhSpwMm101/GkjH09fWV/v7+6uewZs2a8uijj5YZM2aUVatWVeFS+j/88MOrNgAAAAAA7F2e7+Z568qVK/NMd32tVrurv79/1dKlSz/8v+anIJUqE1SChvFbJCg5+eSTy5YtW6pwJUFFgog777yz3H///eWDDz6ogo5HHnlk5zRhCTnuvffeKkTJH0q27Pvd735XBRepBknAsWzZsnLPPfdUa7qk+iMhzW233VYFG7uSipKEP7/+9a/Lq6++WlWO5Hp33XVX+c1vflP1mfFlHZaEH7fffnsVwKRdrnH33XdX18yYI2FSrp9zszB/xpUQJ/cx/l4T0OR+0mfGlv25JwAAAAAA+KSEKpNIKk9S3dHd3V0FEwke/vCHP1SVH6effnq55ppryne+851y9tlnlxdeeKEKMT7/+c+X6dOnlz/+8Y9VmBIJMlLpkQqPbKkwSYVIql+uvvrq8u1vf7ssWLCgSimfeeaZXYYW77zzThWAHHzwweWKK66orpvrp7om48n1W4FHApO8v/TSS6v+0/a0004rv/3tb6txJGh55ZVXqhDlC1/4QrnqqquqMZx33nlVJUrGkDaRYCUVL2eeeWb57ne/Wy666KKq0gYAAAAAAD4pocok06paSUiRipXf//73VQVLwozsS6VKFrfPFFmZJizHElQk5EgFSLz22mtVlUdClEyblWAm04ClXUKQhDWZ4ivn5ljCmOxvbblOwpD099WvfrVaUD/ThB166KFV2JFr57zW2i6Z4usrX/lK1WemBsvC+1kfphWmJHTJfURCoEz1lfvIdGcZQ+4jY2rd+ymnnFIFR7le+kvIBAAAAAAAn5RQZRJJmJEAImFEwpAEDalYSUXJLbfcUn70ox9V209/+tNqPrxICPLFL36xOi9VHwk6UrWS4CPhS/rMVF0JWn7xi1/s7ONnP/tZefPNN6sgI23Gy+cEOjnWWnOlJQFKKmNyvVaoks+tNU/SNls+Z0vVTKYby3289dZb5Ze//GV1/R//+MfVGDK1WK6Xe869ZNwJZ9JHPgMAAAAAwKdFqDKBtSpDWu+3bt1aVYhkGrDDDjusqtDIlinBMp3WGWecUW3nnHNOueyyy6pqjoQQJ554YjVNV8KXVKgkQDnuuOOqSo9UhaRKZfbs2eXUU0/d2UfOTR8LFy6sjrfCkMhrgpJIsDNewo+EKRlXq332tdq17in7sqXvjCHtDzrooJ1jyHRmuY9vfOMbZdGiRTsXvk+faQ8AAAAAAJ82T58nqFYgEQkhtm3bVq178txzz5XPfe5z1dRYCUyyJkqmwMqUWBdccEG58MILy9e+9rVqPZIsap8AJmFFpuhK5UkWqE+VyWc/+9mqUiShRvpIxUmm3kqAkT7SV95nWrH00ZJxJQBJqJP9qX7JVF2RipK1a9dW4U/reKQSJVUoCVtyfu4nn9MuU4Hl2kceeWR1Hxlzrpvr5z4S6nzpS1+qxgkAAAAAAP+XpvxiEwsXLkw60Ver1RaNjY2dNjAw0D1v3rxaHviPDy46RabNWr58eRVQJGzINF6pTrn33nvLQw89VAUgF198cfWaoKG1fkmmyYoEJqtXr66m+GpVf+Q1QUZCmSxKnwAja5qk/xxL1UmqWLLlZ5KwI31kofucl0qYd999tzzxxBNVRUym30ogk2nDnn766SosSbCScT7wwANVmHL++edXlTBZ0P6pp56q1l/JtdIuY1i2bFk1trRL/+kvY25N95UQKedmPZX0n8XoU2WTRfBTeZOpyzLWTvwOAQAAAAA6WZ775tlzngkPDQ2tr9Vqd/X3969aunTpaLPJlCVUmWChSsKELNqeheUTljzzzDNVCJFgoVWNkqm7WlNgJZjIYu6vv/56FZokkMm5mW4r1SmZ1iv3mftNm0z9tWDBgmpR+oQcOXbggQdW04MlOEkAkj5y7ax3kqqYhCMbN26s+s30XKmSSRCT1+xP9UzOSSiS8CNBSc5L/wlnMv5UxqQ65ZFHHqn6Tojy9a9/vZx00klVu1SpZAz5Q27dR9olJDr22GOripaEOFnYPqHKMcccI1QBAAAAANgHQpXdm/JPnJcsWZL0YXbjl+KHw8PD182dO3fa5ZdfXssaHZ34QD6VHJmmKwFCSypSEo5ky7g/uqZIApdUgqxbt646PwFKqj8ShrTWPsn6JQk4EoIkkEgYM/7+c3zTpk1VsJLputJH2rQClFTQJBRJlUtCnMgfXoKXnJPX1lRiCVZyfipOEtL86le/KpdcckkVBqXaJCFKxpe2ed/SGkOmEEu4lD4StCRQyX23KmhaPwsAAAAAAD6+PLtdsWJFPTMKbd68+aVarfb9OXPm3LN48eIdaz1MYUKVCRaqRMKK8VrjzP7djXlPx8Zrt92u7Orc1r7xx1rvx4cqWXD+rLPOqo7v6fp7G9/ejgMAAAAAsGdCld2zUP0kkCAh9hQm5FjatbZ99XHPHz+m1nm7G2er7z31/2ndBwAAAAAAfFxClQkowcJHt3a0035vfe3p/L31u6vjWTvl6KOPrhbFb7XZUz+xp3Z7OxcAAAAAAPaVUIX9Jmu/nHDCCeXKK6+sFqrfXVACAAAAAACdQKjCftXX11ctSJ9XAAAAAADoZEIVAAAAAACANghVAAAAAAAA2iBUAQAAAAAAaINQBQAAAAAAoA1CFQAAAAAAgDYIVQAAAAAAANogVAEAAAAAAGiDUAUAAAAAAKANQhUAAAAAAIA2CFUAAAAAAADaIFQBAAAAAABog1AFAAAAAACgDUIVAAAAAACANghVAAAAAAAA2iBUAQAAAAAAaINQBQAAAAAAoA1CFQAAAAAAgDYIVQAAAAAAANogVAEAAAAAAGiDUAUAAAAAAKANQhUAAAAAAIA2CFUAAAAAAADaIFQBAAAAAABoQ3fzdcpauHBhrfHSV6vVFo2NjZ02MDDQPW/evFpPT8+OBgAAAAAAMMWsWbOmrFy5sgwNDa2v1Wp39ff3r1q6dOlo8/CUlUBhSluyZEmqdWY3th+OjIxcd9JJJ0278MILa729vdVxAAAAAACYSsbGxsqLL75Yf/jhh8v27dtfqtVq358zZ849ixcvHmw2mbKEKuNClXq9/ufTp0/vmTVrVldDdRwAAAAAAKaSer1eBgcH61u2bCkjIyMvdXV1/UCosoNQZUeoMnN0dPRvGr8Yf9XYDmq833EQAAAAAACmoO7u7lSs5GH5k6Ojo9f39PQ8esMNNwztODp1TflQpV6v12666aaet99++7TGxwWNz7Ozb8dRAAAAAACYsoa6urqeHx4efnD+/PnvXnnlldZUab5OeUuWLOnZsmVLb+MXxLxfAAAAAABMeX19ffXXXntt5Ljjjhu64YYbxpq7pzShSlOqU66//no/j4/whwIAAAAAAAAAAAAAAAAAAAAAAAAAAAAAAAAAAAAAAAAAAAAAAAAAAAAAAAAAAAAAAAAAAAAAAAAAAAAAAAAAAAAAAAAAAAAAAAAAAAAAAAAAAAAAAAAAAAAAAAAAAAAAAAAAAAAAAAAAAAAAAAAAAAAAAAAAAAAAAAAAAAAAAAAAAAAAAAAAAAAAAAAAAAAAAAAAAAAAAAAAAAAAAAAAAAAAAAAAAAAAAAAAAAAAAAAAAAAAAAAAAAAAAAAAAAAAAAAAAAAAAAAAAAAAAAAAAAAAAAAAAAAAAAAAAAAAAAAAAAAAAAAAAAAAAAAAAAAAAAAAAAAAAAAAAAAAAAAAAAAAAAAAAAAAAAAAAAAAAAAAAAAAAAAAAAAAAAAAAAAAAAAAAAAAAAAAAAAAAAAAAAAAAAAAAAAAAAAAAAAAAAAAAAAAAAAAAAAAAAAAAAAAAAAAAAAAAAAAAAAAAAAAAAAAAAAAAAAAAAAAAAAAAAAAAAAAAAAAAAAAAAAAAAAAAAAAAAAAAAAAAAAAAAAAAAAAAAAAAAAAAAAAAAAAAAAAAAAAAAAAAAAAAAAAAAAAAAAAAAAAAAAAAAAAAAAAAAAAAAAAAAAAAAAAAAAAAAAAAAAAAAAAAAAAAAAAAAAAAAAAAAAAAAAAAAAAAAAAAAAAAAAAAAAAAAAAAAAw2ZXyP9E5ll13GMWHAAAAAElFTkSuQmCC;fontSize=10;" vertex="1" parent="1">
          <mxGeometry x="220" y="620" width="627.81" height="309.06" as="geometry" />
        </mxCell>
      </root>
    </mxGraphModel>
  </diagram>
</mxfile>
